<svg width="133" height="156" viewBox="0 0 133 166" fill="none" xmlns="http://www.w3.org/2000/svg">
<g id="Group 175">
<path id="Rectangle 1" d="M0 0H132.8V144.088C132.8 156.19 122.99 166 110.888 166H21.912C9.81035 166 0 156.19 0 144.088V0Z" fill="#2689A4"/>
<path id="Vector" d="M32.9218 102.335V116.128H46.7148L87.395 75.4113L73.602 61.6183L32.9218 102.335ZM105.05 106.418L89.4179 122.05L70.2916 102.924L76.8019 96.4134L80.4801 100.092L89.5651 90.9698L94.788 96.1927L89.4179 101.416L93.3168 105.094L98.5397 99.9444L105.05 106.418ZM46.1999 78.7216L27 59.6321L42.6321 44L49.1056 50.5103L40.0206 59.6321L43.9562 63.5309L53.0044 54.4091L58.2274 59.6321L53.0044 64.8182L56.6825 68.4964L46.1999 78.7216ZM98.0615 64.6343C99.496 63.1999 99.496 60.9562 98.0615 59.4482L89.4547 50.9885C88.0938 49.554 85.703 49.554 84.2685 50.9885L77.5008 57.7194L91.2938 71.5124L98.0615 64.6343Z" fill="white"/>
</g>
</svg>
