<svg width="78.05px" height="78.05px" viewBox="0 0 79 79" fill="none" xmlns="http://www.w3.org/2000/svg">
<path d="M5.9218 58.3352V72.1282H19.7148L60.395 31.4113L46.602 17.6183L5.9218 58.3352ZM78.05 62.4179L62.4179 78.05L43.2916 58.9237L49.8019 52.4134L53.4801 56.0915L62.5651 46.9698L67.788 52.1927L62.4179 57.4157L66.3168 61.0938L71.5397 55.9444L78.05 62.4179ZM19.1999 34.7216L0 15.6321L15.6321 0L22.1056 6.5103L13.0206 15.6321L16.9562 19.5309L26.0044 10.4091L31.2274 15.6321L26.0044 20.8182L29.6825 24.4964L19.1999 34.7216ZM71.0615 20.6343C72.496 19.1999 72.496 16.9562 71.0615 15.4482L62.4547 6.98845C61.0938 5.55398 58.703 5.55398 57.2685 6.98845L50.5008 13.7194L64.2938 27.5124L71.0615 20.6343Z" fill="white"/>
</svg>
