<?xml version="1.0" encoding="UTF-8"?> <svg xmlns="http://www.w3.org/2000/svg" width="49.17" height="49.17" overflow="visible"><path d="M37.18 47.76c1.03.07 2.24-.2 3.19-1.13 2.19-2.13 4.36-4.3 6.53-6.46.17-.17.32-.34.46-.53.56-.77.54-1.76-.03-2.52-.3-.4-.73-.65-1.15-.9-2.87-1.7-5.74-3.39-8.61-5.08-1.63-.96-2.98-.77-4.3.59-.73.75-1.48 1.49-2.21 2.24-.35.35-.74.47-1.23.38-.95-.17-1.79-.59-2.6-1.07-4.04-2.45-7.29-5.75-10.12-9.49-.98-1.3-1.79-2.72-2.25-4.31-.17-.57-.05-1.02.37-1.43.66-.64 1.31-1.3 1.96-1.96 1.25-1.25 1.4-2.34.56-3.91-1.21-2.27-2.4-4.55-3.6-6.82-.46-.88-.9-1.78-1.41-2.63-.94-1.58-2.39-1.75-3.68-.46-2.1 2.11-4.21 4.22-6.32 6.33-.77.77-1.18 1.7-1.29 2.8-.19 1.86.18 3.65.65 5.41 1.05 3.92 2.98 7.41 5.27 10.72 2.44 3.54 5.38 6.62 8.49 9.57 3.79 3.6 8.04 6.52 12.81 8.65 2.62 1.18 5.35 1.93 8.51 2.01z" fill="none" stroke="#000" stroke-width="2.8" stroke-miterlimit="10"></path></svg> 