<?xml version="1.0" encoding="UTF-8"?> <svg xmlns="http://www.w3.org/2000/svg" width="38.98" height="40.08" overflow="visible"><path d="M38.73 20.05v19.08c0 .63-.06.7-.69.7-8.9 0-17.79 0-26.69.01-.42 0-.66-.14-.87-.53-2.29-4.29-4.61-8.58-6.91-12.86-1.05-1.94-2.09-3.89-3.15-5.82-.24-.44-.23-.84.01-1.29 2.49-4.62 4.98-9.26 7.47-13.88.82-1.53 1.66-3.05 2.46-4.59.25-.48.56-.61 1.08-.61 8.68.01 17.35.01 26.03.01h.61c.62.01.66.05.66.66v16.95c-.01.72-.01 1.45-.01 2.17zm-1.29-.03V2.1c0-.63-.06-.71-.63-.71-8.27 0-16.55 0-24.82-.01-.36 0-.6.13-.77.45-.59 1.12-1.19 2.23-1.79 3.34-2.53 4.74-5.05 9.47-7.59 14.19-.23.43-.25.78-.01 1.22 3.15 5.82 6.29 11.65 9.42 17.49.19.35.43.49.85.49 8.21-.01 16.41-.01 24.62-.01.7 0 .72-.02.72-.7V20.02z" stroke="#000" stroke-width=".5" stroke-miterlimit="10"></path></svg> 