<svg width="54" height="54" viewBox="0 0 54 54" fill="none" xmlns="http://www.w3.org/2000/svg">
<path d="M44.7188 46.4062V6.8625C44.7188 5.86839 43.9129 5.0625 42.9187 5.0625H11.0812C10.0871 5.0625 9.28125 5.86839 9.28125 6.8625V46.4062H6.75C5.81802 46.4062 5.0625 47.1618 5.0625 48.0938C5.0625 49.0257 5.81802 49.7812 6.75 49.7812H47.25C48.182 49.7812 48.9375 49.0257 48.9375 48.0938C48.9375 47.1618 48.182 46.4062 47.25 46.4062H44.7188ZM12.6562 8.4375H25.3125V21.0938H12.6562V8.4375ZM12.6562 24.4688H25.3125V39.6562H12.6562V24.4688ZM41.3438 46.4062H12.6562V43.0312H41.3438V46.4062ZM41.3438 39.6562H28.6875V24.4688H41.3438V39.6562ZM41.3438 21.0938H28.6875V8.4375H41.3438V21.0938Z" fill="#2689A4"/>
</svg>
