<?xml version="1.0" standalone="no"?>
<!DOCTYPE svg PUBLIC "-//W3C//DTD SVG 20010904//EN"
 "http://www.w3.org/TR/2001/REC-SVG-20010904/DTD/svg10.dtd">
<svg version="1.0" xmlns="http://www.w3.org/2000/svg"
 width="1920.000000pt" height="763.000000pt" viewBox="0 0 1920.000000 763.000000"
 preserveAspectRatio="xMidYMid meet">

<g transform="translate(0.000000,763.000000) scale(0.100000,-0.100000)"
fill="#red" stroke="none">
<path d="M0 4629 c0 -2857 1 -3001 18 -2988 16 13 16 13 0 -7 -17 -19 -18 -74
-18 -827 l0 -807 1754 0 c1043 0 1757 4 1760 9 10 16 -4 35 -54 76 -27 22 -55
54 -61 70 -6 17 -14 80 -16 141 -6 124 4 173 43 207 17 14 22 27 18 41 -3 14
-2 17 3 9 6 -9 31 10 86 67 43 44 80 80 83 80 4 0 38 21 78 47 73 49 116 88
116 106 0 6 -14 -6 -32 -27 -18 -22 -37 -35 -45 -31 -8 2 -22 1 -32 -4 -14 -8
-17 -6 -16 12 1 14 9 22 21 23 45 2 45 4 13 45 -18 23 -35 37 -37 30 -5 -14
-82 -15 -82 -1 0 6 -18 10 -40 10 -22 0 -40 5 -40 10 0 6 -18 10 -40 10 -22 0
-40 5 -40 10 0 6 -18 10 -40 10 -38 0 -40 2 -40 30 0 28 -2 30 -40 30 -38 0
-40 2 -40 30 0 27 -3 30 -30 30 -30 0 -30 1 -30 55 0 30 -4 55 -10 55 -6 0
-10 42 -10 105 l0 105 -39 0 c-36 0 -40 -3 -43 -27 l-3 -28 -25 25 -25 25 28
3 c24 3 27 7 27 43 0 39 0 39 -40 39 -33 0 -40 3 -40 20 0 17 -7 20 -40 20
-33 0 -40 3 -40 20 0 18 -7 20 -80 20 l-80 0 0 40 0 40 -80 0 c-47 0 -80 -4
-80 -10 0 -12 -77 -12 -105 0 -19 8 -19 9 3 9 19 1 22 6 22 41 l0 40 -40 0
-40 0 0 -40 c0 -22 -4 -40 -10 -40 -5 0 -10 18 -10 40 0 22 5 40 10 40 6 0 10
33 10 80 l0 80 -40 0 c-22 0 -40 5 -40 10 0 6 18 10 40 10 22 0 40 5 40 10 0
7 -21 10 -52 9 -43 -2 -54 1 -66 19 -8 12 -21 22 -28 22 -8 0 -14 9 -14 20 0
17 -7 20 -40 20 -33 0 -40 3 -40 20 0 17 -7 20 -40 20 -33 0 -40 3 -40 20 0
17 -7 20 -40 20 -27 0 -40 4 -40 14 0 14 79 26 181 26 l59 0 0 40 0 40 -40 0
c-38 0 -40 2 -40 30 0 28 -2 30 -40 30 -38 0 -40 2 -40 30 0 28 -2 30 -40 30
-33 0 -40 3 -40 20 0 17 -7 20 -40 20 -33 0 -40 3 -40 20 0 15 -7 20 -25 20
-18 0 -25 -5 -25 -20 0 -11 -7 -20 -15 -20 -12 0 -15 -14 -15 -70 l0 -70 -40
0 -40 0 0 70 c0 40 -4 70 -10 70 -5 0 -10 -19 -10 -41 l0 -42 -27 29 -28 29
-3 -27 c-2 -20 -9 -28 -23 -28 -16 0 -19 7 -19 40 0 33 -3 40 -20 40 -11 0
-20 5 -20 10 0 6 -18 10 -40 10 -38 0 -40 2 -40 30 0 28 -2 30 -40 30 -38 0
-40 2 -40 30 0 28 2 30 40 30 22 0 40 5 40 10 0 6 -33 10 -80 10 l-80 0 0 80
0 80 40 0 40 0 0 40 0 40 -40 0 -40 0 0 40 0 40 80 0 80 0 0 -31 0 -31 80 7
c58 5 80 4 80 -5 0 -6 4 -8 10 -5 5 3 10 13 10 21 0 20 -108 146 -115 134 -3
-6 -1 -10 4 -10 6 0 11 -4 11 -10 0 -5 -18 -10 -39 -10 l-39 0 1 47 c1 29 -3
48 -10 50 -15 5 -18 43 -3 43 6 0 10 9 10 20 0 11 -4 20 -10 20 -5 0 -10 -9
-10 -20 0 -16 -7 -20 -30 -20 -16 0 -30 5 -30 10 0 6 -18 10 -40 10 -36 0 -40
3 -40 25 0 27 -17 34 -26 10 -5 -12 -31 -15 -150 -15 -137 0 -144 1 -144 20 0
17 -7 20 -40 20 -33 0 -40 3 -40 20 0 17 -7 20 -40 20 l-40 0 0 40 c0 22 -4
40 -10 40 -5 0 -10 18 -10 40 0 22 -4 40 -10 40 -5 0 -10 9 -10 20 0 13 7 20
20 20 11 0 20 -4 20 -10 0 -5 18 -10 40 -10 36 0 40 3 40 25 0 22 4 25 40 25
29 0 42 5 50 19 13 25 13 44 0 36 -6 -3 -10 -15 -10 -26 0 -15 -7 -19 -38 -19
-21 0 -47 7 -58 15 -12 10 -13 13 -4 10 12 -4 16 1 16 20 0 21 -4 24 -21 19
-38 -12 -52 -25 -20 -19 29 5 29 5 5 -5 -14 -6 -33 -9 -43 -6 -21 5 -138 -33
-149 -49 -4 -5 -3 -14 2 -19 6 -6 10 -15 10 -21 0 -5 -7 -1 -15 9 -8 10 -12
24 -8 29 4 6 0 8 -11 4 -10 -4 -20 -7 -22 -7 -3 0 -2 -4 1 -10 3 -5 1 -10 -4
-10 -6 0 -11 4 -11 10 0 5 -22 9 -50 7 -49 -2 -51 -3 -45 -27 3 -14 2 -20 -2
-15 -10 13 -57 20 -49 7 3 -5 -5 -7 -18 -5 -20 4 -24 0 -28 -25 -3 -22 -1 -29
9 -25 7 3 19 -2 28 -10 8 -9 11 -17 6 -19 -4 -2 -10 -21 -14 -43 -3 -22 -3
-34 0 -28 3 9 17 11 45 6 32 -5 39 -3 33 6 -6 10 -3 11 14 2 24 -13 29 -26 6
-17 -8 3 -15 1 -15 -5 0 -5 -11 -14 -25 -21 -13 -6 -22 -15 -19 -19 3 -5 -1
-9 -9 -9 -19 0 -60 -46 -55 -61 3 -9 11 -6 25 8 12 12 24 18 28 15 3 -4 10 0
15 7 5 9 14 11 26 6 11 -5 25 -7 33 -6 10 2 12 -4 7 -21 -4 -13 -8 -28 -8 -34
-1 -6 -11 -9 -23 -6 -18 3 -23 -2 -29 -28 -5 -27 -10 -31 -27 -27 -16 4 -18 3
-8 -9 6 -8 26 -14 43 -14 39 0 61 -36 39 -66 -10 -14 -10 -20 0 -26 7 -5 2 -6
-14 -3 -31 8 -109 -24 -109 -43 0 -9 -6 -12 -16 -8 -12 5 -15 2 -10 -9 3 -9 2
-14 -3 -11 -5 3 -13 -13 -19 -35 -9 -36 -8 -40 6 -34 77 31 109 37 183 33 57
-3 84 -10 99 -23 24 -22 26 -53 4 -62 -8 -3 -13 -12 -10 -19 3 -8 0 -11 -8 -8
-13 5 -46 -20 -46 -35 0 -24 28 -31 63 -16 39 16 67 11 67 -12 0 -8 4 -11 10
-8 19 12 82 -7 87 -26 3 -11 10 -19 16 -19 6 0 21 -9 33 -21 18 -17 30 -20 63
-14 31 5 41 11 41 26 0 25 18 24 73 -5 32 -17 47 -21 51 -13 2 7 5 4 5 -7 1
-15 4 -16 16 -6 13 11 18 10 30 -6 8 -10 15 -22 15 -26 0 -5 10 -8 23 -8 29 0
53 -15 38 -24 -17 -11 -13 -29 5 -22 9 3 12 2 9 -5 -4 -5 -1 -18 6 -27 7 -9
10 -14 5 -10 -11 9 -46 -34 -46 -57 0 -9 4 -13 10 -10 5 3 10 1 10 -4 0 -6 6
-11 14 -11 22 0 64 -39 68 -62 6 -46 -104 -126 -189 -137 -40 -6 -61 -16 -91
-43 -22 -20 -38 -39 -34 -42 8 -9 -3 -7 -32 4 -22 8 -26 7 -26 -10 0 -10 5
-30 11 -43 9 -21 6 -40 -20 -113 -17 -49 -38 -95 -48 -101 -10 -8 -17 -27 -17
-50 -1 -35 -3 -37 -51 -49 -67 -18 -79 -36 -54 -82 10 -20 19 -43 19 -50 0
-39 -89 -152 -120 -152 -26 0 -210 71 -210 82 0 5 14 1 32 -8 55 -29 171 -64
189 -59 18 6 99 118 99 137 0 5 -9 26 -19 47 -34 65 -17 85 84 103 16 3 19 10
17 41 -2 28 2 39 18 49 26 17 74 159 66 196 -20 87 -20 87 27 82 10 -1 38 17
62 39 37 34 52 41 85 41 43 0 120 36 120 56 0 7 7 11 15 10 9 0 23 12 33 27
17 28 17 29 -13 53 -16 13 -38 24 -47 24 -23 0 -38 29 -28 56 5 12 6 25 2 30
-4 4 -2 4 4 1 15 -9 27 20 13 29 -6 3 -9 15 -6 25 5 18 -13 29 -53 34 -8 1
-28 7 -44 13 -24 11 -32 10 -47 -4 -22 -20 -26 -12 -4 9 13 14 11 17 -18 35
-33 19 -34 19 -43 -1 -13 -27 -121 -31 -135 -4 -6 9 -21 17 -36 17 -20 0 -24
4 -20 20 4 15 -1 22 -19 26 -13 4 -33 4 -45 1 -12 -3 -24 1 -31 12 -9 15 -16
17 -44 8 -70 -21 -113 34 -61 79 13 11 31 23 40 27 40 15 -1 52 -69 63 -46 7
-154 -12 -154 -27 0 -6 -4 -8 -9 -5 -13 9 -83 -56 -77 -71 4 -9 1 -11 -5 -7
-7 4 -10 1 -7 -7 2 -8 19 -15 36 -17 39 -4 42 -20 5 -24 -24 -3 -30 -10 -42
-53 -7 -27 -15 -97 -17 -155 -4 -101 -6 -107 -39 -155 -27 -39 -32 -52 -22
-63 9 -11 7 -17 -6 -27 -23 -16 -22 -25 3 -25 35 0 22 -15 -24 -29 -49 -14
-71 -35 -109 -101 -15 -25 -41 -59 -59 -75 l-33 -30 31 35 c18 19 42 55 54 80
26 52 61 87 94 96 18 4 22 11 18 30 -3 18 0 24 14 25 11 0 14 3 7 6 -21 8 -15
31 22 86 32 48 35 57 35 129 0 42 7 109 15 148 8 39 12 88 9 108 -5 30 -2 41
15 56 12 11 21 29 21 41 0 12 7 44 15 71 11 38 21 52 44 62 27 12 29 16 18 34
-8 13 -8 22 -2 25 6 2 28 12 50 22 l40 19 -32 1 c-25 1 -33 7 -42 31 -8 25 -7
32 5 37 9 3 20 0 25 -8 6 -10 9 -8 9 9 0 15 7 26 20 29 22 6 24 11 10 33 -7
11 -10 11 -10 2 0 -7 -4 -11 -8 -8 -5 3 -21 -4 -38 -15 -35 -23 -40 -23 -48
-4 -10 28 13 65 61 95 41 26 44 30 22 30 -14 0 -30 -5 -37 -12 -21 -21 -33 3
-22 42 15 54 13 61 -15 54 -21 -5 -25 -3 -25 14 0 12 4 24 10 27 5 3 10 17 10
31 0 19 5 24 24 24 16 0 26 7 29 21 5 18 11 21 35 16 16 -3 34 -1 40 5 9 9 18
8 36 -1 21 -12 45 -6 218 53 107 36 213 68 236 72 40 6 42 6 42 -20 0 -26 0
-26 31 -11 29 15 32 15 45 -2 7 -10 14 -21 14 -24 0 -4 11 -10 24 -13 19 -5
30 -20 47 -66 16 -44 27 -60 40 -60 23 0 219 -64 259 -85 16 -8 48 -15 70 -15
24 0 53 -8 68 -18 45 -31 60 -33 81 -11 27 29 55 17 74 -31 10 -25 22 -40 33
-40 27 0 121 -48 127 -64 7 -18 89 -65 217 -125 71 -33 112 -46 165 -50 39 -4
72 -3 73 1 6 14 72 9 78 -6 4 -10 16 -12 43 -9 37 5 42 2 117 -70 66 -64 80
-73 92 -61 8 9 35 14 69 14 46 0 56 -3 60 -20 3 -11 10 -20 15 -20 6 0 39 -20
74 -45 34 -25 67 -45 72 -45 6 0 12 -5 14 -12 6 -16 108 -16 135 0 18 11 30
12 54 3 26 -9 37 -8 56 4 33 22 85 96 78 112 -2 8 -1 12 4 8 24 -14 184 366
206 490 3 22 31 93 62 158 30 64 52 124 49 133 -3 9 -2 12 4 9 7 -4 9 3 6 19
-3 15 -1 24 5 21 5 -4 9 0 9 8 0 20 39 67 55 67 14 0 62 -84 81 -145 l13 -40
0 33 c1 39 -66 172 -110 217 -32 34 -35 46 -17 75 11 17 9 27 -14 69 -24 41
-26 50 -14 61 11 8 20 9 35 0 25 -13 54 -67 47 -85 -3 -9 0 -12 8 -9 21 8 26
80 10 120 -14 34 -14 35 16 52 16 9 30 23 30 30 0 17 -17 15 -24 -4 -7 -19
-24 -9 -36 22 -7 17 -17 24 -36 24 -23 0 -25 3 -20 25 5 20 2 26 -17 30 -38
10 -76 67 -80 122 -3 35 -13 61 -36 93 -20 27 -31 54 -30 70 2 14 -5 39 -14
57 -19 35 -22 63 -8 63 14 0 24 -20 30 -59 l6 -34 33 27 c41 35 40 48 -3 72
-42 22 -51 41 -24 49 24 8 25 34 2 33 -10 -1 -34 9 -54 21 -32 19 -37 27 -37
58 0 26 5 37 19 40 10 3 16 9 13 15 -3 5 0 15 6 23 10 13 8 15 -13 15 -29 0
-45 16 -53 57 -6 30 -6 30 -42 17 -23 -8 -41 -9 -47 -3 -5 5 -17 9 -27 9 -13
0 -18 -8 -18 -30 0 -16 -5 -30 -10 -30 -18 0 -23 29 -10 61 11 27 10 32 -9 53
-13 14 -19 29 -15 39 5 14 1 16 -23 11 -26 -5 -34 0 -66 39 -25 30 -47 47 -65
49 -21 2 -28 9 -29 28 -3 25 -3 25 7 3 6 -15 18 -23 34 -23 18 0 35 -12 58
-45 36 -48 52 -53 85 -30 21 15 22 15 16 -20 -6 -38 15 -51 24 -15 6 23 23 27
23 5 0 -7 -7 -18 -16 -23 -18 -10 -9 -62 11 -62 7 0 20 -3 29 -6 12 -4 16 0
16 16 0 11 4 19 10 15 5 -3 6 -13 3 -22 -5 -12 -2 -15 10 -10 9 4 24 10 33 13
10 5 17 0 21 -16 4 -17 8 -19 15 -8 7 9 8 4 4 -14 -5 -23 -3 -28 14 -28 11 0
20 -4 20 -10 0 -5 6 -10 13 -10 8 0 22 -8 31 -19 16 -18 16 -18 -9 -14 -27 6
-33 -5 -13 -25 9 -9 7 -12 -8 -12 -31 0 -36 -11 -19 -37 12 -17 12 -23 3 -23
-7 0 2 -10 21 -21 31 -19 39 -20 71 -9 48 16 67 9 115 -40 53 -54 35 -64 -19
-11 -49 48 -88 54 -94 14 -2 -13 -10 -23 -18 -23 -25 0 -15 -17 21 -39 46 -27
45 -52 -5 -91 -22 -17 -40 -37 -40 -43 0 -7 16 -37 35 -67 26 -40 35 -65 35
-96 0 -33 5 -47 25 -62 14 -11 25 -25 25 -31 0 -6 11 -13 25 -17 18 -4 25 -13
25 -30 0 -17 6 -24 18 -24 11 0 24 -11 30 -25 10 -22 14 -24 32 -13 16 10 22
10 32 0 11 -11 7 -18 -21 -41 l-33 -28 20 -46 c17 -38 18 -47 6 -47 -9 0 -14
-11 -14 -30 0 -18 -6 -33 -15 -36 -19 -8 -19 -29 1 -59 10 -15 12 -25 5 -25
-6 0 -11 4 -11 10 0 5 -11 17 -26 26 -19 13 -28 14 -36 6 -9 -9 -4 -20 19 -44
16 -18 49 -68 73 -112 l43 -79 -6 -86 c-4 -64 -2 -96 9 -126 20 -52 21 -67 9
-72 -10 -3 -46 173 -45 222 0 11 -16 54 -35 94 -34 71 -36 73 -55 56 -10 -9
-30 -52 -43 -94 -14 -42 -41 -109 -60 -148 -29 -60 -67 -156 -67 -171 0 -2 15
6 34 17 47 29 56 27 56 -15 l0 -37 -39 7 c-26 4 -42 2 -50 -7 -5 -7 -24 -56
-41 -108 -44 -136 -161 -367 -215 -424 -39 -42 -47 -47 -75 -41 l-31 6 22 -31
c12 -17 29 -33 38 -36 80 -25 92 -50 46 -93 -29 -28 -34 -56 -7 -45 44 18 56
19 49 1 -9 -24 24 -52 81 -70 87 -25 110 -42 118 -84 12 -67 18 -72 85 -72 74
0 94 -10 109 -54 15 -47 30 -57 68 -47 25 8 36 6 56 -10 17 -13 33 -18 49 -14
16 4 40 -1 66 -15 49 -24 61 -20 61 21 0 18 6 32 17 36 26 10 123 -46 145 -84
14 -23 31 -36 59 -43 27 -8 40 -17 44 -33 5 -18 13 -23 39 -23 19 0 46 -8 61
-18 24 -16 27 -23 21 -54 -5 -33 -2 -39 23 -53 16 -9 35 -30 43 -45 14 -30 18
-30 84 -18 26 5 43 -1 92 -35 61 -41 82 -49 82 -32 0 18 32 41 56 41 13 0 50
-9 81 -20 32 -11 59 -20 60 -20 2 0 -3 13 -12 30 -18 35 -19 60 -3 111 9 33 9
42 -5 57 -13 14 -14 21 -5 30 7 7 18 12 25 12 7 0 13 11 13 24 0 13 7 29 15
36 9 8 13 21 9 36 -4 15 -2 24 5 24 6 0 11 -5 11 -11 0 -6 18 5 40 25 34 31
47 36 87 36 40 0 54 6 92 38 72 60 98 74 138 74 30 0 43 -6 64 -31 18 -22 47
-38 95 -54 59 -19 69 -26 67 -44 -2 -17 6 -24 33 -33 41 -14 53 -8 31 15 -12
11 -14 22 -7 39 6 16 5 28 -3 36 -9 10 -9 11 3 8 10 -3 15 -18 15 -44 l0 -38
58 -2 c43 -1 56 1 48 9 -21 21 -13 47 14 47 18 0 25 -5 25 -19 0 -14 5 -18 20
-14 11 3 20 1 20 -5 0 -14 -21 -29 -53 -37 -28 -7 -43 -22 -33 -32 3 -3 31 -5
62 -4 l56 2 -4 -43 -3 -42 62 -18 c55 -16 63 -22 80 -58 19 -42 43 -53 43 -20
0 24 8 25 36 6 25 -18 55 -23 72 -13 15 10 52 0 52 -14 0 -5 7 -9 15 -9 8 0
15 7 15 15 0 11 12 15 48 15 44 0 72 12 72 32 0 4 -7 8 -15 8 -8 0 -15 5 -15
10 0 6 8 10 18 10 9 0 26 14 37 31 16 24 25 29 47 25 22 -4 31 1 48 24 17 23
29 30 56 30 27 0 34 4 34 19 0 26 9 31 69 38 31 3 58 14 74 29 20 19 26 20 31
9 7 -19 83 -20 154 -1 61 17 82 31 82 56 0 10 9 20 20 23 12 3 20 14 20 26 0
15 10 23 40 31 34 9 42 16 47 41 6 31 30 48 105 75 36 13 43 12 104 -13 43
-18 70 -36 79 -53 12 -20 14 -21 15 -6 0 12 5 16 16 12 9 -3 18 -6 20 -6 2 0
4 -5 4 -11 0 -6 -7 -8 -17 -5 -15 6 -15 4 2 -14 16 -18 9 -30 -9 -13 -10 11
-44 14 -50 5 -3 -5 5 -8 17 -7 12 1 25 -3 28 -8 11 -16 39 0 33 18 -13 32 15
12 86 -60 51 -53 76 -73 84 -66 8 7 31 -2 73 -29 75 -47 83 -69 76 -207 -4
-87 -2 -102 16 -133 12 -19 31 -55 43 -79 l21 -45 -22 -66 c-11 -37 -21 -69
-21 -73 0 -4 18 -7 39 -7 56 0 89 -38 60 -67 -16 -16 -4 -29 30 -36 22 -5 38
-21 65 -64 50 -79 55 -101 26 -123 l-23 -17 24 -6 c13 -4 45 -7 70 -7 64 0 88
-22 133 -123 31 -70 42 -86 64 -90 42 -9 112 -83 112 -119 0 -41 15 -65 58
-92 25 -15 46 -41 62 -75 16 -36 28 -50 38 -46 8 3 25 -6 38 -20 13 -14 32
-25 43 -25 20 0 61 -43 61 -64 1 -33 17 -38 58 -17 51 26 52 26 95 -4 31 -20
44 -23 85 -18 46 5 50 4 71 -26 26 -37 81 -155 81 -175 0 -22 46 -46 77 -40
22 4 37 -2 66 -26 20 -17 37 -38 37 -46 0 -8 -16 -22 -35 -31 -19 -9 -35 -20
-35 -25 0 -12 12 -10 29 7 11 9 44 15 95 17 l79 3 21 -42 21 -42 623 -1 c342
0 622 3 622 6 0 3 -52 29 -115 59 -90 42 -130 68 -182 118 -62 57 -81 68 -212
120 -223 89 -331 160 -331 216 0 23 13 40 60 81 47 41 60 58 60 80 0 16 -6 32
-12 37 -7 4 -92 7 -188 8 -161 0 -179 2 -225 23 -91 42 -145 84 -145 113 0 20
-7 30 -30 39 -28 12 -97 89 -168 190 -49 70 -77 151 -111 325 -40 203 -55 235
-124 268 -32 15 -75 49 -112 89 -33 35 -91 89 -130 120 -90 72 -110 93 -135
150 -39 90 -37 328 3 328 7 0 19 -6 26 -13 11 -10 12 -8 6 11 -5 17 -2 22 13
22 11 0 26 7 33 16 11 14 8 21 -27 54 -36 33 -40 42 -36 74 4 30 2 35 -12 30
-12 -4 -16 0 -16 15 0 12 -4 21 -10 21 -5 0 -10 8 -10 18 1 22 65 92 86 92 11
0 14 5 10 16 -5 12 -2 15 11 10 9 -4 19 -2 23 3 3 6 16 8 28 4 18 -4 20 -8 11
-19 -6 -8 -17 -14 -25 -14 -7 0 -16 -4 -19 -10 -8 -13 25 0 96 36 29 14 73 29
98 33 40 6 46 9 43 29 -4 27 41 53 60 34 7 -7 22 -12 34 -12 13 0 29 -6 36
-14 12 -11 18 -10 42 10 15 13 24 28 21 34 -3 5 1 23 10 39 20 39 19 41 -9 41
-44 0 -42 22 4 61 24 21 42 40 40 42 -3 3 -26 14 -52 25 -73 32 -66 59 23 105
40 21 69 50 59 61 -3 2 -72 16 -155 30 -147 25 -254 55 -286 79 -9 7 -21 22
-28 35 -6 12 -19 22 -27 22 -12 0 -14 7 -9 28 5 24 2 30 -20 40 -28 13 -35 58
-12 81 10 11 7 12 -18 7 -16 -4 -77 -9 -135 -11 l-105 -3 100 8 c55 4 116 11
136 15 38 7 65 -9 35 -21 -27 -10 -20 -59 10 -73 21 -9 25 -16 20 -36 -4 -17
-2 -25 7 -25 8 0 19 -11 25 -25 21 -45 104 -76 276 -105 221 -37 303 -59 331
-90 14 -16 31 -20 75 -20 38 0 62 -5 70 -15 19 -23 105 25 124 69 18 43 55 49
150 25 39 -10 74 -19 78 -19 4 0 23 14 43 31 l36 32 42 -17 c62 -23 77 -21 77
12 0 37 3 39 102 110 99 71 108 81 84 94 -18 10 -22 43 -6 53 6 4 10 27 8 53
-3 46 -3 46 35 55 39 10 61 35 51 61 -3 8 -26 27 -52 42 l-46 27 23 18 c30 24
47 24 78 -1 26 -20 68 -25 111 -14 25 7 31 51 10 72 -9 9 -7 13 5 18 23 8 40
75 28 107 -6 14 -19 31 -31 37 -13 7 -20 21 -20 39 0 15 -9 36 -20 46 -26 24
-25 52 5 117 14 29 25 58 25 65 0 20 -29 41 -50 36 -13 -4 -32 5 -55 26 -20
17 -30 31 -22 31 7 0 24 -11 37 -26 17 -17 31 -23 46 -20 13 4 27 0 34 -9 11
-13 17 -10 46 24 18 21 44 41 56 44 22 5 22 5 3 -6 -38 -23 -67 -63 -101 -142
-40 -93 -41 -106 -14 -130 11 -10 20 -31 20 -46 0 -18 7 -32 19 -38 10 -6 24
-24 29 -41 8 -23 17 -30 37 -30 18 0 45 -20 98 -74 47 -47 87 -78 112 -86 49
-16 196 -8 288 15 56 15 67 21 61 34 -4 9 -8 32 -8 51 -1 48 26 60 146 60 103
0 107 2 117 54 9 42 49 47 96 12 45 -35 68 -33 99 9 23 29 32 34 64 32 l37 -2
21 64 c33 103 73 120 191 80 l61 -20 52 26 c71 36 94 29 126 -40 29 -61 30
-61 118 -43 55 11 57 12 56 42 -3 55 0 65 30 99 27 32 85 152 97 203 4 18 -2
24 -34 34 -98 32 -134 52 -148 87 -18 42 -108 88 -153 78 -16 -3 -41 -1 -56 5
-21 8 -32 7 -49 -5 -15 -10 -24 -11 -34 -4 -9 8 -16 2 -30 -25 -22 -46 -55
-48 -99 -5 -28 27 -34 29 -52 18 -16 -10 -26 -10 -47 -1 -35 16 -61 0 -112
-68 l-37 -49 -28 17 c-22 13 -30 14 -40 4 -7 -7 -18 -12 -26 -12 -10 0 -12 12
-7 54 l7 54 -43 14 c-36 12 -44 20 -52 49 -14 57 -23 56 -79 -3 -29 -31 -61
-58 -70 -61 -30 -10 -49 3 -46 32 2 21 -2 27 -20 29 -34 5 -85 -15 -135 -53
-24 -19 -60 -42 -78 -53 -27 -15 -37 -29 -49 -72 -12 -42 -22 -56 -44 -65 -15
-7 -32 -18 -37 -26 -8 -11 -9 -10 -7 6 2 11 12 21 23 23 32 6 43 21 60 77 10
37 22 56 35 60 11 4 41 23 67 42 26 20 66 44 90 55 40 18 43 22 43 58 0 36 -3
40 -32 48 -30 7 -34 13 -43 62 -10 50 -14 55 -44 63 -19 4 -56 23 -84 42 l-50
34 -25 -20 c-37 -29 -60 -24 -76 15 -8 19 -24 37 -35 41 -30 9 -26 32 8 38 22
5 28 11 25 24 -4 15 -16 18 -69 18 -49 0 -67 4 -77 17 -14 19 -127 72 -135 64
-3 -3 4 -21 16 -41 29 -50 27 -62 -13 -69 -21 -4 -43 -17 -54 -33 -19 -27 -20
-27 -47 -9 -15 10 -35 37 -46 60 -11 26 -34 54 -59 71 -22 15 -40 33 -40 40 0
7 18 24 41 39 42 28 47 50 17 70 -13 8 -26 7 -50 -3 -65 -25 -68 -25 -68 3 0
21 -5 26 -25 26 -18 0 -28 7 -35 24 -6 18 -21 28 -52 36 -72 19 -75 20 -102
41 -14 11 -26 29 -26 40 0 25 -35 59 -60 59 -15 0 -20 -7 -20 -28 0 -34 -16
-52 -47 -52 -13 0 -23 -4 -23 -9 0 -13 -27 -21 -45 -15 -8 4 -15 17 -15 30 0
15 -6 24 -15 24 -10 0 -15 10 -15 29 0 31 -16 43 -49 34 -24 -6 -26 -14 -10
-30 7 -7 9 -18 6 -27 -6 -15 -95 -46 -131 -45 -12 0 9 8 46 18 79 20 86 25 70
51 -16 27 -16 29 14 40 34 13 64 -3 64 -35 0 -16 6 -25 15 -25 9 0 15 -9 15
-24 0 -30 16 -42 35 -26 25 21 96 217 89 247 -17 77 -26 94 -60 108 -35 14
-39 25 -24 60 5 14 0 34 -18 67 l-27 47 23 28 c12 15 29 41 38 56 14 26 14 30
0 46 -9 10 -14 20 -12 22 2 2 6 16 9 30 5 21 0 34 -23 60 -36 41 -36 50 -8
100 28 50 18 74 -54 122 -61 40 -72 52 -83 85 -6 19 2 31 43 70 34 32 55 62
65 95 15 45 15 54 -5 155 -21 107 -40 142 -75 142 -22 0 -73 56 -73 80 0 11
-8 48 -17 80 -17 57 -19 60 -50 60 -23 0 -33 -5 -33 -16 0 -21 -20 -7 -21 14
0 9 -19 31 -42 47 -29 22 -45 42 -52 70 -14 46 -24 51 -64 30 -18 -9 -31 -11
-31 -5 0 16 -35 12 -61 -9 -46 -35 -71 -44 -80 -30 -6 11 -15 10 -43 -4 -30
-14 -36 -22 -36 -47 0 -18 -4 -29 -10 -25 -5 3 -10 15 -10 26 0 21 -11 23 -82
13 -42 -6 -49 -11 -83 -63 -37 -58 -37 -58 -71 -47 -22 7 -34 17 -34 29 0 26
-27 32 -67 13 -32 -15 -37 -15 -59 -1 -41 27 -31 51 35 84 54 28 59 33 63 68
3 21 8 46 13 56 6 15 -1 14 -53 -9 l-61 -26 -43 35 c-24 19 -54 40 -67 47 -22
11 -27 10 -48 -15 -26 -30 -41 -28 -24 3 24 45 15 55 -39 48 -40 -5 -50 -4
-50 7 0 8 14 20 30 27 25 10 30 18 30 46 l0 34 -170 0 -171 0 16 -31 c23 -44
7 -59 -62 -59 -48 0 -54 -2 -43 -15 10 -13 9 -15 -9 -15 -11 0 -21 -4 -21 -10
0 -14 44 -23 87 -18 l36 4 -31 -26 c-31 -25 -43 -60 -22 -60 15 0 50 -38 50
-55 0 -11 -8 -13 -31 -8 -31 6 -32 5 -25 -22 9 -34 30 -51 72 -60 52 -9 81
-40 104 -110 17 -51 27 -66 45 -71 13 -3 30 -13 37 -22 11 -13 9 -14 -17 -8
-36 9 -62 31 -71 60 -4 11 -15 45 -26 74 l-19 52 -73 0 c-61 0 -77 4 -106 25
-19 14 -35 25 -37 25 -1 0 -14 -20 -29 -45 -22 -38 -25 -52 -19 -92 5 -37 1
-57 -14 -88 -11 -22 -20 -33 -20 -25 0 8 6 26 13 38 11 22 10 27 -17 53 -23
23 -32 27 -43 18 -17 -14 -19 -39 -3 -39 16 0 6 -41 -12 -53 -12 -7 -23 -5
-42 9 -32 23 -34 44 -7 51 24 6 24 12 5 37 -8 11 -15 30 -15 42 0 28 -31 34
-154 33 -117 -1 -142 -8 -138 -39 1 -14 -6 -28 -18 -37 -11 -8 -25 -23 -31
-34 -15 -28 2 -46 52 -54 39 -7 50 -19 26 -28 -7 -3 -21 -33 -30 -67 -10 -34
-30 -87 -46 -119 -16 -31 -34 -76 -41 -100 -12 -47 -4 -45 -96 -24 -19 4 -21
1 -17 -21 4 -19 1 -26 -11 -26 -9 0 -16 -6 -16 -14 0 -15 54 -41 85 -41 40 0
28 -122 -15 -147 -8 -4 -37 -17 -64 -28 l-49 -21 22 -22 c41 -45 18 -65 -87
-74 -60 -5 -69 -3 -86 16 -20 22 -46 28 -46 11 0 -5 -13 -10 -30 -10 -16 0
-30 -5 -30 -11 0 -7 14 -52 31 -101 35 -102 33 -131 -11 -173 -21 -21 -30 -38
-30 -62 0 -37 -36 -69 -70 -60 -28 7 -25 0 10 -30 35 -29 39 -67 10 -85 -26
-17 -25 -25 10 -78 16 -25 30 -49 30 -54 0 -4 -15 14 -32 40 -26 38 -40 50
-63 52 -90 8 -93 18 -34 139 45 95 46 93 -29 143 -30 20 -58 30 -83 30 -37 0
-39 2 -49 43 -6 23 -13 48 -15 55 -5 14 -31 16 -40 2 -8 -14 -38 -13 -53 2 -9
9 -8 16 5 30 19 21 8 23 -27 3 -33 -19 -60 -19 -60 0 0 8 -7 15 -15 15 -14 0
-18 -7 -31 -48 -3 -10 -9 -10 -24 -2 -16 9 -20 8 -20 -7 0 -16 -1 -16 -13 1
-12 17 -15 17 -52 -8 -46 -32 -101 -33 -99 -3 1 10 0 16 -3 13 -3 -2 -23 2
-45 10 -32 11 -44 12 -55 2 -21 -17 -46 18 -39 54 5 26 5 26 -32 16 -20 -5
-88 -28 -149 -51 l-113 -42 -2 -55 -2 -55 -3 51 -4 51 -120 8 c-131 7 -161 -1
-200 -55 -22 -30 -71 -214 -63 -235 4 -9 0 -15 -9 -15 -24 0 -27 -25 -6 -59
20 -33 18 -37 -10 -21 -14 7 -26 3 -52 -17 -69 -52 -136 -74 -257 -84 -211
-17 -288 -55 -260 -128 5 -13 6 -26 4 -29 -3 -3 -10 7 -16 22 -7 20 -6 36 4
61 13 30 22 36 83 54 37 12 118 25 178 30 130 12 160 21 243 75 51 34 62 45
57 63 -3 12 2 28 10 37 9 8 14 19 13 23 -2 4 2 22 9 38 6 17 18 60 28 96 36
143 70 164 245 154 l115 -6 132 50 c76 29 158 54 190 57 56 6 60 4 105 -31 46
-36 49 -37 72 -21 22 14 27 14 40 1 8 -8 20 -15 27 -15 6 0 0 10 -15 21 -24
19 -31 20 -50 9 -27 -14 -66 1 -66 24 0 7 -18 17 -42 22 -37 8 -43 13 -46 36
-3 22 2 30 23 38 50 19 145 3 145 -25 0 -20 39 -64 71 -80 41 -22 36 -1 -7 29
-35 23 -56 51 -70 88 -4 10 -16 16 -31 15 -14 -1 -28 3 -30 10 -5 14 93 73
120 73 13 0 18 7 17 23 -4 40 0 47 23 47 33 0 116 68 158 130 41 60 140 298
144 344 1 18 14 40 34 58 35 31 51 35 51 13 0 -25 -28 -85 -39 -85 -14 0 -14
-27 -1 -35 11 -7 118 26 159 49 13 7 31 29 40 47 19 41 63 64 155 83 56 12 74
12 120 0 44 -12 64 -12 117 -1 l63 13 -53 32 c-29 18 -51 36 -47 39 10 10 120
-62 141 -92 l20 -30 25 23 c13 13 24 35 25 49 0 35 22 41 160 41 127 0 161 -7
157 -31 -2 -10 5 -31 14 -47 17 -28 18 -28 31 -10 19 27 32 25 66 -7 l29 -28
-7 28 c-10 40 2 92 31 127 22 26 28 28 47 18 12 -6 28 -17 35 -25 7 -7 32 -13
55 -13 l42 0 -32 20 c-54 33 -59 102 -6 92 25 -5 27 -3 15 11 -8 9 -22 19 -33
22 -31 10 -23 65 11 78 8 3 -3 6 -25 6 -60 2 -71 12 -54 50 13 29 17 31 70 31
68 0 82 18 44 56 l-24 24 -1416 0 -1416 0 26 -43 c29 -50 43 -147 26 -189 -7
-19 -29 -37 -71 -58 -55 -28 -77 -50 -49 -50 7 0 27 -17 46 -37 24 -27 36 -34
40 -24 3 7 18 27 32 43 26 30 28 30 57 15 16 -8 55 -20 87 -26 80 -15 119 -35
171 -91 42 -44 66 -98 66 -145 0 -22 -44 -122 -65 -145 -7 -8 -16 -26 -19 -40
-17 -60 -29 -78 -54 -85 -15 -3 -39 -18 -53 -31 -14 -14 -32 -24 -40 -22 -9 2
-13 -4 -11 -19 2 -17 -5 -24 -33 -33 -20 -7 -49 -10 -65 -7 -24 5 -28 3 -28
-20 0 -15 -7 -32 -16 -38 -9 -7 -16 -17 -16 -24 0 -6 -12 -11 -27 -12 -48 -1
-61 -11 -48 -36 7 -13 15 -20 18 -17 9 10 37 -16 37 -33 0 -8 -4 -12 -9 -8 -5
3 -12 1 -15 -4 -9 -14 15 -19 80 -19 99 1 114 -1 114 -16 0 -7 -7 -19 -15 -26
-8 -7 -15 -28 -15 -46 0 -40 -24 -59 -90 -69 -30 -5 -56 -17 -76 -36 -26 -25
-35 -28 -56 -20 -19 7 -31 6 -46 -5 -13 -9 -41 -14 -76 -12 -41 2 -60 -2 -75
-16 -25 -23 -52 -15 -111 35 l-45 38 -120 3 -120 3 0 30 c-1 22 -6 31 -20 34
-11 2 -25 7 -31 12 -8 6 -13 2 -17 -12 -5 -17 -9 -19 -26 -9 -12 6 -21 15 -21
20 0 5 -7 7 -16 3 -12 -5 -6 -14 28 -43 l43 -38 -25 -21 c-18 -15 -33 -20 -55
-16 -43 8 -80 38 -80 66 0 25 -15 35 -71 49 -33 8 -68 -5 -58 -21 7 -12 -14
-39 -30 -39 -6 0 -36 16 -66 35 -62 40 -80 43 -80 16 0 -11 -4 -23 -10 -26 -6
-3 -10 3 -10 13 0 11 -19 41 -43 66 -38 42 -49 48 -106 58 -48 8 -72 8 -101
-2 -21 -7 -42 -10 -48 -6 -6 3 -15 -7 -20 -23 -6 -16 -20 -35 -33 -41 -16 -9
-18 -14 -9 -20 20 -13 3 -40 -25 -40 -17 0 -29 -8 -36 -24 -8 -17 -17 -22 -28
-18 -16 6 -132 88 -163 116 -9 8 -29 16 -45 19 -27 4 -26 4 5 6 20 0 35 -4 38
-14 3 -8 15 -17 26 -21 12 -3 48 -27 80 -52 55 -43 61 -45 73 -29 7 9 27 22
45 28 21 8 28 14 20 19 -16 10 -5 40 14 40 8 0 23 22 34 52 17 45 20 49 26 30
8 -25 12 -26 44 -8 19 10 36 10 93 0 76 -15 110 -33 139 -74 15 -21 25 -26 47
-23 20 3 42 -5 76 -30 30 -21 56 -33 68 -30 24 7 24 15 -1 31 -28 17 -26 42 5
42 14 0 25 -3 25 -7 0 -5 21 -9 46 -10 25 -1 52 -7 60 -14 11 -9 25 -9 59 1
25 7 45 17 45 21 0 5 -4 9 -8 9 -14 0 -33 48 -22 55 6 4 22 -14 38 -39 26 -44
54 -68 49 -43 -3 15 61 11 80 -5 7 -6 13 -24 13 -40 0 -25 2 -27 19 -18 14 7
20 7 23 -1 3 -8 27 -9 85 -2 63 7 85 6 99 -4 10 -8 24 -11 32 -8 7 2 11 1 7
-4 -7 -12 64 -71 85 -71 21 1 51 25 42 35 -4 5 -2 5 5 1 25 -14 113 -9 132 8
10 9 21 13 24 9 4 -3 7 0 7 8 1 10 4 10 14 -4 14 -18 46 -14 46 5 0 6 -6 5
-15 -2 -10 -9 -15 -9 -15 -1 0 11 13 15 39 11 8 -1 12 4 8 13 -4 11 0 13 15 9
12 -3 19 -1 16 4 -4 5 14 9 38 9 54 0 80 24 87 83 l5 42 -84 0 c-75 0 -85 2
-106 24 -13 14 -34 26 -48 28 -14 2 -26 11 -28 20 -2 12 5 18 30 21 21 2 12 4
-24 5 -44 2 -58 6 -58 17 0 10 10 15 33 15 44 1 141 11 146 16 2 2 -2 11 -10
20 -13 16 -11 17 13 12 18 -3 29 0 32 9 9 22 8 23 -30 23 -28 0 -35 3 -32 18
3 15 14 17 91 15 l86 -3 -9 26 c-6 15 -6 23 -1 19 5 -3 16 4 25 16 13 19 18
20 31 9 14 -12 20 -7 15 15 -1 6 2 7 6 3 8 -9 36 11 29 21 -2 4 9 5 25 3 27
-4 30 -1 40 39 6 24 21 60 32 79 53 89 58 103 58 146 0 25 -4 43 -9 40 -5 -4
-7 2 -4 12 3 13 -12 37 -47 75 -52 57 -91 77 -185 92 -22 4 -49 13 -61 20 -25
16 -31 12 -64 -37 -14 -21 -28 -38 -31 -38 -3 0 -24 20 -47 45 -23 25 -46 45
-52 45 -26 0 -4 21 56 55 43 24 69 46 75 63 16 41 2 125 -28 177 l-28 45
-2682 0 -2683 0 0 -3001z m4001 2928 c-10 -9 -11 -8 -5 6 3 10 9 15 12 12 3
-3 0 -11 -7 -18z m-70 -140 c-10 -9 -11 -8 -5 6 3 10 9 15 12 12 3 -3 0 -11
-7 -18z m-404 -199 c-3 -8 -6 -5 -6 6 -1 11 2 17 5 13 3 -3 4 -12 1 -19z
m3973 -2 c0 -2 -7 -6 -15 -10 -8 -3 -15 -1 -15 4 0 6 7 10 15 10 8 0 15 -2 15
-4z m-419 -22 c-45 -20 -131 -30 -131 -16 0 21 35 31 100 31 l65 -1 -34 -14z
m-3421 -68 c0 -2 -7 -7 -16 -10 -8 -3 -12 -2 -9 4 6 10 25 14 25 6z m-85 -29
l50 -4 -54 1 c-39 1 -56 5 -58 16 -3 10 -2 11 4 3 5 -6 31 -14 58 -16z m175
-2 c0 -17 7 -29 23 -35 15 -6 17 -9 6 -9 -9 -1 -21 5 -26 12 -15 18 -23 57
-12 57 5 0 9 -11 9 -25z m75 -55 c3 -6 -1 -7 -9 -4 -18 7 -21 14 -7 14 6 0 13
-4 16 -10z m-61 -7 c-5 -5 -12 -12 -16 -18 -4 -6 -8 -2 -8 8 0 9 7 17 17 17 9
0 12 -3 7 -7z m69 -50 c-13 -2 -35 -2 -50 0 -16 2 -5 4 22 4 28 0 40 -2 28 -4z
m100 -102 c12 -13 40 -32 62 -42 22 -10 34 -19 27 -19 -21 0 -54 20 -89 53
-25 23 -33 39 -32 61 l2 31 4 -30 c3 -16 14 -41 26 -54z m447 55 c0 -14 -108
-88 -164 -111 -60 -25 -54 -16 9 15 33 16 74 41 90 55 29 25 27 25 -26 -4 -49
-27 -66 -31 -118 -29 -34 2 -65 -1 -69 -7 -4 -5 -16 -16 -27 -24 -11 -8 -8 -2
8 15 25 27 32 29 87 26 53 -2 68 2 132 37 86 47 78 44 78 27z m-607 -133 c-7
-2 -21 -2 -30 0 -10 3 -4 5 12 5 17 0 24 -2 18 -5z m375 -7 c-10 -7 -22 -24
-27 -37 -7 -17 -10 -19 -10 -6 -1 17 32 57 47 57 4 0 -1 -7 -10 -14z m-325 -3
c-7 -2 -19 -2 -25 0 -7 3 -2 5 12 5 14 0 19 -2 13 -5z m57 -18 c14 -8 21 -14
15 -14 -5 0 -21 6 -35 14 -14 8 -20 14 -15 14 6 0 21 -6 35 -14z m-269 -31 c8
-10 23 -14 40 -12 16 3 26 1 23 -4 -9 -13 -51 -9 -64 7 -20 24 -39 17 -49 -17
-5 -18 -10 -25 -10 -15 -1 25 17 57 33 57 8 0 19 -7 27 -16z m363 -9 c58 -26
120 -33 129 -15 3 6 4 5 3 -2 -5 -25 -71 -20 -137 11 -78 36 -74 41 5 6z
m-444 -97 c-12 -10 -27 -18 -34 -18 -6 1 1 8 17 16 15 8 27 22 28 32 0 13 2
14 6 3 3 -8 -4 -23 -17 -33z m-51 -20 c-2 -2 -20 -16 -39 -33 -29 -25 -32 -26
-15 -5 23 29 36 40 49 40 5 0 7 -1 5 -2z m-126 -55 c-7 -2 -13 -12 -13 -20 0
-9 -3 -14 -6 -10 -10 10 4 37 18 36 10 0 10 -2 1 -6z m-45 -50 c-16 -2 -30
-12 -33 -24 -4 -10 -11 -19 -16 -19 -5 0 -2 11 7 25 11 17 25 25 43 24 l26 -2
-27 -4z m-120 -60 c-10 -2 -26 -2 -35 0 -10 3 -2 5 17 5 19 0 27 -2 18 -5z
m-65 -10 c-7 -2 -21 -2 -30 0 -10 3 -4 5 12 5 17 0 24 -2 18 -5z m-53 -7 c0
-2 -7 -7 -16 -10 -8 -3 -12 -2 -9 4 6 10 25 14 25 6z m375 -11 c22 -8 32 -14
23 -15 -9 0 -28 5 -42 12 -23 10 -28 8 -47 -15 -11 -15 -28 -26 -37 -26 -16 1
-16 2 0 6 9 2 24 15 32 29 19 28 19 28 71 9z m-276 -62 c7 -19 10 -37 7 -40
-3 -4 -6 0 -6 8 0 8 -9 29 -20 47 l-21 33 -35 -21 c-28 -18 -37 -20 -49 -10
-8 7 -15 17 -15 23 0 6 6 2 14 -8 13 -18 14 -18 46 2 40 26 61 16 79 -34z
m128 10 c-14 -14 -19 -15 -29 -4 -11 11 -10 13 5 8 9 -4 17 -2 17 3 0 6 5 10
12 10 8 0 6 -6 -5 -17z m-49 -27 c1 -19 -6 -29 -30 -40 -17 -9 -34 -14 -37
-10 -8 7 20 24 43 24 14 0 17 5 12 25 -4 14 -3 25 2 25 4 0 9 -11 10 -24z
m2155 -13 c-7 -2 -19 -2 -25 0 -7 3 -2 5 12 5 14 0 19 -2 13 -5z m44 -29 c-3
-3 -12 -4 -19 -1 -8 3 -5 6 6 6 11 1 17 -2 13 -5z m-207 -41 c0 -1 -8 -7 -18
-12 -13 -7 -19 -6 -19 2 0 7 9 13 19 13 10 0 18 -1 18 -3z m647 -235 c-3 -8
-6 -5 -6 6 -1 11 2 17 5 13 3 -3 4 -12 1 -19z m65 -68 c8 0 25 8 38 17 23 15
24 16 12 0 -30 -37 -80 -29 -103 16 -10 18 -7 17 14 -5 14 -16 32 -28 39 -28z
m106 5 c-3 -3 -9 2 -12 12 -6 14 -5 15 5 6 7 -7 10 -15 7 -18z m9 -57 c-3 -7
-5 -2 -5 12 0 14 2 19 5 13 2 -7 2 -19 0 -25z m-1827 -58 c0 -19 64 -50 102
-50 20 0 39 -4 42 -8 11 -18 -96 6 -125 27 l-31 23 7 -23 c4 -13 10 -30 12
-36 3 -7 -2 -16 -11 -19 -20 -8 -21 -62 -2 -108 7 -18 16 -53 19 -77 l6 -44
-12 45 c-7 25 -16 51 -20 57 -4 7 -11 35 -14 63 -4 38 -2 55 10 68 11 12 13
22 7 32 -13 20 -13 60 0 60 6 0 10 -5 10 -10z m1865 -33 c19 -4 19 -5 -1 -6
-12 0 -28 7 -35 17 -12 15 -12 16 1 6 8 -7 24 -14 35 -17z m63 -19 c7 -7 12
-29 12 -51 0 -35 2 -38 23 -32 17 5 19 4 7 -4 -30 -21 -40 -12 -40 34 0 31 -5
47 -17 54 -10 6 -13 11 -7 11 5 0 15 -5 22 -12z m-1711 -28 c3 -10 2 -11 -4
-4 -4 7 -19 14 -33 17 -22 4 -21 5 4 4 17 -1 31 -9 33 -17z m-19 -47 c-9 -10
-18 -27 -21 -38 -4 -17 -5 -16 -6 4 0 13 7 32 17 41 22 22 30 16 10 -7z m1847
-35 c25 -12 45 -25 45 -29 0 -6 -81 33 -99 48 -13 10 14 0 54 -19z m758 -37
c-3 -13 2 -23 16 -30 12 -7 21 -16 21 -22 0 -5 -12 1 -26 15 -17 15 -25 30
-21 40 9 22 16 20 10 -3z m-2582 -50 c26 13 43 7 168 -62 120 -67 144 -71 227
-34 44 19 60 22 76 14 11 -6 29 -9 39 -6 10 3 19 0 19 -5 0 -7 -17 -8 -45 -5
-33 5 -59 1 -95 -13 -28 -11 -65 -20 -82 -20 -30 0 -145 53 -200 92 -44 31
-83 41 -108 28 -27 -14 -27 -14 -34 35 l-5 40 10 -37 c10 -33 13 -36 30 -27z
m1871 9 c-19 -25 -20 -33 -10 -49 9 -15 8 -24 -6 -45 -9 -15 -14 -31 -11 -36
3 -6 41 -11 83 -12 l77 -2 -65 -3 c-105 -6 -135 13 -94 58 12 13 13 22 5 37
-9 17 -6 28 12 55 12 19 24 33 26 31 3 -2 -5 -18 -17 -34z m-2205 8 c20 -16
15 -38 -7 -38 -25 0 -80 27 -80 39 0 22 60 21 87 -1z m-873 -68 c-8 -7 -83 -6
-78 1 2 4 21 6 43 5 22 0 37 -3 35 -6z m29 -7 c-5 -13 -3 -15 13 -8 10 4 38
10 61 11 38 3 43 1 49 -22 6 -23 7 -24 21 -7 14 17 14 17 9 0 -3 -10 -6 -23
-6 -28 0 -20 -19 -7 -28 20 -11 30 -25 32 -107 19 -12 -2 -21 4 -23 15 -2 9 1
17 7 17 6 0 7 -8 4 -17z m307 3 c0 -8 10 -17 23 -19 19 -4 18 -4 -5 -6 -19 -1
-28 4 -28 14 0 8 -4 15 -8 15 -14 0 -32 -24 -32 -42 0 -34 -30 -33 -63 3 l-32
34 31 -28 c34 -30 54 -35 54 -11 0 27 20 54 40 54 11 0 20 -6 20 -14z m3490 4
c0 -5 -22 -26 -50 -47 -59 -44 -74 -79 -60 -135 8 -28 23 -47 53 -68 57 -40
67 -49 67 -60 0 -6 -22 -35 -50 -65 -48 -53 -63 -85 -38 -85 6 0 9 -3 6 -6 -4
-3 -20 2 -38 11 -22 11 -43 14 -71 10 -32 -6 -44 -2 -73 20 -19 14 -47 31 -63
36 l-28 9 31 -4 c45 -7 74 3 74 26 0 10 -7 47 -16 82 -14 58 -14 66 0 92 35
64 102 120 133 110 13 -4 34 8 68 39 56 49 55 49 55 35z m-524 -11 c3 -6 1
-16 -5 -22 -9 -9 -11 -8 -6 6 13 33 -23 18 -50 -20 -14 -21 -25 -34 -25 -29 0
5 11 24 26 43 25 34 47 42 60 22z m-3415 -10 c-14 -5 -30 -13 -36 -17 -6 -4
-2 1 8 11 11 9 27 17 36 16 10 0 7 -4 -8 -10z m562 1 c9 0 17 -7 17 -15 0 -8
8 -23 18 -33 9 -9 26 -50 37 -90 l19 -72 36 6 c19 3 40 13 46 21 8 9 21 12 38
7 16 -4 26 -2 26 5 0 23 21 10 31 -19 12 -33 19 -36 37 -18 7 7 12 8 12 2 0
-9 -41 -34 -56 -34 -3 0 -2 9 1 21 6 18 4 20 -15 14 -14 -4 -20 -3 -16 3 10
16 -35 22 -51 6 -8 -8 -25 -14 -38 -14 -13 0 -27 -4 -30 -10 -10 -15 -23 -12
-29 8 -47 164 -48 164 -72 159 -20 -4 -22 -2 -13 15 14 26 3 35 -23 19 -18
-11 -20 -11 -15 2 3 9 1 18 -6 20 -7 2 -3 3 8 1 11 -2 28 -4 38 -4z m553 -25
c-18 -19 -21 -42 -6 -47 6 -2 2 -20 -10 -43 -11 -21 -20 -57 -20 -80 0 -33 5
-45 32 -67 l33 -27 -75 6 c-94 7 -110 15 -110 54 0 24 -4 30 -16 25 -9 -3 -20
-6 -25 -6 -5 0 -10 -21 -10 -47 l-2 -48 -7 45 c-9 52 -7 55 38 65 30 6 32 5
32 -22 0 -41 17 -53 74 -53 39 0 47 3 38 12 -17 17 -15 103 4 139 8 16 12 39
9 50 -7 20 21 76 32 65 3 -3 -2 -12 -11 -21z m2277 -20 c-3 -9 -8 -14 -10 -11
-3 3 -2 9 2 15 9 16 15 13 8 -4z m-3450 -10 c-3 -9 -8 -14 -10 -11 -3 3 -2 9
2 15 9 16 15 13 8 -4z m6548 -26 c-13 -14 -28 -19 -47 -16 l-29 4 31 2 c18 0
34 8 38 16 3 8 10 15 16 15 6 0 2 -9 -9 -21z m-6557 -15 c3 -8 2 -12 -4 -9 -6
3 -10 10 -10 16 0 14 7 11 14 -7z m6459 6 c-13 -5 -23 -15 -23 -21 0 -7 -3 -9
-6 -6 -10 10 16 37 35 36 11 0 9 -3 -6 -9z m-6359 -16 c8 -3 12 -12 9 -20 -4
-10 3 -14 27 -14 24 0 31 -4 27 -14 -4 -9 1 -17 11 -19 9 -3 4 -5 -13 -5 -16
0 -39 4 -50 9 -19 9 -18 9 3 5 12 -2 22 0 22 5 0 5 -7 9 -15 9 -9 0 -19 8 -22
18 -4 9 -11 20 -17 24 -13 9 -3 10 18 2z m-23 -32 c5 -13 4 -22 -1 -22 -6 0
-10 8 -10 17 0 12 -3 14 -10 7 -16 -16 -2 -41 26 -48 13 -4 31 -20 40 -39 l16
-32 -30 35 -30 35 -22 -20 -23 -20 7 28 c4 17 2 34 -4 42 -8 9 -8 15 0 20 6 3
8 10 5 15 -3 4 2 7 12 6 9 -2 20 -12 24 -24z m3372 -7 c-3 -9 -8 -14 -10 -11
-3 3 -2 9 2 15 9 16 15 13 8 -4z m2970 2 c-3 -5 -16 -6 -29 -3 -18 5 -30 -1
-50 -24 -18 -20 -37 -30 -55 -30 -19 0 -30 -6 -34 -21 -6 -17 -12 -20 -33 -14
-69 17 -81 16 -123 -5 -24 -12 -53 -30 -64 -39 -19 -15 -19 -15 -5 2 7 10 36
30 63 44 49 24 68 25 125 8 19 -6 24 -3 29 14 4 15 13 21 32 21 17 0 38 11 56
30 22 23 36 29 61 27 18 -1 30 -6 27 -10z m-2891 -86 c8 -10 25 -21 38 -23 17
-2 25 -9 25 -22 0 -11 6 -21 13 -24 6 -2 12 -19 12 -37 0 -27 5 -35 23 -38 19
-5 19 -5 -3 -4 -21 2 -26 8 -28 36 -2 23 -9 35 -23 38 -22 6 -24 14 -7 31 9 9
6 12 -13 12 -16 0 -38 13 -60 36 -24 26 -28 33 -12 25 12 -6 28 -20 35 -30z
m-3511 -18 l-43 -4 41 -35 c39 -34 41 -39 41 -90 0 -53 0 -54 30 -54 23 0 33
6 40 25 12 30 26 32 35 4 5 -14 13 -19 26 -16 10 3 17 1 13 -4 -9 -15 -44 -10
-44 6 0 22 -18 18 -25 -6 -5 -16 -14 -20 -43 -17 l-37 3 -3 57 c-3 52 -6 60
-36 83 -18 14 -38 25 -44 25 -13 0 -16 13 -5 23 3 4 27 6 52 5 l46 -1 -44 -4z
m94 -13 c13 -5 14 -9 5 -9 -8 0 -24 4 -35 9 -13 5 -14 9 -5 9 8 0 24 -4 35 -9z
m5871 -33 c1 -12 1 -13 -3 -2 -6 21 -43 19 -43 -2 0 -29 83 -143 103 -143 10
0 17 -6 16 -12 -1 -7 1 -21 6 -31 5 -13 0 -26 -21 -48 l-28 -29 28 -77 c35
-102 47 -118 104 -147 51 -26 79 -52 68 -63 -3 -3 -6 -1 -6 5 0 7 -24 25 -54
42 -71 40 -82 54 -117 146 -35 96 -36 107 -4 128 32 21 32 37 -4 72 -45 45
-101 133 -101 161 0 21 4 24 27 21 18 -2 28 -9 29 -21z m31 -32 c-4 -8 -12
-15 -19 -14 -10 0 -10 2 0 6 6 2 12 12 12 21 0 8 3 13 6 9 4 -3 4 -13 1 -22z
m-2031 -160 c7 -19 14 -40 13 -47 0 -7 -7 5 -15 27 -8 21 -20 43 -27 47 -9 6
-9 8 1 8 7 0 20 -16 28 -35z m59 -135 c2 0 15 5 29 11 30 14 56 -1 56 -32 0
-13 9 -19 38 -22 l37 -4 -42 -1 c-39 -2 -42 0 -45 26 -3 28 -22 34 -60 17 -13
-5 -22 2 -38 27 -11 18 -20 38 -20 43 1 6 10 -7 21 -27 11 -21 21 -38 24 -38z
m243 -63 c3 -27 23 -43 71 -58 21 -6 22 -7 6 -8 -35 -2 -85 36 -85 63 0 21 -6
25 -37 29 l-38 4 40 -1 c36 -1 40 -4 43 -29z m-3891 -79 c40 -38 21 -64 -28
-38 -19 10 -26 40 -12 53 10 11 15 9 40 -15z m4036 5 c-7 -2 -21 -2 -30 0 -10
3 -4 5 12 5 17 0 24 -2 18 -5z m64 -28 l28 -25 -92 -88 c-50 -48 -93 -94 -96
-102 -5 -13 -5 -13 -6 0 -1 20 22 47 97 110 86 74 91 85 50 110 -18 11 -28 20
-21 20 7 0 25 -11 40 -25z m1798 -163 c21 -13 35 -29 35 -41 0 -23 16 -37 22
-20 6 19 45 -7 78 -53 17 -23 30 -46 30 -52 0 -6 16 -20 35 -30 35 -19 39 -26
36 -57 -1 -12 13 -19 55 -27 52 -11 57 -10 74 10 l17 21 32 -22 c17 -12 36
-21 42 -19 7 2 19 24 28 48 16 41 20 45 49 42 l32 -2 0 52 c0 76 10 88 55 64
19 -11 33 -21 31 -23 -2 -3 -17 2 -34 11 -16 8 -32 12 -36 9 -3 -4 -6 -33 -6
-66 l0 -60 -34 6 c-34 5 -35 5 -51 -44 -19 -55 -32 -60 -76 -28 l-29 21 -18
-22 c-16 -20 -20 -21 -77 -8 -53 12 -60 16 -60 38 0 15 -11 30 -30 42 l-30 18
-15 -58 c-18 -67 -40 -77 -90 -40 -26 19 -32 20 -40 8 -5 -8 -10 -29 -10 -46
0 -16 -6 -38 -12 -47 -7 -9 -60 -35 -118 -57 -58 -22 -111 -48 -117 -57 -12
-15 -13 -15 -13 -1 0 15 87 57 183 88 50 16 67 35 67 74 0 18 6 41 14 51 13
18 14 18 51 -4 47 -27 61 -23 74 26 20 72 15 100 -31 149 -23 25 -44 41 -46
35 -8 -23 -33 -10 -39 20 -4 22 -15 35 -39 47 -19 8 -40 30 -49 48 -22 46 -18
56 5 13 11 -20 35 -46 55 -57z m-1975 -131 c-6 -22 -26 -58 -45 -81 -19 -23
-38 -54 -41 -69 -9 -43 -12 -47 -13 -21 -1 28 9 48 56 109 17 23 35 61 39 84
4 23 9 37 11 30 2 -6 -1 -30 -7 -52z m2826 -41 c127 -67 180 -81 215 -56 13 9
28 16 34 16 5 0 -3 -9 -20 -21 -46 -31 -97 -19 -241 56 -69 36 -119 65 -113
65 7 0 63 -27 125 -60z m739 1 c-20 -18 -107 -41 -153 -40 -44 2 -43 2 18 9
36 5 81 15 100 24 41 18 47 19 35 7z m-3685 -262 c-16 -35 -30 -59 -30 -54 0
15 55 134 58 125 1 -4 -11 -36 -28 -71z m403 -93 c-2 -23 1 -27 17 -23 13 3
21 -1 25 -13 4 -14 20 -18 80 -22 70 -5 77 -8 118 -44 24 -21 52 -44 63 -51
16 -10 16 -11 1 -6 -17 5 -17 4 -1 -31 l18 -36 -37 -38 c-25 -25 -37 -47 -37
-66 0 -15 -5 -37 -11 -48 -14 -26 2 -38 54 -38 46 0 78 -15 71 -34 -6 -15 59
-76 81 -76 8 0 30 14 49 31 46 40 70 36 74 -14 3 -36 4 -37 43 -37 33 0 41 -4
49 -25 5 -14 13 -25 17 -25 5 0 25 -4 46 -9 38 -9 38 -9 65 40 19 34 33 49 47
48 20 0 20 0 -1 -9 -11 -4 -28 -26 -38 -48 -10 -23 -25 -43 -32 -46 -7 -3 -36
2 -64 10 -38 11 -50 19 -50 34 0 17 -7 20 -43 20 -40 0 -45 -3 -60 -35 -21
-44 -21 -54 -1 -76 12 -14 13 -22 4 -38 -16 -30 -37 -26 -73 14 -35 40 -47 43
-72 15 -16 -18 -16 -20 4 -54 18 -28 20 -39 11 -55 -6 -12 -8 -32 -4 -45 4
-18 1 -27 -14 -35 -25 -13 -37 0 -46 52 -6 30 -11 37 -31 37 -13 0 -37 -8 -53
-17 -24 -14 -37 -15 -59 -8 -25 9 -28 16 -31 57 -3 39 -6 45 -21 41 -11 -3
-21 2 -25 12 -11 30 -26 4 -26 -47 0 -50 -1 -53 -64 -112 -36 -34 -66 -68 -68
-76 -1 -8 4 -30 11 -48 12 -29 12 -35 -2 -49 -21 -21 -47 -9 -47 22 0 15 -11
36 -25 49 -29 27 -31 35 -9 50 13 10 7 17 -39 49 -69 48 -81 70 -72 136 4 28
3 51 -2 51 -6 0 -99 -58 -121 -76 -2 -1 1 -12 8 -23 6 -12 7 -27 3 -35 -14
-23 -126 -116 -140 -116 -8 0 -30 12 -49 27 l-35 26 -53 -16 c-66 -21 -124
-22 -147 -1 -16 14 -21 14 -57 -5 -23 -11 -44 -25 -47 -31 -4 -6 7 -28 24 -49
23 -29 31 -49 31 -80 0 -32 5 -44 25 -57 14 -9 25 -24 25 -34 0 -25 -34 -65
-86 -101 -43 -29 -48 -30 -92 -21 l-47 11 50 -5 c49 -5 51 -4 108 46 31 28 57
57 57 64 0 7 -11 23 -25 36 -18 17 -25 34 -25 60 0 25 -10 49 -31 78 -36 49
-32 60 33 93 27 14 38 26 38 42 0 29 -15 51 -28 43 -17 -10 -25 13 -11 30 10
12 9 16 -9 21 -27 7 -28 24 -2 48 17 16 18 20 6 43 -10 19 -11 32 -3 49 14 31
6 36 -63 41 -74 5 -104 -12 -121 -67 -8 -28 -20 -43 -46 -55 -31 -15 -83 -22
-83 -12 0 23 23 55 42 58 21 3 24 10 30 76 4 40 12 82 19 93 6 11 39 33 75 49
l64 29 0 45 c0 50 9 59 71 70 27 5 43 16 60 41 13 20 48 52 77 72 55 39 64 53
32 53 -23 0 -27 28 -5 36 8 4 15 15 15 25 0 32 52 25 83 -11 16 -17 37 -30 50
-30 29 0 82 54 81 83 -1 14 0 16 3 5 3 -10 13 -18 24 -18 11 0 17 -4 14 -10
-4 -6 9 -10 32 -10 22 0 44 -5 50 -11 8 -8 25 -8 63 2 40 10 55 11 68 1 47
-33 64 -37 78 -17 13 18 13 21 -6 29 -11 5 -20 15 -20 22 0 21 51 44 90 41 32
-2 35 -5 33 -31z m1494 -41 c45 -61 48 -74 17 -106 l-27 -28 26 -10 c31 -12
49 -42 41 -68 -14 -45 -29 -63 -49 -63 -32 0 -69 43 -63 74 6 31 -9 38 -56 25
-41 -11 -51 -7 -67 24 -10 21 -10 21 10 -1 18 -21 24 -22 57 -13 51 14 75 0
68 -38 -5 -22 -1 -32 17 -45 35 -24 48 -20 64 18 18 43 12 62 -26 75 -35 12
-36 21 -5 58 27 32 25 38 -26 105 -16 19 -28 39 -28 43 0 10 6 4 47 -50z
m-1107 -100 c0 -9 9 -15 23 -15 25 0 57 -47 57 -85 0 -19 4 -22 22 -17 18 4
20 2 16 -16 -13 -49 76 0 91 50 8 30 9 31 10 7 1 -31 -30 -62 -83 -84 -44 -19
-52 -15 -36 15 10 18 9 21 -6 18 -13 -2 -20 6 -24 27 -10 46 -32 75 -57 75
-14 0 -23 6 -23 15 0 12 -4 13 -19 5 -29 -15 -38 -12 -15 5 25 19 44 19 44 0z
m886 -20 c14 -13 14 -15 1 -15 -9 0 -18 6 -20 13 -4 9 -8 8 -16 -3 -9 -13 -11
-13 -11 3 0 21 26 22 46 2z m-592 -25 c64 0 96 -16 81 -40 -3 -5 -1 -10 4 -10
6 0 11 -7 11 -16 0 -9 8 -23 18 -30 15 -12 15 -12 -5 -7 -14 3 -23 13 -23 24
0 10 -5 21 -10 24 -6 4 -9 14 -8 23 3 14 -7 17 -52 20 -78 3 -100 10 -100 30
1 16 1 16 11 0 8 -14 24 -18 73 -18z m556 -15 c0 -12 -15 -15 -87 -13 l-88 2
83 3 c45 2 82 8 82 13 0 6 2 10 5 10 3 0 5 -7 5 -15z m-197 -2 c-12 -2 -25
-13 -28 -24 -5 -15 -15 -19 -43 -17 l-37 1 32 4 c19 3 37 12 43 24 6 11 20 18
33 18 l22 -2 -22 -4z m-113 -73 c-8 -6 -28 -9 -45 -8 l-30 1 30 4 c17 3 34 9
39 14 5 5 12 6 15 3 3 -3 -1 -9 -9 -14z m-7680 -411 c0 -17 -5 -20 -25 -17
-18 4 -24 1 -22 -11 1 -9 -2 -16 -8 -16 -5 0 -9 6 -9 13 1 6 -2 12 -7 12 -20
0 -8 29 14 33 48 9 57 7 57 -14z m-219 -166 c13 -16 12 -17 -3 -4 -10 7 -18
15 -18 17 0 8 8 3 21 -13z m6038 -478 c0 -14 -4 -11 -13 11 -8 18 -19 35 -25
38 -6 4 -11 13 -11 19 0 7 11 -1 25 -18 13 -16 24 -39 24 -50z m83 -89 c4 -6
8 -15 8 -21 -1 -5 -5 -2 -11 7 -5 9 -27 27 -49 39 -22 13 -40 26 -40 31 0 10
82 -40 92 -56z m-3342 20 c0 -2 -8 -10 -17 -17 -16 -13 -17 -12 -4 4 13 16 21
21 21 13z m3301 -137 c-51 -47 -53 -51 -37 -68 15 -16 15 -21 2 -52 -9 -19
-15 -28 -16 -21 0 7 5 22 10 33 8 15 7 23 -5 35 -8 9 -12 21 -9 27 11 20 99
104 104 100 2 -3 -19 -27 -49 -54z m-5461 -39 c0 -5 -2 -10 -4 -10 -3 0 -8 5
-11 10 -3 6 -1 10 4 10 6 0 11 -4 11 -10z m30 -15 c-7 -8 -17 -15 -23 -15 -6
0 -2 7 9 15 25 19 30 19 14 0z m-40 -78 c0 -4 -6 -2 -14 5 -8 7 -12 17 -9 22
5 8 23 -12 23 -27z m105 -7 c3 -5 1 -10 -4 -10 -6 0 -11 5 -11 10 0 6 2 10 4
10 3 0 8 -4 11 -10z m5408 -97 c18 -9 46 -20 62 -24 25 -6 26 -7 7 -8 -13 -1
-37 6 -55 15 -38 19 -97 73 -97 88 0 6 12 -4 26 -22 14 -18 40 -40 57 -49z
m197 -52 c14 -28 16 -25 -45 -91 -30 -33 -55 -57 -55 -53 0 3 23 30 50 59 28
29 50 56 50 61 -1 20 -18 32 -55 36 l-40 4 42 1 c33 2 45 -2 53 -17z m-5523
-28 c-3 -10 -5 -4 -5 12 0 17 2 24 5 18 2 -7 2 -21 0 -30z m-113 -2 c3 -5 -1
-14 -8 -20 -10 -9 -16 -9 -21 -1 -4 6 -3 10 2 9 20 -3 27 2 13 11 -9 6 -10 10
-3 10 6 0 14 -4 17 -9z m-54 -15 c0 -3 -4 -8 -10 -11 -5 -3 -10 -1 -10 4 0 6
5 11 10 11 6 0 10 -2 10 -4z m430 -6 c0 -6 47 -10 120 -10 73 0 120 4 120 10
0 6 18 10 40 10 l40 0 0 -40 0 -40 -40 0 -40 0 0 -40 0 -40 80 0 80 0 0 -40 0
-40 40 0 40 0 0 -40 0 -40 -82 0 -83 0 -37 42 c-26 30 -37 38 -38 26 0 -17
-29 -26 -31 -10 -5 47 -35 84 -50 60 -5 -7 -15 -2 -32 15 -13 15 -29 27 -36
27 -6 0 -11 5 -11 10 0 6 -7 10 -15 10 -8 0 -19 9 -25 20 -6 11 -15 20 -21 20
-21 0 -39 30 -39 64 0 20 5 36 10 36 6 0 10 -4 10 -10z m7070 -274 c0 -25 -12
-46 -25 -46 -21 0 -27 17 -15 40 12 23 40 27 40 6z m-8630 -95 c0 -11 -3 -11
-14 -1 -12 9 -21 5 -47 -22 l-31 -33 26 33 c14 19 26 40 26 48 0 12 3 12 20 2
11 -7 20 -19 20 -27z m2120 -61 c0 -22 -4 -40 -10 -40 -5 0 -10 18 -10 40 0
22 5 40 10 40 6 0 10 -18 10 -40z m-1685 -508 c-7 -20 -14 -32 -14 -25 -1 6 3
23 9 38 8 20 6 34 -9 63 -10 20 -21 48 -25 62 -4 14 7 -3 23 -38 28 -59 29
-64 16 -100z m-18 -79 c-3 -10 -5 -4 -5 12 0 17 2 24 5 18 2 -7 2 -21 0 -30z
m36 -68 c2 -14 0 -25 -4 -25 -5 0 -9 10 -9 23 0 13 -6 29 -12 37 -11 12 -10
12 3 2 9 -7 19 -24 22 -37z m22 -105 c-3 -5 -12 -10 -18 -10 -7 0 -6 4 3 10
19 12 23 12 15 0z m-28 -52 c-3 -7 -5 -2 -5 12 0 14 2 19 5 13 2 -7 2 -19 0
-25z m3069 -163 c-8 -8 -18 -15 -22 -15 -3 0 -1 7 6 15 7 8 17 15 22 15 5 0 3
-7 -6 -15z m-3239 -67 c-3 -8 -6 -5 -6 6 -1 11 2 17 5 13 3 -3 4 -12 1 -19z"/>
<path d="M4060 5616 c0 -2 14 -9 31 -15 27 -9 30 -9 19 4 -11 13 -50 22 -50
11z"/>
<path d="M8800 1891 c-7 -15 -7 -21 0 -21 12 0 25 28 17 36 -3 3 -10 -4 -17
-15z"/>
<path d="M8590 7595 c0 -29 -6 -39 -30 -54 l-31 -18 51 5 c44 4 50 2 50 -14 0
-14 8 -19 28 -20 17 -1 52 -18 84 -42 l55 -41 53 25 c68 32 74 31 65 -8 -4
-18 -9 -46 -10 -61 -4 -35 -4 -36 -68 -67 -59 -28 -70 -51 -33 -68 20 -9 29
-8 47 7 26 21 70 16 76 -8 3 -13 53 -46 58 -38 74 109 77 112 155 116 72 3
145 43 176 96 24 42 48 57 56 36 2 -7 54 -18 101 -20 21 -2 -8 -21 -31 -21
-23 -1 -25 -2 -9 -11 12 -7 23 -6 39 5 35 25 44 20 58 -29 17 -62 89 -125 142
-125 20 0 39 -4 42 -8 2 -4 14 -44 25 -87 15 -57 28 -87 46 -102 35 -31 65
-30 65 1 0 19 -7 25 -34 30 -37 7 -50 19 -59 54 -5 20 3 27 26 23 5 -1 6 3 2
8 -3 6 -11 8 -18 5 -7 -2 -17 10 -23 31 -21 68 18 55 90 -29 54 -63 78 -70
135 -35 18 11 97 36 175 55 77 19 172 44 209 56 37 11 81 18 98 16 26 -4 36 2
75 45 24 27 44 55 44 63 0 20 38 37 101 45 39 4 71 16 101 37 58 40 179 72
299 79 92 6 98 5 148 -23 52 -28 107 -81 96 -92 -3 -4 -16 6 -28 20 -12 14
-38 34 -57 43 -22 11 -30 12 -22 4 6 -7 12 -24 12 -37 0 -13 7 -30 15 -38 8
-9 15 -31 15 -50 0 -29 5 -36 41 -55 73 -37 206 -26 260 22 17 15 35 30 39 31
4 2 24 25 44 53 37 47 38 51 32 107 -6 53 -5 58 18 73 18 12 36 14 73 9 40 -5
58 -2 89 14 l39 21 -1303 1 -1303 0 -35 -27 c-28 -23 -34 -35 -34 -66 0 -31
-3 -38 -17 -35 -15 3 -17 13 -15 49 1 28 -3 52 -12 64 -14 19 -15 17 -16 -27
0 -51 -11 -59 -51 -38 -15 8 -27 7 -49 -7 -29 -17 -30 -17 -57 8 -87 79 -87
79 -252 79 l-151 0 0 -35z m374 -76 c14 -11 26 -29 26 -40 0 -18 -5 -19 -36
-15 -41 7 -74 23 -74 36 0 9 39 40 51 40 3 0 18 -9 33 -21z m704 -6 c-3 -26 0
-28 35 -31 48 -4 59 -27 26 -53 l-24 -19 29 -23 c24 -20 27 -28 21 -55 -7 -35
-19 -41 -33 -16 -8 15 -13 14 -47 -9 -35 -24 -65 -27 -65 -6 0 5 -8 9 -17 9
-10 0 -24 12 -30 27 -16 34 -16 43 1 43 9 0 12 8 8 25 -3 16 0 25 9 25 10 0
10 3 1 12 -19 19 -15 41 6 36 15 -4 18 -1 14 19 -5 28 11 43 46 43 20 0 23 -4
20 -27z"/>
<path d="M9625 7490 c-3 -6 1 -7 9 -4 18 7 21 14 7 14 -6 0 -13 -4 -16 -10z"/>
<path d="M9680 7455 c8 -11 14 -21 15 -22 0 -1 8 4 18 12 16 11 16 13 2 19 -9
3 -13 2 -10 -4 9 -14 -8 -12 -25 3 -12 10 -12 9 0 -8z"/>
<path d="M9676 7392 c-2 -4 4 -8 14 -8 10 0 16 4 14 8 -3 4 -9 8 -14 8 -5 0
-11 -4 -14 -8z"/>
<path d="M8966 7619 c3 -5 13 -9 22 -9 15 0 15 -2 2 -11 -12 -8 -9 -9 9 -4 21
6 23 5 17 -11 -6 -15 -5 -17 5 -7 10 10 9 16 -7 30 -20 19 -58 28 -48 12z"/>
<path d="M9025 7620 c3 -5 16 -7 30 -5 39 4 39 11 0 12 -19 1 -33 -3 -30 -7z"/>
<path d="M9203 7613 c0 -8 6 -9 19 -2 10 5 18 11 18 12 0 2 -8 3 -18 3 -10 0
-19 -6 -19 -13z"/>
<path d="M11887 7612 c-10 -10 -17 -21 -17 -25 0 -12 114 -29 154 -23 45 8 56
19 49 47 -5 17 -15 19 -88 19 -67 0 -85 -3 -98 -18z"/>
<path d="M12086 7604 c12 -46 -10 -56 -113 -53 -62 2 -97 7 -105 16 -7 8 -34
13 -77 13 -93 0 -111 -7 -111 -39 0 -15 3 -31 7 -35 12 -12 10 -50 -4 -64 -7
-7 -13 -20 -13 -28 0 -8 -4 -14 -10 -14 -5 0 -10 -7 -10 -15 0 -8 -5 -15 -11
-15 -6 0 -9 -7 -6 -14 4 -10 1 -13 -9 -9 -7 3 -14 1 -14 -4 0 -5 6 -10 13 -11
6 -1 26 -3 44 -4 17 -2 35 -7 39 -11 12 -12 24 -8 24 8 0 8 7 15 16 15 10 0
14 -6 10 -15 -4 -12 4 -15 40 -15 25 0 43 -3 40 -8 -2 -4 14 -6 36 -4 22 3 43
0 47 -5 9 -15 134 -24 151 -12 12 8 10 10 -7 6 -13 -3 -42 1 -65 8 -40 11 -35
12 57 7 55 -2 101 -8 103 -13 2 -4 15 -4 28 2 33 12 134 12 134 -1 0 -5 -28
-11 -62 -13 -35 -2 -18 -2 37 0 55 2 123 5 150 6 28 0 53 6 57 12 5 7 8 6 8
-2 0 -6 9 -9 20 -6 11 3 20 10 20 15 0 6 -7 8 -15 4 -8 -3 -15 -1 -15 4 0 6 4
10 9 10 5 0 5 15 1 34 -4 19 -6 37 -3 39 2 3 5 20 7 38 2 19 11 51 20 72 21
49 14 72 -27 84 -22 6 -31 15 -29 26 2 15 -17 16 -208 16 l-210 -1 6 -24z
m-339 -76 c-3 -8 -6 -5 -6 6 -1 11 2 17 5 13 3 -3 4 -12 1 -19z m13 -121 c0
-44 -8 -52 -76 -71 -24 -7 -43 22 -23 34 6 4 10 9 9 11 -1 2 3 15 9 29 7 17
10 20 10 8 1 -25 21 -22 21 2 0 18 3 19 20 10 16 -9 20 -8 20 5 0 8 2 15 5 15
3 0 5 -19 5 -43z m750 -68 c0 8 2 12 5 9 3 -3 2 -13 -1 -23 -6 -15 -8 -15 -20
6 -7 13 -13 29 -13 34 0 6 6 -1 14 -15 8 -14 14 -19 15 -11z m-590 -19 c0 -5
-18 -10 -40 -10 -22 0 -40 5 -40 10 0 6 18 10 40 10 22 0 40 -4 40 -10z"/>
<path d="M11725 7400 c-4 -6 -16 -10 -27 -8 -16 2 -21 -3 -24 -27 -2 -16 0
-25 4 -20 4 6 20 15 37 20 16 6 31 18 33 28 4 19 -13 23 -23 7z"/>
<path d="M12512 7618 c3 -7 18 -16 35 -20 43 -11 51 -49 23 -112 -11 -26 -20
-69 -20 -96 0 -43 3 -48 26 -54 14 -4 35 -4 47 -1 13 4 17 3 10 -2 -18 -13 32
-74 54 -66 10 4 14 2 9 -5 -3 -6 -2 -13 4 -17 5 -3 10 -1 10 5 0 6 13 2 29
-10 16 -11 35 -19 42 -18 7 2 14 -4 15 -12 0 -8 2 -21 2 -27 1 -8 16 -13 37
-13 44 0 81 -28 59 -44 -12 -9 -11 -13 7 -24 12 -8 18 -9 15 -4 -7 12 18 35
28 25 3 -4 13 2 22 13 15 18 15 18 5 -3 -18 -36 -12 -40 14 -9 25 29 33 29 73
0 20 -15 22 -15 16 -1 -3 8 -12 18 -20 21 -9 3 -14 20 -14 46 l0 40 41 0 40 0
-3 -42 c-2 -34 -7 -43 -20 -42 -14 1 -16 -2 -7 -17 12 -23 25 -24 45 -4 9 8
12 15 7 15 -5 0 -14 -5 -21 -12 -8 -8 -12 -8 -12 -1 0 17 26 23 62 12 18 -5
33 -9 33 -9 0 0 -1 20 -1 44 -2 35 1 43 12 39 8 -3 14 1 14 8 0 11 3 11 10 -1
8 -13 10 -13 10 1 0 9 8 23 18 32 18 16 19 16 17 -5 -2 -14 -8 -22 -16 -20
-12 3 -12 1 0 -10 11 -10 14 -10 18 0 3 6 9 10 14 6 5 -3 9 0 9 5 0 6 -5 11
-12 11 -6 0 -1 11 12 25 13 14 19 25 13 25 -6 0 -14 -6 -16 -12 -4 -10 -6 -10
-6 -1 -2 20 38 36 55 22 9 -7 18 -8 27 -2 11 8 19 9 53 5 7 -1 10 -16 7 -37
-2 -24 1 -37 11 -41 19 -7 58 14 50 28 -4 5 -9 6 -13 2 -8 -12 -41 -14 -41 -3
0 8 24 13 58 12 22 -1 13 6 -48 37 -33 17 -60 33 -60 36 0 3 5 2 10 -1 6 -3
10 1 10 9 0 9 14 36 32 60 31 45 31 46 19 101 -12 54 -12 57 14 90 l26 35
-501 0 c-387 0 -501 -3 -498 -12z m186 -317 c11 -7 11 -9 -2 -14 -9 -4 -23 -4
-32 0 -13 5 -13 7 -2 14 7 5 15 9 18 9 3 0 11 -4 18 -9z m772 -15 c0 -3 -4 -8
-10 -11 -5 -3 -10 -1 -10 4 0 6 5 11 10 11 6 0 10 -2 10 -4z"/>
<path d="M13517 7612 c-28 -31 -35 -64 -24 -118 10 -48 9 -54 -23 -109 -25
-43 -29 -57 -17 -52 10 4 17 2 17 -4 0 -6 8 -8 17 -5 10 4 14 4 11 0 -4 -3 4
-17 18 -31 28 -28 30 -45 8 -64 -8 -7 -13 -20 -11 -30 3 -12 0 -16 -9 -12 -8
3 -11 9 -8 14 3 5 1 9 -5 9 -5 0 -13 -4 -16 -10 -15 -25 -56 9 -48 40 3 12 0
20 -6 20 -7 0 -9 5 -6 10 4 7 -3 8 -21 4 -16 -4 -34 -7 -41 -7 -19 0 -16 -15
5 -20 14 -4 14 -5 -3 -6 -12 -1 -25 -13 -34 -32 -7 -16 -19 -28 -26 -26 -6 3
-26 -2 -44 -10 -25 -13 -29 -18 -20 -30 15 -17 1 -33 -30 -36 -25 -2 -25 -1
-4 -18 9 -8 14 -9 10 -3 -4 7 10 16 36 24 25 8 35 15 25 17 -27 6 -28 30 -3
41 18 8 25 8 29 -4 3 -8 10 -14 15 -14 6 0 8 7 5 15 -5 11 -2 13 10 9 10 -4
18 0 22 11 6 15 9 14 21 -6 l14 -24 -6 28 c-3 15 -1 27 5 27 10 0 14 -21 11
-47 -1 -7 3 -13 10 -13 6 0 9 8 6 19 -2 10 -1 25 4 32 6 10 9 5 9 -16 l0 -31
72 -2 c55 -1 76 2 90 15 17 15 18 15 18 -10 0 -27 0 -27 80 -27 44 0 80 -4 80
-9 0 -6 19 -12 43 -14 23 -2 5 -4 -40 -5 l-83 -2 0 -54 c0 -49 -2 -55 -22 -59
-22 -3 -22 -4 -4 -12 13 -6 21 -5 24 3 5 17 22 15 22 -4 0 -17 -23 -44 -39
-44 -5 0 -13 -4 -16 -10 -4 -6 7 -10 24 -10 24 0 31 4 31 19 0 31 68 34 96 4
22 -23 44 -31 44 -14 0 5 36 12 80 16 l80 7 0 64 0 64 40 0 c22 0 40 -4 40
-10 0 -6 33 -10 80 -10 47 0 80 -4 80 -10 0 -5 18 -10 40 -10 22 0 40 -4 40
-10 0 -5 18 -10 40 -10 38 0 40 2 40 30 0 27 3 30 30 30 17 0 30 5 30 10 0 6
5 10 10 10 6 0 10 -13 10 -30 0 -23 4 -30 20 -30 13 0 20 -7 20 -20 0 -13 7
-20 20 -20 11 0 20 -4 20 -10 0 -6 33 -10 80 -10 47 0 80 -4 80 -10 0 -6 33
-10 80 -10 47 0 80 -4 80 -10 0 -5 18 -10 40 -10 33 0 40 -3 40 -20 0 -18 7
-20 80 -20 47 0 80 -4 80 -10 0 -5 18 -10 40 -10 22 0 40 -4 40 -9 0 -6 19
-11 43 -13 31 -2 41 -7 39 -18 -2 -9 10 -2 27 14 19 18 31 40 31 55 1 33 23
64 36 51 6 -6 22 -6 43 0 29 8 36 6 61 -20 21 -22 39 -30 64 -30 42 0 68 9 60
21 -3 5 0 8 7 7 7 -2 26 21 42 50 16 30 42 61 58 71 16 10 26 21 22 24 -3 4
-1 7 5 7 30 0 0 44 -31 45 -41 2 -69 29 -70 69 -1 20 -6 35 -11 34 -6 -1 -26
6 -44 16 -27 14 -40 15 -64 7 -17 -6 -46 -11 -63 -11 -26 0 -34 5 -39 24 -3
14 -4 30 -2 38 14 43 15 68 5 68 -7 0 -17 7 -23 16 -6 8 -32 19 -56 25 -86 18
-98 27 -122 90 -18 48 -28 60 -50 65 -30 6 -37 31 -16 52 9 9 -169 12 -803 12
-765 0 -817 -1 -832 -18z m-174 -410 c-3 -12 -9 -22 -14 -22 -5 0 -3 11 3 25
13 30 20 28 11 -3z m597 -7 c10 -12 10 -15 -4 -15 -9 0 -16 7 -16 15 0 8 2 15
4 15 2 0 9 -7 16 -15z m-490 -14 c0 -6 -4 -13 -10 -16 -5 -3 -10 1 -10 9 0 9
5 16 10 16 6 0 10 -4 10 -9z m57 -18 c-7 -6 -46 10 -41 18 3 5 14 3 24 -3 11
-7 18 -13 17 -15z m543 7 c0 -5 -4 -10 -10 -10 -5 0 -10 5 -10 10 0 6 5 10 10
10 6 0 10 -4 10 -10z m407 -57 c-3 -10 -5 -4 -5 12 0 17 2 24 5 18 2 -7 2 -21
0 -30z m37 2 c3 -8 1 -15 -4 -15 -6 0 -10 7 -10 15 0 8 2 15 4 15 2 0 6 -7 10
-15z m66 0 c0 -8 -4 -15 -10 -15 -5 0 -7 7 -4 15 4 8 8 15 10 15 2 0 4 -7 4
-15z m-640 -35 c0 -5 -18 -10 -40 -10 -22 0 -40 5 -40 10 0 6 18 10 40 10 22
0 40 -4 40 -10z m640 -30 c0 -13 -7 -20 -20 -20 -13 0 -20 7 -20 20 0 13 7 20
20 20 13 0 20 -7 20 -20z m760 -110 c0 -5 -4 -10 -10 -10 -5 0 -10 5 -10 10 0
6 5 10 10 10 6 0 10 -4 10 -10z m0 -50 c5 8 10 11 10 7 0 -5 -10 -21 -21 -35
-21 -26 -21 -26 -14 -3 5 16 4 21 -4 17 -7 -5 -8 -1 -4 9 5 13 7 14 14 3 7
-11 11 -10 19 2z"/>
<path d="M15172 7618 c-18 -18 -14 -38 7 -38 24 0 35 -15 51 -65 16 -51 38
-72 86 -81 22 -3 59 -15 83 -26 l44 -20 -7 -59 c-7 -71 -1 -76 71 -61 38 9 54
8 77 -4 16 -8 39 -14 51 -14 31 0 35 -8 23 -41 -9 -25 -7 -32 8 -44 11 -8 28
-15 40 -15 32 0 52 -22 60 -63 6 -37 6 -38 -35 -54 -31 -12 -43 -24 -52 -51
-12 -35 -76 -115 -88 -108 -3 2 -30 7 -59 10 -49 6 -92 20 -92 31 0 2 8 2 18
-2 9 -3 14 -3 10 1 -23 26 -123 10 -112 -18 3 -8 -2 -28 -11 -45 -14 -27 -14
-34 -2 -46 10 -9 17 -11 25 -3 6 6 16 7 23 2 10 -6 9 -9 -4 -13 -12 -5 -7 -13
26 -41 23 -19 36 -27 28 -17 -12 15 -12 17 3 11 9 -3 16 -13 16 -21 0 -13 2
-13 17 -2 15 12 16 12 10 -4 -4 -10 -7 -21 -7 -23 0 -3 -6 -2 -12 2 -10 6 -10
4 0 -7 6 -7 12 -21 12 -30 0 -10 3 -20 8 -22 6 -5 9 13 13 93 1 20 2 21 10 8
5 -9 8 -27 7 -40 -3 -22 1 -23 62 -26 41 -2 71 -9 82 -19 14 -12 32 -14 97 -8
l81 7 0 -31 c0 -30 2 -31 43 -32 23 -1 45 -1 49 0 4 0 3 -11 -3 -25 -5 -15 -8
-29 -5 -31 2 -3 7 5 11 16 3 12 11 21 16 21 6 0 7 6 3 13 -4 6 -4 9 0 5 4 -3
25 -1 45 7 44 15 90 9 110 -14 12 -15 13 -14 7 3 -5 14 -2 17 10 12 17 -7 47
11 39 23 -2 4 9 5 26 3 16 -2 29 -9 29 -14 0 -5 5 -6 10 -3 6 3 10 1 10 -5 0
-6 17 -29 38 -51 27 -30 37 -50 38 -75 1 -40 4 -45 33 -47 11 -1 21 -5 21 -9
0 -4 6 -8 14 -8 7 0 19 -7 26 -15 10 -12 15 -13 21 -4 9 15 129 26 129 12 0
-6 10 -8 23 -6 17 3 28 -2 41 -21 15 -24 21 -26 96 -26 l80 0 0 -30 c0 -28 2
-30 39 -30 22 0 41 5 44 13 2 6 8 9 12 5 16 -15 -18 -38 -56 -38 -22 0 -39 -4
-39 -10 0 -5 -18 -10 -40 -10 -22 0 -40 5 -40 10 0 6 -7 10 -16 10 -8 0 -12
-4 -9 -10 4 -6 -7 -10 -24 -10 -17 0 -31 5 -31 10 0 6 -18 10 -40 10 -36 0
-40 -2 -40 -25 0 -23 4 -25 44 -25 26 0 48 -6 56 -15 7 -8 23 -15 36 -15 20 0
24 -5 24 -31 l0 -31 80 7 c85 8 85 8 80 -43 -1 -13 6 -32 16 -43 16 -17 16
-19 1 -19 -10 0 -17 -4 -17 -10 0 -15 80 -13 80 3 0 6 18 -8 40 -33 l39 -45 1
85 1 85 37 -43 c33 -37 42 -42 80 -42 23 0 42 -4 42 -10 0 -5 18 -10 40 -10
38 0 40 -2 40 -30 0 -16 5 -30 10 -30 6 0 10 14 10 31 0 30 1 30 70 -42 57
-59 70 -68 70 -50 0 28 33 25 39 -4 2 -11 11 -25 20 -32 9 -7 11 -13 5 -13 -6
0 -17 6 -24 14 -12 15 -40 11 -40 -6 0 -5 4 -6 10 -3 5 3 20 -1 31 -9 21 -15
21 -15 -12 -24 -20 -6 -26 -11 -14 -11 26 -1 70 22 70 36 0 6 4 15 9 20 6 5 6
2 1 -6 -6 -11 -4 -13 9 -8 10 4 23 7 29 7 8 0 7 4 -2 9 -9 6 0 8 25 6 67 -5
71 -6 49 -14 -11 -5 -28 -4 -37 1 -12 5 -18 5 -18 -1 0 -14 45 -25 61 -15 8 5
9 3 4 -5 -4 -7 -18 -11 -31 -8 -13 2 -24 0 -24 -4 0 -9 7 -11 49 -13 15 -1 25
-8 27 -19 1 -9 -2 -15 -7 -11 -12 7 -11 -10 3 -41 11 -25 17 -27 70 -27 20 -1
34 -10 50 -34 13 -19 27 -34 31 -34 5 0 6 -4 3 -8 -2 -4 3 -8 13 -9 20 -2 27
47 11 77 -9 17 -8 19 7 13 15 -6 16 -4 6 8 -21 26 50 16 88 -13 30 -24 36 -25
53 -12 27 19 48 18 74 -6 12 -11 27 -19 34 -18 7 2 12 -3 10 -10 -5 -26 31
-26 52 0 12 14 32 31 46 38 14 7 22 9 18 5 -11 -12 11 -35 26 -29 8 3 16 -2
20 -12 6 -15 4 -15 -10 -3 -15 12 -17 12 -12 -1 3 -10 15 -14 34 -13 80 7 82
6 109 -25 39 -46 60 -49 101 -13 40 35 43 36 69 17 17 -12 18 -17 6 -42 -11
-26 -10 -30 18 -56 36 -34 47 -68 32 -96 -6 -11 -9 -27 -8 -34 2 -7 2 -9 -1
-5 -8 16 -32 -16 -32 -45 0 -16 -6 -31 -15 -34 -8 -4 -12 -11 -9 -16 4 -6 -1
-8 -12 -4 -11 3 -25 2 -32 -3 -11 -6 -10 -11 3 -25 19 -18 80 -23 69 -5 -5 9
1 10 20 5 17 -4 25 -3 22 3 -4 5 -1 13 5 17 7 4 9 3 5 -4 -3 -6 -1 -14 5 -18
6 -3 15 0 20 7 18 29 8 -5 -15 -51 -13 -27 -22 -51 -20 -53 3 -3 -3 -4 -13 -4
-10 1 -17 -4 -16 -10 2 -8 -7 -13 -20 -12 -12 0 -16 3 -9 6 6 2 10 9 6 14 -3
5 0 9 6 9 6 0 8 4 5 10 -8 13 -31 -8 -32 -32 -1 -11 5 -18 15 -18 15 -1 15 -2
-2 -15 -20 -15 -20 -15 0 -15 11 0 25 -8 33 -18 9 -13 25 -18 62 -17 33 1 46
-2 39 -9 -5 -5 -10 -17 -10 -25 0 -14 2 -14 11 -1 9 12 10 12 5 -3 -9 -28 10
-54 49 -68 19 -7 35 -17 35 -21 0 -4 18 -8 40 -8 23 0 40 -5 40 -11 0 -8 17
-10 53 -7 28 3 46 3 40 1 -7 -3 -13 -13 -13 -23 0 -14 10 -18 51 -22 59 -6 69
-17 69 -75 0 -38 3 -43 23 -43 14 0 36 -16 59 -42 l37 -43 1 1483 0 1482
-2008 0 c-1548 0 -2011 -3 -2020 -12z m497 -705 c-12 -19 -69 -68 -69 -59 0 5
72 76 78 76 1 0 -3 -8 -9 -17z m-106 -50 c-7 -2 -21 -2 -30 0 -10 3 -4 5 12 5
17 0 24 -2 18 -5z m-98 -13 c-3 -5 -12 -10 -18 -10 -7 0 -6 4 3 10 19 12 23
12 15 0z m210 -10 c3 -6 -1 -7 -9 -4 -18 7 -21 14 -7 14 6 0 13 -4 16 -10z
m-311 -21 c-3 -5 -10 -7 -15 -3 -5 3 -7 10 -3 15 3 5 10 7 15 3 5 -3 7 -10 3
-15z m68 4 c-10 -4 -10 -8 -1 -19 8 -10 8 -14 0 -14 -6 0 -11 -8 -11 -17 0
-14 -3 -14 -12 -5 -10 10 -10 15 1 21 9 6 10 11 2 15 -19 12 -12 26 12 25 12
0 16 -3 9 -6z m743 -169 c-11 -12 -21 -13 -47 -4 l-33 10 33 -5 c18 -3 31 -1
28 3 -2 4 4 9 15 9 17 2 17 0 4 -13z m60 -22 c-3 -3 -11 0 -18 7 -9 10 -8 11
6 5 10 -3 15 -9 12 -12z m-172 1 c-13 -2 -33 -2 -45 0 -13 2 -3 4 22 4 25 0
35 -2 23 -4z m251 -92 c-2 -3 -12 3 -22 13 -16 17 -16 18 5 5 12 -7 20 -15 17
-18z m134 -126 c4 -4 -4 -4 -17 0 -18 6 -22 4 -15 -6 6 -12 5 -12 -9 0 -9 7
-17 15 -17 16 0 6 51 -3 58 -10z m1387 -715 c3 -5 2 -10 -4 -10 -5 0 -13 5
-16 10 -3 6 -2 10 4 10 5 0 13 -4 16 -10z m-16 -19 c7 -5 9 -11 5 -14 -5 -3
-15 1 -22 9 -14 16 -5 18 17 5z m726 -401 c3 -5 1 -10 -4 -10 -6 0 -11 5 -11
10 0 6 2 10 4 10 3 0 8 -4 11 -10z m138 -55 c-3 -9 -8 -14 -10 -11 -3 3 -2 9
2 15 9 16 15 13 8 -4z m357 -255 c0 -5 -5 -10 -11 -10 -5 0 -7 5 -4 10 3 6 8
10 11 10 2 0 4 -4 4 -10z"/>
<path d="M9085 7600 c-3 -6 1 -7 9 -4 18 7 21 14 7 14 -6 0 -13 -4 -16 -10z"/>
<path d="M11043 7513 c3 -4 -9 -9 -26 -9 -42 -2 -116 -19 -125 -29 -7 -7 45
-2 98 11 15 3 20 2 13 -3 -7 -5 27 -9 83 -10 62 -1 92 2 88 9 -4 6 0 15 7 20
10 6 7 7 -10 3 -14 -4 -21 -3 -18 2 4 6 -19 11 -54 12 -33 1 -58 -2 -56 -6z"/>
<path d="M10849 7471 c-23 -9 -109 -65 -109 -71 0 -3 24 -6 53 -7 47 -2 50 -1
33 12 -23 17 -40 20 -31 5 4 -6 -1 -7 -12 -3 -15 6 -14 8 8 17 15 6 34 17 43
25 14 12 19 11 31 -5 14 -18 14 -18 15 3 0 26 -9 33 -31 24z"/>
<path d="M9341 7426 c-18 -21 -14 -23 34 -15 29 4 32 7 13 8 -14 0 -28 6 -30
12 -2 7 -9 5 -17 -5z"/>
<path d="M10858 7403 c7 -3 16 -2 19 1 4 3 -2 6 -13 5 -11 0 -14 -3 -6 -6z"/>
<path d="M11204 7403 c5 -10 -5 -13 -41 -15 l-48 -1 43 -4 c39 -4 42 -6 42
-34 0 -27 -2 -29 -40 -29 -37 0 -40 -2 -40 -28 0 -36 28 -62 67 -62 39 0 47 9
26 32 -16 18 -5 26 13 8 6 -6 21 -6 39 -1 17 5 24 10 16 10 -8 1 -23 8 -33 18
-11 9 -18 11 -18 5 0 -7 5 -12 12 -12 6 0 9 -3 5 -6 -3 -3 -15 -3 -26 1 -21 6
-21 35 0 62 10 11 10 16 0 23 -10 6 -10 9 -1 12 8 2 7 8 -6 18 -11 9 -15 10
-10 3z"/>
<path d="M9338 7383 c-26 -31 -31 -43 -14 -37 9 3 16 10 16 15 0 5 3 8 8 7 4
-1 21 5 37 15 l30 16 -31 1 c-17 0 -37 -8 -46 -17z"/>
<path d="M10880 7380 c0 -5 18 -10 40 -10 22 0 40 5 40 10 0 6 -18 10 -40 10
-22 0 -40 -4 -40 -10z"/>
<path d="M10586 7355 c-20 -30 -13 -46 16 -41 27 4 43 28 35 50 -9 24 -32 20
-51 -9z m35 -22 c-6 -10 -11 -12 -11 -5 0 6 -5 12 -11 12 -5 0 -7 -4 -4 -10 3
-5 1 -10 -4 -10 -16 0 -14 11 6 32 21 23 40 8 24 -19z"/>
<path d="M12560 7319 c0 -5 5 -7 10 -4 6 3 10 8 10 11 0 2 -4 4 -10 4 -5 0
-10 -5 -10 -11z"/>
<path d="M11554 7299 c-18 -20 -18 -20 11 -14 22 5 26 4 16 -4 -11 -7 -2 -8
30 -5 l44 4 -32 -12 c-40 -16 -57 -33 -23 -23 14 4 22 4 18 0 -11 -12 -67 -16
-73 -5 -3 6 -11 10 -16 10 -6 0 -8 -4 -5 -8 3 -5 -8 -6 -25 -4 -32 5 -39 18
-11 25 9 2 -5 2 -33 -1 -27 -3 -57 -8 -65 -13 -8 -4 4 -5 28 -2 23 3 42 2 42
-4 0 -5 -40 -9 -89 -10 -67 0 -91 3 -95 13 -3 8 -12 11 -21 8 -21 -8 -19 -22
2 -20 12 0 19 -7 21 -21 3 -19 10 -23 43 -23 21 0 39 -4 39 -10 0 -5 18 -10
40 -10 22 0 40 -4 40 -10 0 -5 18 -10 40 -10 22 0 40 -4 40 -10 0 -5 18 -10
40 -10 22 0 40 5 40 10 0 6 18 10 40 10 29 0 40 -4 40 -15 0 -8 7 -15 15 -15
9 0 18 7 21 15 4 8 15 15 25 15 10 0 19 5 19 10 0 6 18 10 40 10 22 0 40 -4
40 -10 0 -5 18 -10 40 -10 22 0 40 5 40 10 0 6 33 10 80 10 47 0 80 -4 80 -10
0 -6 33 -10 80 -10 73 0 80 -2 80 -20 0 -17 7 -20 40 -20 29 0 40 -4 40 -15 0
-11 11 -15 40 -15 22 0 40 -5 40 -11 0 -7 28 -8 91 -3 88 7 92 6 109 -16 15
-20 26 -23 69 -21 60 2 77 -5 60 -25 -9 -11 -8 -14 5 -14 9 0 16 4 16 10 0 5
11 12 25 16 24 6 36 34 14 34 -6 0 -9 7 -6 14 4 10 1 13 -9 9 -18 -7 -18 10 2
48 15 29 14 32 -11 64 -16 22 -31 32 -40 29 -8 -4 -15 -1 -15 5 0 6 -12 11
-27 11 -43 0 -73 11 -73 26 0 17 -17 18 -23 2 -3 -7 -6 -8 -6 -3 0 6 3 16 8
24 10 16 31 6 31 -14 0 -7 7 -15 15 -19 17 -6 10 10 -19 49 -14 20 -15 20 -29
1 -17 -23 -105 -50 -164 -50 -23 0 -37 -4 -30 -8 7 -4 46 -7 86 -6 49 1 76 -3
79 -10 2 -7 21 -12 43 -12 21 0 39 -5 39 -10 0 -7 8 -6 23 1 19 11 20 10 9 -3
-7 -9 -10 -23 -6 -32 3 -9 2 -16 -4 -16 -6 0 -13 6 -15 13 -4 10 -6 10 -6 0
-1 -10 -48 -13 -201 -13 l-200 0 0 39 c0 40 0 40 43 44 26 2 10 5 -43 7 -108
4 -97 4 -150 -3 -32 -4 -39 -3 -25 3 15 8 9 9 -27 7 -25 -1 -44 0 -41 3 2 3
-37 10 -89 17 -102 12 -124 10 -56 -6 l43 -10 -50 6 c-27 3 -77 9 -110 13 -52
6 -54 8 -20 9 33 2 25 6 -50 22 -49 10 -90 19 -91 19 0 0 -9 -9 -20 -21z m56
1 c8 -5 11 -10 5 -10 -5 0 -17 5 -25 10 -8 5 -10 10 -5 10 6 0 17 -5 25 -10z
m208 -56 c46 -8 89 -13 96 -11 8 3 11 -6 8 -29 -4 -32 -6 -34 -43 -34 -37 0
-39 2 -39 30 0 28 -2 30 -39 30 -22 0 -41 5 -43 11 -3 8 -10 8 -26 -2 -19 -12
-24 -12 -32 0 -7 12 -11 12 -24 2 -9 -7 -24 -10 -33 -7 -15 6 -15 8 -3 16 22
14 83 12 178 -6z m737 6 c-11 -5 -27 -9 -35 -9 -9 0 -8 4 5 9 11 5 27 9 35 9
9 0 8 -4 -5 -9z m180 -60 c-3 -5 3 -15 15 -22 11 -7 20 -20 19 -28 0 -12 -2
-12 -6 -1 -5 11 -7 11 -14 0 -7 -11 -9 -9 -10 6 -1 17 -2 16 -10 -5 -7 -21 -8
-20 -4 10 4 33 4 34 -10 16 -8 -11 -18 -16 -22 -12 -5 4 3 16 16 27 25 21 36
24 26 9z m18 -101 c-4 -14 -8 -17 -13 -9 -6 9 -9 9 -13 -1 -3 -8 -6 -4 -6 9
-1 15 5 22 18 22 14 0 18 -5 14 -21z m7 -39 c0 -5 -5 -10 -11 -10 -5 0 -7 5
-4 10 3 6 8 10 11 10 2 0 4 -4 4 -10z"/>
<path d="M10519 7264 c-23 -25 -23 -26 -2 -13 13 7 25 19 27 26 8 19 2 16 -25
-13z"/>
<path d="M10978 7273 c12 -2 32 -2 45 0 12 2 2 4 -23 4 -25 0 -35 -2 -22 -4z"/>
<path d="M12413 7273 c9 -2 25 -2 35 0 9 3 1 5 -18 5 -19 0 -27 -2 -17 -5z"/>
<path d="M11530 7260 c19 -13 30 -13 30 0 0 6 -10 10 -22 10 -19 0 -20 -2 -8
-10z"/>
<path d="M10800 7246 c0 -8 6 -17 13 -20 10 -5 10 -7 0 -12 -7 -3 -13 -13 -13
-22 1 -15 2 -15 11 1 16 28 48 21 63 -14 l13 -30 36 45 c21 24 37 49 37 55 0
7 -29 11 -80 11 -62 0 -80 -3 -80 -14z m80 -26 c0 -5 -4 -10 -10 -10 -5 0 -10
5 -10 10 0 6 5 10 10 10 6 0 10 -4 10 -10z"/>
<path d="M11305 7250 c-15 -6 -10 -8 18 -6 21 2 40 5 42 8 8 7 -40 6 -60 -2z"/>
<path d="M13260 7150 c0 -5 4 -10 9 -10 6 0 13 5 16 10 3 6 -1 10 -9 10 -9 0
-16 -4 -16 -10z"/>
<path d="M11200 7140 c0 -5 18 -10 40 -10 22 0 40 5 40 10 0 6 -18 10 -40 10
-22 0 -40 -4 -40 -10z"/>
<path d="M12810 7140 c10 -6 11 -10 3 -10 -7 0 -13 -5 -13 -10 0 -10 32 -6 70
7 12 4 11 7 -5 13 -11 5 -31 9 -45 9 -20 1 -22 -1 -10 -9z"/>
<path d="M13022 7126 c10 -7 15 -16 11 -19 -3 -4 -1 -7 5 -7 7 0 12 4 12 8 0
12 -22 32 -34 32 -6 0 -3 -7 6 -14z"/>
<path d="M9962 7094 c-7 -8 -8 -14 -3 -14 10 0 25 19 20 25 -2 1 -10 -3 -17
-11z"/>
<path d="M13139 7093 c-13 -16 -12 -17 3 -5 13 10 17 10 21 0 2 -7 7 -10 11
-7 4 3 0 11 -7 18 -11 9 -17 7 -28 -6z"/>
<path d="M7896 7092 c-2 -4 6 -15 19 -24 20 -15 24 -16 35 -2 7 8 10 17 7 21
-9 8 -56 12 -61 5z"/>
<path d="M12813 7093 c9 -2 23 -2 30 0 6 3 -1 5 -18 5 -16 0 -22 -2 -12 -5z"/>
<path d="M13055 7090 c-3 -5 -1 -10 4 -10 6 0 11 5 11 10 0 6 -2 10 -4 10 -3
0 -8 -4 -11 -10z"/>
<path d="M13086 7083 c-6 -14 -5 -15 5 -6 7 7 10 15 7 18 -3 3 -9 -2 -12 -12z"/>
<path d="M13250 7091 c0 -5 5 -13 10 -16 6 -3 10 -2 10 4 0 5 -4 13 -10 16 -5
3 -10 2 -10 -4z"/>
<path d="M10050 7086 c0 -2 7 -7 16 -10 8 -3 12 -2 9 4 -6 10 -25 14 -25 6z"/>
<path d="M12870 7080 c0 -5 4 -10 9 -10 6 0 13 5 16 10 3 6 -1 10 -9 10 -9 0
-16 -4 -16 -10z"/>
<path d="M9915 7059 c-5 -14 -13 -19 -26 -16 -14 4 -19 0 -19 -14 0 -10 5 -19
11 -19 6 0 25 -10 42 -22 17 -12 27 -16 23 -9 -5 7 0 21 12 34 l20 22 -28 23
-29 22 -6 -21z"/>
<path d="M13010 7070 c0 -5 5 -10 11 -10 5 0 7 5 4 10 -3 6 -8 10 -11 10 -2 0
-4 -4 -4 -10z"/>
<path d="M11360 7059 c0 -5 5 -7 10 -4 6 3 10 8 10 11 0 2 -4 4 -10 4 -5 0
-10 -5 -10 -11z"/>
<path d="M11425 7060 c3 -5 8 -10 11 -10 2 0 4 5 4 10 0 6 -5 10 -11 10 -5 0
-7 -4 -4 -10z"/>
<path d="M6815 7049 c-4 -6 -5 -12 -2 -15 2 -3 7 2 10 11 7 17 1 20 -8 4z"/>
<path d="M12833 7044 c-3 -8 -1 -25 4 -36 8 -20 10 -20 16 -4 5 11 3 15 -5 10
-7 -5 -9 1 -6 20 6 29 1 35 -9 10z"/>
<path d="M12856 7045 c-3 -8 -1 -15 4 -15 6 0 10 5 10 11 0 5 5 7 12 3 7 -4 8
-3 4 4 -10 16 -23 15 -30 -3z"/>
<path d="M7570 7037 c0 -8 7 -17 15 -21 8 -3 15 -2 15 3 0 5 -7 14 -15 21 -12
10 -15 10 -15 -3z"/>
<path d="M12973 7043 c-7 -2 -13 -11 -13 -18 0 -8 -10 -16 -22 -18 l-23 -4 23
-2 c12 0 22 -5 22 -11 0 -5 19 -9 43 -8 36 1 38 2 10 5 -33 4 -48 33 -18 33 9
0 12 6 9 15 -6 16 -11 17 -31 8z"/>
<path d="M13042 7027 c-12 -7 -20 -16 -16 -20 4 -4 14 -2 21 5 11 9 16 9 23
-1 5 -9 10 -10 14 -2 4 6 2 11 -4 11 -6 0 -8 5 -5 10 8 13 -5 12 -33 -3z"/>
<path d="M12240 6980 c0 -13 11 -13 30 0 12 8 11 10 -7 10 -13 0 -23 -4 -23
-10z"/>
<path d="M13170 6986 c0 -2 7 -9 15 -16 12 -10 15 -10 15 4 0 9 -7 16 -15 16
-8 0 -15 -2 -15 -4z"/>
<path d="M6773 6925 c-3 -9 -3 -18 -1 -21 3 -3 8 4 11 16 6 23 -1 27 -10 5z"/>
<path d="M14421 6894 c0 -11 3 -14 6 -6 3 7 2 16 -1 19 -3 4 -6 -2 -5 -13z"/>
<path d="M6746 6885 c-9 -26 -7 -32 5 -12 6 10 9 21 6 23 -2 3 -7 -2 -11 -11z"/>
<path d="M15291 6794 c-13 -28 -6 -48 14 -40 17 6 98 -81 89 -96 -5 -7 -3 -8
5 -3 8 4 10 17 6 33 -6 23 -5 24 12 12 10 -8 2 3 -16 23 -19 20 -40 36 -45 36
-26 -3 -38 2 -33 14 3 7 -1 20 -8 30 -11 15 -13 14 -24 -9z m18 -20 c-15 -18
-22 -13 -13 10 3 9 10 13 16 10 5 -3 4 -12 -3 -20z m86 -54 c8 -13 -5 -13 -25
0 -13 8 -13 10 2 10 9 0 20 -4 23 -10z"/>
<path d="M15112 6730 c0 -14 2 -19 5 -12 2 6 2 18 0 25 -3 6 -5 1 -5 -13z"/>
<path d="M6676 6715 c-9 -26 -7 -32 5 -12 6 10 9 21 6 23 -2 3 -7 -2 -11 -11z"/>
<path d="M7099 6673 c-13 -16 -12 -17 4 -4 16 13 21 21 13 21 -2 0 -10 -8 -17
-17z"/>
<path d="M15500 6671 c0 -6 4 -13 10 -16 6 -3 7 1 4 9 -7 18 -14 21 -14 7z"/>
<path d="M15360 6659 c0 -5 5 -7 10 -4 6 3 10 8 10 11 0 2 -4 4 -10 4 -5 0
-10 -5 -10 -11z"/>
<path d="M5385 6650 c-3 -5 1 -10 9 -10 8 0 18 5 21 10 3 6 -1 10 -9 10 -8 0
-18 -4 -21 -10z"/>
<path d="M6609 6613 c-13 -16 -12 -17 4 -4 16 13 21 21 13 21 -2 0 -10 -8 -17
-17z"/>
<path d="M16162 6578 c-17 -19 -19 -27 -10 -43 6 -11 10 -43 9 -72 -2 -42 1
-53 13 -53 8 0 20 -9 26 -20 6 -11 17 -20 25 -20 15 0 19 16 15 55 -1 16 1 18
11 8 22 -22 29 -14 29 32 0 28 -5 45 -12 45 -6 0 -9 3 -5 6 6 6 -61 84 -73 84
-4 0 -16 -10 -28 -22z m76 -38 c7 -12 8 -21 2 -21 -30 -5 -35 -2 -35 22 -1 30
14 29 33 -1z m-67 3 c13 -16 12 -17 -3 -4 -10 7 -18 15 -18 17 0 8 8 3 21 -13z
m96 -100 c-3 -10 -5 -4 -5 12 0 17 2 24 5 18 2 -7 2 -21 0 -30z"/>
<path d="M16210 6530 c0 -5 5 -10 10 -10 6 0 10 5 10 10 0 6 -4 10 -10 10 -5
0 -10 -4 -10 -10z"/>
<path d="M15485 6570 c4 -7 3 -15 -3 -19 -7 -4 -6 -12 3 -24 11 -15 14 -16 25
-2 11 13 10 14 -5 9 -14 -6 -16 -3 -11 14 4 12 2 23 -5 28 -8 5 -9 3 -4 -6z"/>
<path d="M16000 6570 c-25 -15 -7 -18 35 -5 38 12 39 13 10 14 -16 0 -37 -3
-45 -9z"/>
<path d="M15725 6560 c-3 -5 -1 -10 4 -10 6 0 11 5 11 10 0 6 -2 10 -4 10 -3
0 -8 -4 -11 -10z"/>
<path d="M15761 6556 c10 -9 79 -14 79 -5 0 5 -19 9 -42 9 -23 0 -39 -2 -37
-4z"/>
<path d="M16033 6553 c-35 -5 -46 -23 -14 -23 11 0 27 -3 37 -7 12 -4 15 -3
10 5 -4 7 -1 12 9 12 9 0 15 -6 13 -12 -5 -16 -109 -29 -123 -16 -6 6 -3 7 8
3 11 -5 17 -2 17 8 0 24 -18 30 -29 9 -11 -20 1 -47 21 -47 7 0 14 -12 16 -27
3 -25 7 -28 42 -28 39 0 39 0 42 43 l3 42 40 -3 40 -4 -22 21 c-27 26 -34 26
-27 4 4 -13 0 -11 -12 5 -9 12 -22 21 -28 20 -6 0 -26 -3 -43 -5z"/>
<path d="M5285 6490 c3 -5 14 -10 23 -10 15 0 15 2 2 10 -20 13 -33 13 -25 0z"/>
<path d="M15702 6470 c0 -14 2 -19 5 -12 2 6 2 18 0 25 -3 6 -5 1 -5 -13z"/>
<path d="M5330 6471 c0 -5 9 -7 20 -4 11 3 20 7 20 9 0 2 -9 4 -20 4 -11 0
-20 -4 -20 -9z"/>
<path d="M15810 6459 c25 -4 59 -5 77 -2 21 3 33 1 36 -9 3 -9 4 -9 3 2 -1 12
-18 15 -81 16 -68 1 -73 0 -35 -7z"/>
<path d="M15946 6447 c3 -10 9 -15 12 -12 3 3 0 11 -7 18 -10 9 -11 8 -5 -6z"/>
<path d="M16290 6410 c0 -5 5 -10 11 -10 5 0 7 5 4 10 -3 6 -8 10 -11 10 -2 0
-4 -4 -4 -10z"/>
<path d="M16327 6399 c7 -7 15 -10 18 -7 3 3 -2 9 -12 12 -14 6 -15 5 -6 -5z"/>
<path d="M16450 6385 c-14 -16 -10 -18 14 -9 9 3 16 10 16 15 0 14 -16 11 -30
-6z"/>
<path d="M16364 6381 c4 -6 -5 -9 -24 -6 -17 2 -28 0 -25 -6 4 -5 12 -9 20 -9
8 0 17 -4 20 -10 3 -6 -1 -7 -9 -4 -9 3 -16 1 -16 -5 0 -6 6 -11 14 -11 8 0
23 -3 33 -6 15 -5 15 -4 3 5 -13 9 -13 11 2 11 9 0 22 -8 28 -17 11 -17 11
-17 6 0 -6 19 10 24 17 5 4 -8 6 -9 6 -2 1 6 -6 17 -14 24 -9 7 -15 8 -15 2 0
-6 -10 -8 -22 -4 -18 4 -19 6 -5 11 15 6 15 8 -4 19 -12 8 -18 9 -15 3z"/>
<path d="M15740 6371 c0 -7 -7 -11 -15 -8 -8 4 -16 3 -19 -1 -3 -4 4 -8 14 -9
20 -2 36 14 26 24 -3 4 -6 1 -6 -6z"/>
<path d="M16467 6363 c-10 -9 -9 -23 1 -23 5 0 9 7 9 15 0 17 -1 18 -10 8z"/>
<path d="M4330 6356 c0 -2 7 -9 15 -16 12 -10 15 -10 15 4 0 9 -7 16 -15 16
-8 0 -15 -2 -15 -4z"/>
<path d="M4513 6305 c-11 -11 -8 -19 12 -41 14 -15 25 -24 25 -20 0 4 9 2 21
-4 16 -9 25 -8 40 6 22 20 13 36 -32 60 -35 17 -50 17 -66 -1z"/>
<path d="M6300 6311 c0 -6 4 -13 10 -16 6 -3 7 1 4 9 -7 18 -14 21 -14 7z"/>
<path d="M16455 6302 c-5 -4 -15 -17 -22 -28 -11 -19 -9 -22 12 -27 14 -2 27
-2 30 1 9 10 5 43 -5 37 -5 -3 -7 -13 -4 -23 5 -15 4 -15 -6 1 -9 14 -9 22 0
33 13 15 11 18 -5 6z"/>
<path d="M16404 6282 c3 -5 0 -13 -6 -15 -9 -4 -10 -6 -1 -6 17 -1 25 16 12
25 -7 4 -9 3 -5 -4z"/>
<path d="M6219 6233 c-13 -17 -13 -17 6 -3 11 8 22 16 24 17 2 2 0 3 -6 3 -6
0 -17 -8 -24 -17z"/>
<path d="M16441 6224 c0 -11 3 -14 6 -6 3 7 2 16 -1 19 -3 4 -6 -2 -5 -13z"/>
<path d="M16465 6191 c6 -11 4 -13 -8 -8 -22 8 -21 5 3 -16 19 -16 20 -16 17
3 -2 11 -7 23 -12 27 -4 5 -4 2 0 -6z"/>
<path d="M16420 6150 c-8 -5 -10 -10 -5 -10 6 0 17 5 25 10 8 5 11 10 5 10 -5
0 -17 -5 -25 -10z"/>
<path d="M16592 6098 c3 -7 16 -13 30 -14 20 -1 25 3 20 14 -4 11 -7 12 -10 4
-2 -7 -10 -12 -18 -12 -9 0 -12 5 -9 10 3 6 1 10 -5 10 -7 0 -10 -6 -8 -12z"/>
<path d="M16720 6101 c0 -5 7 -15 17 -22 15 -13 15 -12 4 9 -12 23 -21 28 -21
13z"/>
<path d="M16758 6083 c2 -13 9 -26 14 -29 6 -4 7 2 3 16 -5 15 -4 20 4 16 6
-4 11 -3 11 2 0 5 -8 12 -18 14 -15 4 -18 1 -14 -19z"/>
<path d="M16661 6061 c-11 -7 -9 -10 8 -16 13 -4 25 -4 28 -1 4 3 -2 6 -13 7
-18 0 -18 1 1 9 13 6 15 9 5 9 -8 0 -21 -3 -29 -8z"/>
<path d="M16835 5989 c-11 -16 -1 -19 13 -3 7 8 8 14 3 14 -5 0 -13 -5 -16
-11z"/>
<path d="M16750 5960 c-8 -5 -10 -10 -5 -10 6 0 17 5 25 10 8 5 11 10 5 10 -5
0 -17 -5 -25 -10z"/>
<path d="M16856 5952 c-2 -4 -1 -14 4 -22 7 -11 9 -9 7 8 -1 24 -3 26 -11 14z"/>
<path d="M16908 5943 c6 -2 18 -2 25 0 6 3 1 5 -13 5 -14 0 -19 -2 -12 -5z"/>
<path d="M17080 5910 c17 -22 34 -40 36 -40 2 0 4 18 4 40 0 39 -1 40 -36 40
l-36 0 32 -40z"/>
<path d="M16840 5896 c0 -8 4 -17 9 -20 5 -4 7 3 4 14 -6 23 -13 26 -13 6z"/>
<path d="M17156 5855 c4 -9 15 -20 25 -26 16 -8 19 -6 19 16 0 20 -5 25 -25
25 -18 0 -23 -4 -19 -15z"/>
<path d="M17210 5857 c0 -12 52 -67 64 -67 3 0 6 18 6 40 0 39 -1 40 -35 40
-21 0 -35 -5 -35 -13z"/>
<path d="M17448 5823 c7 -3 16 -2 19 1 4 3 -2 6 -13 5 -11 0 -14 -3 -6 -6z"/>
<path d="M17541 5811 c-17 -13 -24 -28 -23 -51 1 -27 -2 -31 -19 -27 -17 4
-18 3 -8 -9 6 -8 20 -14 31 -14 17 0 20 6 16 44 -3 43 -2 44 24 41 16 -2 28 1
28 7 0 5 -7 7 -16 4 -14 -5 -15 -4 -4 9 17 21 0 19 -29 -4z"/>
<path d="M17080 5780 c8 -5 20 -10 25 -10 6 0 3 5 -5 10 -8 5 -19 10 -25 10
-5 0 -3 -5 5 -10z"/>
<path d="M17152 5781 c-11 -6 -10 -10 4 -15 9 -3 19 -4 22 -1 3 3 0 5 -7 5 -7
0 -9 5 -6 10 7 12 4 12 -13 1z"/>
<path d="M17323 5783 c4 -3 2 -12 -4 -20 -9 -11 -7 -13 12 -11 13 2 29 10 36
18 6 8 15 12 19 7 4 -4 2 -7 -4 -7 -7 0 -12 -5 -12 -10 0 -7 7 -7 21 0 11 7
18 14 15 17 -11 11 -51 10 -58 -1 -5 -8 -8 -7 -8 2 0 6 -5 12 -12 12 -6 0 -8
-3 -5 -7z"/>
<path d="M17483 5780 c-30 -12 -29 -18 2 -12 14 2 25 8 25 13 0 5 -1 9 -2 8
-2 0 -13 -4 -25 -9z"/>
<path d="M17280 5770 c0 -5 4 -10 9 -10 6 0 13 5 16 10 3 6 -1 10 -9 10 -9 0
-16 -4 -16 -10z"/>
<path d="M17606 5752 c2 -41 3 -44 13 -37 5 3 17 -2 25 -11 20 -19 20 -6 1 20
-7 10 -18 15 -24 11 -6 -3 -11 -2 -11 4 0 5 8 11 18 13 15 3 15 5 -3 15 -19
10 -21 9 -19 -15z"/>
<path d="M16936 5757 c3 -10 9 -15 12 -12 3 3 0 11 -7 18 -10 9 -11 8 -5 -6z"/>
<path d="M17060 5750 c8 -5 20 -10 25 -10 6 0 3 5 -5 10 -8 5 -19 10 -25 10
-5 0 -3 -5 5 -10z"/>
<path d="M17423 5741 c-3 -13 -10 -18 -21 -13 -14 5 -15 4 -2 -10 8 -9 17 -12
18 -7 2 5 11 9 20 9 14 0 14 2 3 9 -7 5 -10 14 -7 20 4 6 4 11 1 11 -4 0 -9
-9 -12 -19z"/>
<path d="M17488 5753 c7 -3 16 -2 19 1 4 3 -2 6 -13 5 -11 0 -14 -3 -6 -6z"/>
<path d="M17330 5724 c0 -8 5 -12 10 -9 6 3 10 10 10 16 0 5 -4 9 -10 9 -5 0
-10 -7 -10 -16z"/>
<path d="M17133 5707 c1 -15 5 -27 10 -27 10 0 9 22 -2 39 -7 10 -9 7 -8 -12z"/>
<path d="M17891 5667 c2 -25 1 -43 -3 -40 -5 2 -8 -1 -8 -6 0 -6 4 -11 9 -11
5 0 9 -6 8 -12 -1 -37 5 -44 35 -46 40 -3 68 -28 68 -59 0 -20 5 -23 40 -23
l40 0 0 -40 0 -40 40 0 c38 0 40 -2 40 -30 0 -28 2 -30 40 -30 22 0 40 -4 40
-10 0 -5 18 -10 40 -10 33 0 40 -3 40 -20 0 -17 7 -20 40 -20 33 0 40 -3 40
-20 0 -17 7 -20 39 -20 22 0 42 -5 44 -12 4 -9 6 -8 7 2 0 10 6 6 15 -10 l15
-25 -3 27 c-2 15 -10 35 -19 45 -15 17 -21 53 -9 51 3 -1 13 2 21 5 8 3 24 7
34 9 12 2 20 12 21 25 1 12 14 41 29 63 30 46 30 97 0 86 -8 -3 -12 -1 -9 4 3
5 -4 19 -16 31 -20 20 -21 31 -4 72 11 28 -13 20 -57 -17 -36 -31 -43 -34 -67
-23 -22 10 -50 37 -72 69 -3 5 -27 3 -53 -4 l-48 -13 -27 34 c-24 29 -29 31
-34 17 -4 -10 -5 -22 -2 -27 4 -5 -1 -6 -9 -3 -9 3 -16 2 -16 -4 0 -17 -30
-23 -53 -10 -12 7 -28 13 -34 13 -7 0 -12 3 -10 7 3 8 -34 48 -44 48 -4 0 -14
-6 -21 -12 -22 -22 -46 -20 -89 7 l-41 27 3 -45z m57 -6 c12 -10 19 -21 15
-25 -10 -10 -25 -7 -18 4 3 6 2 10 -4 10 -5 0 -11 -6 -14 -12 -2 -7 -4 -1 -3
14 0 16 1 28 2 28 1 0 11 -8 22 -19z m62 -15 c0 -2 -7 -6 -15 -10 -8 -3 -15
-1 -15 4 0 6 7 10 15 10 8 0 15 -2 15 -4z m350 -30 c0 -2 -8 -10 -17 -17 -16
-13 -17 -12 -4 4 13 16 21 21 21 13z m10 -31 c-7 -9 -15 -13 -17 -11 -6 6 20
36 26 30 2 -2 -2 -10 -9 -19z m-453 -7 c-3 -8 -6 -5 -6 6 -1 11 2 17 5 13 3
-3 4 -12 1 -19z m188 2 c3 -5 -1 -10 -9 -10 -9 0 -16 5 -16 10 0 6 4 10 9 10
6 0 13 -4 16 -10z m285 -10 c0 -5 -5 -10 -11 -10 -5 0 -7 5 -4 10 3 6 8 10 11
10 2 0 4 -4 4 -10z m-262 -17 c-10 -2 -26 -2 -35 0 -10 3 -2 5 17 5 19 0 27
-2 18 -5z"/>
<path d="M17601 5684 c0 -11 3 -14 6 -6 3 7 2 16 -1 19 -3 4 -6 -2 -5 -13z"/>
<path d="M17670 5678 c0 -4 5 -8 11 -8 5 0 8 -4 5 -9 -3 -5 1 -12 9 -15 12 -4
13 -2 5 13 -7 14 -6 21 3 24 6 3 2 4 -10 4 -13 -1 -23 -5 -23 -9z"/>
<path d="M17720 5665 c0 -9 5 -15 11 -13 6 2 11 8 11 13 0 5 -5 11 -11 13 -6
2 -11 -4 -11 -13z"/>
<path d="M17176 5651 c-3 -5 1 -11 9 -14 9 -4 12 -1 8 9 -6 16 -10 17 -17 5z"/>
<path d="M17740 5644 l-25 -14 33 4 c31 4 45 -8 20 -16 -20 -7 50 -68 77 -68
14 0 25 4 25 9 0 5 -9 7 -19 4 -22 -6 -70 25 -71 45 0 10 4 9 16 -2 8 -9 19
-16 24 -16 5 0 -2 11 -15 25 -14 13 -25 29 -25 35 0 14 -10 12 -40 -6z"/>
<path d="M17340 5640 c-9 -6 -10 -10 -3 -10 6 0 15 5 18 10 8 12 4 12 -15 0z"/>
<path d="M17840 5585 c-9 -10 -9 -15 -1 -15 6 0 11 5 11 11 0 5 4 8 9 4 5 -3
12 -1 16 5 10 16 -21 12 -35 -5z"/>
<path d="M17881 5564 c0 -11 3 -14 6 -6 3 7 2 16 -1 19 -3 4 -6 -2 -5 -13z"/>
<path d="M18533 5205 c0 -18 5 -31 10 -28 5 3 7 14 4 24 -6 21 8 26 16 7 4
-10 6 -10 6 0 1 9 5 10 20 0 15 -9 23 -9 35 1 9 8 16 17 16 22 0 12 -41 11
-59 0 -9 -6 -22 -6 -32 0 -15 7 -17 4 -16 -26z"/>
<path d="M18486 5175 c-5 -21 -12 -25 -46 -25 -22 0 -40 -4 -40 -10 0 -15 80
-13 81 3 1 6 5 -1 10 -18 7 -27 8 -25 4 10 -4 39 -4 39 10 15 13 -22 14 -23
14 -5 0 11 -6 28 -13 38 -13 16 -14 16 -20 -8z"/>
<path d="M18521 5113 c-1 -6 -4 -20 -7 -30 -5 -17 -5 -17 6 0 6 10 9 23 6 30
-3 9 -5 9 -5 0z"/>
<path d="M18655 5042 c19 -23 19 -23 -1 -16 -19 7 -19 7 0 -14 22 -26 28 -28
20 -7 -10 26 3 16 25 -17 11 -18 21 -28 21 -22 0 6 -9 23 -20 37 -13 16 -18
32 -13 44 6 15 4 16 -8 6 -12 -10 -18 -10 -29 0 -8 6 -6 2 5 -11z"/>
<path d="M18600 5041 c0 -5 5 -13 10 -16 6 -3 10 -2 10 4 0 5 -4 13 -10 16 -5
3 -10 2 -10 -4z"/>
<path d="M18696 4875 c-9 -26 -7 -32 5 -12 6 10 9 21 6 23 -2 3 -7 -2 -11 -11z"/>
<path d="M18705 4741 c-3 -5 -2 -12 3 -15 5 -3 9 1 9 9 0 17 -3 19 -12 6z"/>
<path d="M18530 4333 c-44 -14 -60 -27 -55 -44 7 -21 -39 -48 -128 -74 -31 -9
-61 -24 -67 -33 -5 -10 -10 -12 -10 -4 0 25 -21 11 -38 -25 -13 -28 -24 -39
-42 -40 -14 -1 -19 1 -12 3 24 10 12 19 -26 18 -64 -1 -74 -3 -66 -16 5 -7 2
-9 -9 -5 -8 3 -28 2 -43 -2 l-28 -7 32 -13 c18 -7 32 -16 32 -20 0 -3 -18 -15
-39 -27 l-38 -21 3 21 c3 12 2 15 -2 8 -3 -6 -10 -10 -15 -6 -16 9 -10 -12 10
-34 16 -19 29 -22 95 -22 44 0 76 -4 76 -10 0 -17 77 -12 84 6 3 9 12 14 19
11 15 -5 39 18 29 29 -4 4 -1 4 6 0 7 -4 10 -11 7 -16 -7 -12 5 -41 15 -35 5
3 11 1 15 -5 8 -13 25 -13 25 0 0 6 -7 10 -15 10 -17 0 -26 31 -23 76 2 21 7
30 16 26 7 -2 20 4 28 14 9 11 13 13 9 6 -5 -9 1 -11 22 -8 26 5 108 84 98 95
-10 9 32 28 64 29 18 0 35 2 37 4 7 7 -8 48 -16 43 -5 -3 -6 4 -3 14 5 20 -12
62 -25 60 -4 0 -14 -3 -22 -6z m-136 -129 c3 -8 2 -12 -4 -9 -6 3 -10 10 -10
16 0 14 7 11 14 -7z m-257 -80 c-3 -3 -12 -4 -19 -1 -8 3 -5 6 6 6 11 1 17 -2
13 -5z m120 0 c-3 -3 -12 -4 -19 -1 -8 3 -5 6 6 6 11 1 17 -2 13 -5z m18 -104
c3 -5 1 -10 -4 -10 -6 0 -11 5 -11 10 0 6 2 10 4 10 3 0 8 -4 11 -10z"/>
<path d="M13975 4116 c-39 -17 -51 -33 -59 -77 -10 -57 -30 -67 -160 -85 -152
-19 -188 -34 -223 -89 -31 -49 -65 -70 -91 -56 -9 5 -39 32 -67 60 -54 56 -71
60 -131 35 -36 -15 -42 -15 -86 1 -37 13 -51 14 -69 5 -18 -10 -30 -8 -71 11
-42 20 -52 21 -70 10 -18 -11 -27 -8 -74 24 -29 20 -57 34 -62 31 -5 -3 -12
-20 -16 -37 -5 -27 -9 -31 -31 -27 -14 3 -25 1 -25 -4 0 -6 -21 -34 -46 -64
-45 -52 -48 -54 -96 -54 -47 0 -52 -3 -114 -63 -61 -60 -64 -65 -64 -111 0
-40 -3 -49 -20 -53 -22 -6 -96 -146 -93 -174 3 -23 -62 -170 -85 -194 -11 -11
-27 -26 -36 -33 -10 -8 -16 -28 -16 -54 0 -29 -6 -47 -22 -63 -13 -12 -31 -36
-41 -54 -15 -29 -21 -32 -45 -27 -77 20 -82 19 -82 -3 0 -26 -34 -41 -93 -41
-23 -1 -53 -7 -67 -14 l-24 -14 36 -33 c20 -19 49 -44 65 -56 17 -12 34 -37
40 -55 7 -26 14 -32 31 -31 21 3 22 -1 22 -81 0 -83 0 -84 34 -114 19 -16 65
-40 103 -52 135 -45 159 -69 118 -118 -14 -17 -25 -32 -25 -35 0 -3 16 -15 36
-26 29 -17 34 -24 24 -36 -6 -7 -26 -15 -43 -17 -44 -4 -38 -20 16 -38 36 -12
47 -20 51 -42 5 -27 7 -28 73 -28 l68 0 20 -38 c11 -20 27 -37 35 -37 8 0 28
25 45 55 21 37 38 56 53 58 26 4 142 -63 142 -82 0 -7 -22 -16 -52 -22 -45 -8
-54 -13 -56 -32 -5 -31 62 -96 144 -139 92 -49 96 -57 46 -103 -46 -41 -52
-64 -23 -80 27 -14 69 -13 140 6 60 15 62 15 173 -17 140 -40 229 -44 273 -13
28 20 36 21 124 13 52 -5 120 -16 151 -24 127 -33 200 -11 276 82 61 76 95
104 159 134 82 37 224 77 302 85 64 7 64 7 92 -26 l28 -34 41 17 c43 17 72 14
72 -8 0 -23 18 -27 49 -10 42 21 47 20 72 -25 26 -46 55 -59 150 -67 l67 -6 7
72 c4 39 4 107 0 150 -5 60 -3 85 8 107 10 20 13 53 11 109 -3 80 -3 80 26 97
l30 17 -16 40 c-8 22 -14 50 -12 63 3 20 9 23 43 23 l40 0 -4 -40 c-3 -35 -1
-38 13 -25 15 12 18 10 23 -9 5 -21 10 -22 57 -16 79 11 100 24 108 70 13 72
9 135 -7 141 -10 4 -13 13 -10 25 9 28 -21 76 -56 88 -42 15 -76 5 -126 -36
-25 -20 -58 -36 -80 -39 -60 -9 -68 -13 -55 -26 21 -21 13 -28 -31 -28 -72 0
-146 27 -160 58 -7 15 -32 47 -56 71 -40 39 -43 45 -28 56 23 16 22 31 -10
136 l-27 90 22 132 c16 102 19 143 12 180 -15 77 -58 144 -135 211 -119 104
-145 134 -145 167 0 22 -6 32 -25 39 -34 13 -87 90 -125 182 -48 117 -80 162
-129 181 -49 20 -114 21 -156 3z"/>
<path d="M17874 3978 l-19 -23 23 19 c21 18 27 26 19 26 -2 0 -12 -10 -23 -22z"/>
<path d="M18370 3985 c0 -8 4 -15 9 -15 5 0 11 7 15 15 3 9 0 15 -9 15 -8 0
-15 -7 -15 -15z"/>
<path d="M17950 3975 c-11 -13 -10 -14 4 -9 9 3 16 10 16 15 0 13 -6 11 -20
-6z"/>
<path d="M17896 3967 c-16 -12 -16 -13 2 -13 10 0 19 6 19 13 0 7 -1 13 -2 13
-1 0 -9 -6 -19 -13z"/>
<path d="M18155 3940 c-4 -6 -3 -10 2 -9 4 1 16 -1 26 -6 13 -5 24 -2 35 11
16 17 16 17 -1 4 -15 -11 -23 -11 -37 -2 -13 8 -21 8 -25 2z"/>
<path d="M18089 3863 c-13 -16 -12 -17 4 -4 16 13 21 21 13 21 -2 0 -10 -8
-17 -17z"/>
<path d="M18086 3817 c3 -10 9 -15 12 -12 3 3 0 11 -7 18 -10 9 -11 8 -5 -6z"/>
<path d="M18254 3738 l-19 -23 23 19 c21 18 27 26 19 26 -2 0 -12 -10 -23 -22z"/>
<path d="M18405 3690 c-8 -13 3 -30 18 -29 9 0 9 2 0 6 -7 2 -13 9 -13 14 0 4
7 6 15 3 8 -4 15 -4 15 -1 0 10 -30 16 -35 7z"/>
<path d="M1110 3485 l-35 -14 33 2 c17 1 32 4 32 8 0 4 8 10 18 12 11 3 12 5
2 5 -8 0 -31 -6 -50 -13z"/>
<path d="M1151 3463 c0 -11 3 -13 6 -5 2 6 9 10 14 6 5 -3 9 0 9 5 0 6 -7 11
-15 11 -8 0 -15 -8 -14 -17z"/>
<path d="M1225 3460 c-3 -5 -1 -10 4 -10 6 0 11 5 11 10 0 6 -2 10 -4 10 -3 0
-8 -4 -11 -10z"/>
<path d="M1170 3445 c1 -20 37 -58 51 -52 10 4 9 6 -3 6 -10 1 -18 9 -18 18 0
13 3 14 12 5 7 -7 28 -12 48 -12 26 0 31 -3 20 -10 -8 -5 -10 -10 -4 -10 6 0
17 6 23 14 9 11 6 15 -16 21 -21 5 -24 8 -12 16 12 7 11 9 -3 9 -10 0 -18 -7
-18 -15 0 -17 -16 -20 -25 -4 -4 6 -14 8 -23 4 -8 -3 -19 0 -24 7 -4 7 -8 9
-8 3z"/>
<path d="M1154 3423 c2 -12 -1 -24 -8 -27 -6 -2 0 -5 13 -5 17 -1 21 2 14 12
-6 6 -13 19 -17 27 -3 8 -4 5 -2 -7z"/>
<path d="M1322 3420 c3 -8 -2 -20 -11 -27 -14 -11 -14 -12 -1 -13 30 0 39 14
23 35 -9 12 -13 14 -11 5z"/>
<path d="M1078 3313 c42 -4 42 -4 42 -44 0 -21 5 -39 10 -39 6 0 10 18 10 39
0 44 -11 52 -68 49 -36 -1 -36 -2 6 -5z"/>
<path d="M1435 3251 c-3 -5 -2 -12 3 -15 5 -3 9 1 9 9 0 17 -3 19 -12 6z"/>
<path d="M3796 3211 c-15 -17 -15 -19 -1 -25 28 -10 35 -7 35 19 0 30 -11 32
-34 6z"/>
<path d="M1760 3206 c0 -2 8 -10 18 -17 15 -13 16 -12 3 4 -13 16 -21 21 -21
13z"/>
<path d="M1628 3183 c7 -3 16 -2 19 1 4 3 -2 6 -13 5 -11 0 -14 -3 -6 -6z"/>
<path d="M1899 3163 c-13 -16 -12 -17 4 -4 16 13 21 21 13 21 -2 0 -10 -8 -17
-17z"/>
<path d="M1200 3140 c0 -5 18 -10 40 -10 22 0 40 5 40 10 0 6 -18 10 -40 10
-22 0 -40 -4 -40 -10z"/>
<path d="M1384 3125 c-10 -42 1 -48 19 -11 14 31 14 36 2 36 -8 0 -17 -11 -21
-25z"/>
<path d="M2087 3013 c5 -12 3 -14 -8 -8 -8 4 -11 4 -6 0 4 -5 16 -9 27 -10 19
-2 19 -1 3 17 -20 22 -24 23 -16 1z"/>
<path d="M1645 2948 c-4 -10 -13 -18 -21 -18 -8 0 -14 -4 -14 -10 0 -5 5 -10
11 -10 17 0 41 29 36 43 -3 8 -7 6 -12 -5z"/>
<path d="M625 2906 c-38 -12 -45 -20 -31 -33 3 -4 6 -1 6 6 0 7 4 10 8 7 13
-8 82 16 76 26 -6 10 -8 9 -59 -6z"/>
<path d="M9366 2771 c29 -54 35 -59 53 -37 13 16 -7 43 -52 71 l-27 18 26 -52z"/>
<path d="M9219 2783 c-13 -16 -12 -17 4 -4 16 13 21 21 13 21 -2 0 -10 -8 -17
-17z"/>
<path d="M1698 2723 c12 -2 32 -2 45 0 12 2 2 4 -23 4 -25 0 -35 -2 -22 -4z"/>
<path d="M2146 2575 c4 -8 8 -15 10 -15 2 0 4 7 4 15 0 8 -4 15 -10 15 -5 0
-7 -7 -4 -15z"/>
<path d="M8855 2480 c10 -11 20 -20 23 -20 3 0 -3 9 -13 20 -10 11 -20 20 -23
20 -3 0 3 -9 13 -20z"/>
<path d="M2320 2310 c0 -22 5 -40 10 -40 6 0 10 18 10 40 0 22 -4 40 -10 40
-5 0 -10 -18 -10 -40z"/>
<path d="M15050 2335 c0 -8 7 -15 16 -15 14 0 14 3 4 15 -7 8 -14 15 -16 15
-2 0 -4 -7 -4 -15z"/>
<path d="M7411 2295 c4 -3 19 -8 35 -11 16 -3 26 -2 23 1 -4 3 -19 8 -35 11
-16 3 -26 2 -23 -1z"/>
<path d="M7347 2268 c-9 -6 -9 -8 1 -8 7 0 10 -5 7 -11 -4 -6 -13 -8 -21 -5
-8 3 -17 -1 -21 -10 -8 -21 2 -27 24 -16 15 9 19 7 20 -8 1 -15 -4 -17 -24
-14 -14 3 -36 -2 -49 -11 -14 -9 -29 -13 -34 -10 -5 3 -16 -10 -26 -30 -9 -19
-20 -35 -24 -35 -4 0 -6 -19 -5 -42 2 -31 1 -38 -6 -25 -6 9 -7 21 -4 27 3 5
-7 3 -22 -5 -15 -8 -34 -15 -41 -15 -7 0 -11 -4 -8 -9 3 -5 0 -9 -7 -8 -45 1
-67 -5 -67 -18 0 -19 -46 -20 -66 -1 -7 8 -23 12 -34 9 -11 -3 -20 0 -20 6 0
7 -12 3 -27 -8 -16 -11 -47 -22 -71 -24 -23 -2 -46 -7 -49 -11 -4 -3 -3 -6 1
-6 4 0 2 -9 -5 -21 -10 -19 -9 -20 13 -14 22 7 22 7 3 -8 -19 -15 -19 -16 -1
-36 11 -12 14 -21 8 -21 -6 0 -18 13 -26 29 -15 27 -34 41 -59 41 -13 0 -52
-59 -49 -73 1 -4 -10 -1 -25 7 -26 13 -28 13 -45 -15 -9 -15 -15 -37 -13 -49
2 -11 0 -18 -4 -15 -5 3 -11 -2 -15 -10 -3 -8 -12 -15 -21 -15 -8 0 -15 -5
-15 -10 0 -10 -30 -8 -62 5 -14 5 -18 2 -18 -13 0 -24 -46 -57 -56 -40 -4 6
-3 8 4 4 6 -3 13 -2 17 4 3 6 -1 13 -9 16 -9 3 -14 9 -12 13 3 4 -4 8 -15 8
-18 2 -19 0 -7 -14 8 -10 8 -14 1 -10 -6 4 -13 3 -15 -3 -2 -6 -15 -6 -33 -2
-27 8 -28 9 -11 19 17 9 16 11 -8 15 -21 4 -26 2 -22 -9 3 -8 1 -11 -4 -8 -5
3 -18 1 -28 -4 -13 -7 -22 -7 -30 1 -7 7 -12 8 -12 2 0 -6 5 -15 11 -21 7 -7
6 -12 -5 -16 -11 -4 -13 -1 -9 10 4 10 2 14 -5 9 -6 -3 -14 -1 -18 5 -4 7 -3
9 3 6 16 -10 24 19 14 46 -12 30 -46 52 -102 67 -52 14 -61 25 -46 57 8 18 7
27 -3 36 -10 9 -13 9 -17 -1 -3 -6 -8 -10 -13 -7 -4 3 -29 6 -54 7 -26 0 -42
4 -37 7 15 9 9 50 -7 56 -20 7 -42 -13 -35 -33 3 -10 1 -13 -4 -7 -4 6 -23 11
-40 10 -18 0 -33 3 -33 7 0 4 -9 10 -20 13 -13 4 -20 15 -20 30 0 21 -7 25
-57 36 -44 10 -67 22 -95 51 -27 28 -46 38 -68 38 -21 0 -29 -4 -24 -12 5 -7
3 -8 -5 -3 -8 4 -18 -1 -27 -14 -8 -12 -21 -21 -28 -21 -6 0 -28 -15 -47 -32
-31 -29 -42 -33 -80 -30 -48 3 -99 -25 -99 -54 0 -9 -5 -12 -12 -8 -8 5 -9 2
-5 -10 4 -9 3 -15 -2 -12 -14 9 -52 -39 -45 -57 4 -10 0 -19 -9 -22 -9 -4 -14
-20 -14 -48 0 -23 -6 -56 -14 -74 -12 -29 -11 -36 9 -72 15 -27 21 -48 16 -65
-4 -17 -2 -26 6 -26 18 0 37 -24 32 -40 -10 -32 -22 -39 -48 -28 -39 18 -47 1
-33 -69 17 -84 9 -108 -51 -138 -62 -31 -108 -47 -238 -79 -116 -29 -146 -43
-199 -89 l-37 -32 -168 3 c-138 3 -173 1 -192 -11 -15 -10 -37 -14 -62 -10
-33 4 -48 -1 -101 -36 -35 -22 -63 -43 -63 -47 0 -3 11 -15 25 -26 40 -31 32
-65 -13 -59 -7 1 -24 -7 -39 -18 -30 -25 -53 -27 -53 -6 0 24 -29 1 -80 -64
-47 -61 -89 -96 -186 -154 -40 -24 -96 -74 -157 -141 l-95 -104 -7 -65 c-8
-74 8 -219 27 -246 7 -9 34 -36 61 -60 26 -24 47 -52 47 -62 0 -18 11 -19 204
-19 l204 0 29 28 c15 16 49 36 74 46 44 17 48 17 73 1 27 -18 36 -59 14 -68
-7 -3 625 -6 1405 -6 1245 -1 1417 1 1417 14 0 8 12 18 26 21 21 6 25 11 19
32 -3 14 -1 38 6 55 11 25 10 31 -4 42 -12 9 -17 27 -17 63 0 54 -17 82 -50
82 -23 0 -34 15 -24 32 5 7 7 28 5 48 -1 24 5 44 19 62 15 20 19 34 14 53 -6
23 -4 26 12 23 10 -2 21 -16 26 -34 11 -44 50 -57 134 -46 6 1 47 25 90 54 44
29 82 51 87 50 4 -1 7 3 7 9 0 5 4 8 9 5 5 -3 21 10 35 29 31 40 48 44 67 14
8 -11 26 -22 40 -22 19 -2 25 -6 21 -20 -4 -16 13 -23 42 -18 8 2 6 -17 -5
-58 -2 -9 5 -17 16 -19 35 -7 39 -21 9 -32 -22 -9 -25 -13 -14 -20 9 -5 20 -4
30 3 12 9 13 9 3 -3 -10 -11 -10 -17 3 -32 15 -16 15 -18 1 -23 -20 -8 -12
-77 16 -127 18 -33 19 -41 7 -65 -7 -16 -12 -32 -11 -38 2 -5 -1 -7 -5 -2 -10
10 -84 -63 -84 -83 0 -8 7 -23 14 -33 12 -16 54 -17 620 -17 532 0 606 2 606
15 0 8 5 15 10 15 6 0 10 18 10 40 0 38 2 40 30 40 28 0 30 2 30 40 l0 40 40
0 c39 0 40 1 40 35 0 34 -1 35 -37 35 -21 0 -43 4 -50 8 -16 10 -20 89 -5 104
9 9 12 8 12 -5 0 -12 8 -17 25 -17 22 0 24 3 16 19 -6 10 -17 21 -26 25 -8 3
-15 12 -15 21 0 20 -39 19 -62 -2 -17 -15 -18 -15 -18 0 0 13 -9 17 -40 17
-22 0 -40 -4 -40 -9 0 -5 -21 -11 -46 -13 -55 -4 -76 13 -50 40 9 10 16 28 16
40 0 13 8 22 23 25 l22 4 -22 8 c-13 4 -23 11 -23 16 0 5 -18 9 -40 9 -22 0
-40 5 -40 11 0 6 -18 9 -45 8 -25 -2 -50 2 -57 9 -7 7 -22 12 -35 12 -28 0
-32 -34 -6 -62 15 -17 14 -18 -40 -18 l-57 0 0 31 0 32 -56 -6 c-42 -4 -56 -2
-61 9 -3 8 -12 14 -20 14 -11 0 -4 14 21 44 40 49 43 56 21 56 -8 0 -26 5 -40
12 l-26 12 23 18 23 18 -22 0 c-13 0 -23 -4 -23 -10 0 -6 -47 -10 -120 -10
l-120 0 0 53 0 53 35 -4 c35 -4 35 -4 35 36 0 23 -5 42 -12 45 -8 2 1 12 19
24 38 23 83 85 83 113 0 11 4 20 9 20 12 0 71 59 71 71 0 5 -29 9 -65 9 -37 0
-65 -4 -65 -10 0 -5 -7 -10 -15 -10 -8 0 -15 5 -15 10 0 6 -18 10 -40 10 -31
0 -40 -4 -40 -17 0 -15 -1 -15 -18 0 -13 12 -37 17 -79 17 -63 0 -73 7 -73 51
0 10 -5 19 -11 19 -7 0 -8 -12 -4 -32 5 -25 4 -29 -4 -18 -9 13 -11 12 -12 -5
-1 -17 -2 -16 -9 5 -7 23 -8 23 -9 3 -1 -12 -5 -23 -11 -25 -5 -1 -11 -19 -12
-40 -2 -20 -6 -34 -9 -32 -3 2 -11 -8 -17 -21 -6 -13 -7 -27 -2 -30 4 -3 10 0
12 7 3 8 6 6 10 -4 7 -16 -7 -19 -29 -5 -15 10 -50 -50 -51 -88 -1 -16 -4 -46
-6 -65 -3 -19 0 -41 7 -50 10 -12 10 -13 -3 -4 -11 8 -19 6 -32 -7 -10 -11
-13 -21 -7 -24 13 -9 1 -25 -20 -25 -11 0 -22 -15 -32 -42 -20 -55 -48 -61
-79 -19 -12 17 -27 31 -34 31 -21 0 -99 72 -86 80 6 4 12 17 13 28 1 16 6 20
18 17 10 -3 20 -1 24 5 5 9 -7 12 -50 13 -5 1 -18 9 -28 19 -17 18 -16 19 6
27 25 10 60 55 50 65 -3 3 -14 1 -23 -4 -13 -7 -21 -5 -30 5 -7 8 -16 13 -20
10 -4 -2 -5 7 -2 21 3 17 9 23 20 19 12 -4 12 -3 3 9 -9 11 -9 16 0 22 8 4 9
3 5 -4 -9 -14 3 -15 23 -3 12 8 12 12 2 25 -16 19 -41 21 -41 4 0 -6 -2 -9 -4
-7 -3 3 0 22 5 44 6 22 11 45 11 52 1 6 8 9 16 5 12 -4 12 -1 -2 19 -8 14 -15
39 -13 57 2 28 4 30 14 15 7 -9 16 -14 19 -10 4 4 1 13 -6 22 -11 13 -10 14 5
9 13 -5 16 -4 11 5 -5 7 2 20 16 33 12 11 22 23 21 27 -1 4 4 8 12 8 7 0 11
-7 8 -16 -3 -9 9 -1 27 17 33 34 60 39 67 12 3 -9 1 -11 -4 -5 -7 10 -20 11
-40 5 -5 -1 3 -5 17 -9 20 -6 31 -1 54 21 35 33 36 33 68 8 24 -18 38 -18 38
2 0 4 -8 8 -19 8 -10 0 -24 7 -31 15 -12 15 0 22 14 8 3 -4 13 -8 21 -9 11 -2
14 5 10 26 -3 18 1 34 11 44 8 9 13 24 10 34 -5 15 0 18 29 19 22 0 35 -4 35
-12 0 -7 7 -15 15 -19 22 -8 18 17 -5 34 -25 18 -26 36 -2 49 16 10 16 10 0
11 -11 0 -18 8 -18 20 0 19 -7 20 -120 20 -73 0 -120 -4 -120 -10 0 -6 -36
-10 -89 -10 l-90 0 -4 43 -4 42 -1 -42 c-2 -35 -6 -43 -21 -43 -15 0 -19 11
-25 61 -11 107 -17 99 74 99 l80 0 0 40 0 40 40 0 40 0 0 40 c0 28 4 40 14 40
8 0 16 7 20 15 3 8 10 15 16 15 5 0 10 -7 10 -15 0 -8 5 -15 10 -15 6 0 10 7
10 15 0 8 -4 15 -10 15 -5 0 -10 11 -10 25 0 14 5 25 10 25 6 0 10 18 10 40
l0 40 40 0 40 0 1 53 c1 59 -1 100 -7 106 -7 7 -156 6 -167 -1z m-73 -135 c4
-17 0 -19 -22 -15 l-27 6 25 7 c14 4 19 7 12 8 -7 1 -10 6 -7 12 9 13 15 7 19
-18z m-364 -128 c-10 -12 -10 -15 4 -15 9 0 16 5 16 10 0 6 5 10 11 10 8 0 8
-4 0 -14 -13 -16 -54 -29 -45 -15 3 5 0 9 -5 9 -6 0 -11 -4 -11 -10 0 -5 -6
-10 -12 -10 -7 0 -1 11 12 24 27 27 50 35 30 11z m-73 -21 c-3 -3 -12 -4 -19
-1 -8 3 -5 6 6 6 11 1 17 -2 13 -5z m203 -4 c0 -5 -17 -10 -37 -9 -31 0 -34 2
-18 9 28 12 55 12 55 0z m-92 -14 c-7 -8 -17 -12 -22 -9 -4 3 -2 9 5 14 22 13
31 11 17 -5z m-233 -35 c-3 -5 -1 -12 5 -16 5 -3 10 -1 10 5 0 6 5 8 10 5 6
-4 5 -12 -4 -21 -16 -16 -30 -19 -21 -5 3 5 1 12 -5 16 -13 8 -13 25 1 25 5 0
8 -4 4 -9z m-581 -100 c4 -5 -4 -7 -16 -3 -16 4 -19 2 -13 -8 5 -9 4 -11 -3
-6 -7 4 -12 11 -12 17 0 12 37 12 44 0z m499 -26 c-3 -9 -8 -14 -10 -11 -3 3
-2 9 2 15 9 16 15 13 8 -4z m-77 -73 c0 -10 -8 -19 -17 -19 -16 -2 -17 0 -1
18 9 10 17 19 17 19 0 0 1 -8 1 -18z m-82 -14 c-2 -3 -13 -6 -24 -5 -24 2 -18
13 9 13 11 0 18 -4 15 -8z m946 -262 c0 -14 -31 -46 -45 -46 -14 0 -15 30 -1
45 12 13 46 14 46 1z m18 -32 c-17 -19 -34 -31 -37 -28 -3 3 3 13 15 23 11 9
18 23 16 30 -3 8 0 11 7 7 6 -4 11 -2 11 4 0 6 4 8 10 5 5 -3 -5 -21 -22 -41z
m65 32 c4 -10 1 -13 -9 -9 -7 3 -14 9 -14 14 0 14 17 10 23 -5z m-240 -93 c-7
-2 -19 -2 -25 0 -7 3 -2 5 12 5 14 0 19 -2 13 -5z m624 -510 c-4 -17 -4 -17
-12 0 -4 9 -4 25 0 35 8 16 8 16 12 0 3 -10 3 -26 0 -35z m433 -433 c0 -12
-77 -12 -105 0 -14 6 -2 9 43 9 35 1 62 -3 62 -9z m-3450 -65 c0 -8 -8 -15
-17 -16 -14 0 -12 -3 5 -10 24 -9 22 -29 -4 -29 -25 0 -15 -29 14 -36 86 -19
87 -20 90 -45 2 -19 -13 -40 -71 -98 -77 -75 -123 -111 -145 -111 -7 0 -17 13
-23 28 -8 22 -19 30 -52 38 l-42 9 1 52 c2 45 -1 53 -19 59 -15 5 -26 0 -38
-15 -20 -25 -39 -28 -39 -6 0 9 -11 20 -25 25 -27 10 -33 41 -12 58 6 5 32 15
57 22 24 7 67 24 95 38 70 35 122 51 178 51 35 1 47 -3 47 -14z m400 -15 c22
-12 50 -80 50 -120 0 -25 -4 -30 -24 -30 -25 0 -39 11 -75 56 -13 17 -33 28
-59 31 -38 5 -39 6 -39 45 l0 40 65 -6 c36 -4 73 -11 82 -16z m3237 -236 c-3
-3 -12 -4 -19 -1 -8 3 -5 6 6 6 11 1 17 -2 13 -5z"/>
<path d="M7380 1439 c0 -5 5 -7 10 -4 6 3 10 8 10 11 0 2 -4 4 -10 4 -5 0 -10
-5 -10 -11z"/>
<path d="M4740 335 c-23 -13 -23 -14 -4 -15 11 0 25 5 32 12 9 9 12 9 12 1 0
-16 -33 -25 -63 -18 -16 4 -41 -2 -75 -19 -27 -14 -65 -28 -83 -31 -55 -10
-77 -38 -39 -50 11 -3 20 -14 20 -23 1 -14 5 -12 21 7 17 21 24 23 47 15 23
-8 27 -15 29 -54 1 -25 2 -50 2 -57 1 -6 18 -13 38 -15 32 -2 41 -8 54 -36
l15 -34 39 34 c76 64 146 139 140 148 -3 6 -2 10 4 10 6 0 8 6 5 14 -7 17 -62
27 -69 12 -3 -7 -7 -7 -11 1 -3 7 -15 11 -27 9 -12 -1 -17 -1 -10 1 7 2 9 11
6 19 -3 7 -10 11 -15 8 -6 -4 -6 1 0 13 6 11 7 25 2 33 -5 8 -6 18 -4 22 8 13
-39 8 -66 -7z m-75 -55 c3 -6 -1 -7 -9 -4 -18 7 -21 14 -7 14 6 0 13 -4 16
-10z m222 -73 c0 -7 -9 -13 -19 -13 -18 0 -18 1 -2 13 10 7 18 13 19 13 1 0 2
-6 2 -13z"/>
<path d="M5146 323 c1 -32 16 -40 37 -18 9 8 22 12 30 9 8 -3 18 -1 22 5 3 7
0 8 -9 5 -9 -3 -16 -2 -16 3 0 5 -8 9 -17 9 -10 1 -25 4 -33 8 -12 5 -15 0
-14 -21z"/>
<path d="M5250 279 c0 -5 5 -7 12 -3 6 4 8 3 5 -2 -3 -6 -1 -16 4 -24 8 -13
10 -13 18 0 6 9 6 19 -1 27 -13 16 -38 17 -38 2z"/>
<path d="M5247 245 c27 -34 53 -46 53 -24 0 5 -4 8 -9 4 -5 -3 -19 8 -31 25
-12 16 -26 30 -31 30 -5 0 3 -16 18 -35z"/>
<path d="M7538 2253 c6 -2 12 -9 12 -14 0 -6 -6 -7 -12 -3 -9 5 -9 2 1 -9 11
-13 11 -17 1 -17 -8 0 -10 -3 -7 -6 4 -4 13 -1 22 6 17 14 4 51 -18 49 -9 0
-9 -2 1 -6z"/>
<path d="M7677 2153 c-11 -10 -8 -20 8 -26 8 -4 17 -2 20 4 4 5 1 8 -7 7 -7
-2 -12 3 -10 10 2 13 -1 15 -11 5z"/>
<path d="M5950 2062 c0 -12 34 -42 46 -42 5 0 1 5 -8 11 -10 5 -18 17 -18 24
0 8 -4 15 -10 15 -5 0 -10 -4 -10 -8z"/>
<path d="M7830 2039 c0 -5 5 -7 10 -4 6 3 10 8 10 11 0 2 -4 4 -10 4 -5 0 -10
-5 -10 -11z"/>
<path d="M7005 2020 c-3 -5 1 -10 9 -10 9 0 16 5 16 10 0 6 -4 10 -9 10 -6 0
-13 -4 -16 -10z"/>
<path d="M8836 2021 c-3 -4 6 -7 19 -7 14 0 22 2 19 5 -8 8 -34 10 -38 2z"/>
<path d="M7760 1779 c0 -5 5 -7 10 -4 6 3 10 8 10 11 0 2 -4 4 -10 4 -5 0 -10
-5 -10 -11z"/>
<path d="M7925 1720 c-3 -6 1 -7 9 -4 18 7 21 14 7 14 -6 0 -13 -4 -16 -10z"/>
<path d="M7956 1674 c-4 -10 -2 -13 6 -8 7 5 9 2 5 -9 -3 -8 0 -18 7 -20 9 -4
11 2 8 19 -6 30 -18 39 -26 18z"/>
<path d="M8002 1560 c-9 -15 -9 -21 1 -26 6 -4 9 -4 5 1 -4 4 -3 14 4 22 6 7
9 15 7 18 -3 2 -10 -4 -17 -15z"/>
<path d="M7648 1525 c-6 -30 -3 -43 8 -33 3 4 4 19 2 35 l-3 28 -7 -30z"/>
<path d="M7570 1502 c0 -11 -7 -23 -16 -26 -12 -5 -14 -14 -9 -45 5 -29 2 -42
-10 -55 -15 -14 -19 -15 -38 -1 -29 21 -54 19 -69 -5 -9 -13 -24 -20 -46 -20
-18 0 -50 -11 -71 -24 -21 -14 -42 -22 -45 -19 -3 4 -6 -3 -6 -15 0 -12 -9
-31 -20 -42 -20 -20 -20 -21 -3 -47 13 -20 14 -28 5 -31 -16 -5 -42 -31 -42
-42 0 -5 14 -17 30 -27 17 -9 30 -22 30 -28 0 -6 -13 -21 -30 -35 -39 -32 -38
-40 5 -40 45 0 47 -25 6 -69 -19 -20 -25 -33 -18 -36 7 -2 26 -8 42 -13 36
-11 39 -34 5 -42 -41 -9 -37 -42 8 -74 21 -14 45 -24 53 -21 10 4 18 -5 24
-27 12 -37 32 -48 41 -21 18 56 28 73 41 73 13 0 13 3 3 15 -10 12 -8 16 13
24 26 10 32 24 43 116 5 48 15 70 47 112 35 47 41 62 50 137 9 79 9 86 -12
120 l-23 36 22 74 c12 40 20 81 19 91 -5 26 -29 31 -29 7z"/>
<path d="M7671 1503 c-1 -27 -18 -38 -36 -23 -11 9 -12 4 -8 -32 7 -51 13 -63
13 -24 0 16 9 35 21 45 13 11 19 24 16 36 -4 18 -5 18 -6 -2z"/>
<path d="M7943 1454 c-8 -8 -9 -15 -3 -19 6 -3 10 0 11 7 0 7 4 4 8 -6 7 -19
8 -19 13 1 7 26 -12 36 -29 17z"/>
<path d="M7650 1434 c0 -10 5 -26 10 -34 8 -11 9 -7 4 15 -8 37 -14 45 -14 19z"/>
<path d="M7857 1409 c7 -7 15 -10 18 -7 3 3 -2 9 -12 12 -14 6 -15 5 -6 -5z"/>
<path d="M7920 1411 c0 -6 -8 -11 -17 -12 -10 0 -13 -3 -6 -5 18 -8 49 11 34
20 -6 4 -11 2 -11 -3z"/>
<path d="M8046 1406 c3 -8 13 -12 27 -8 20 5 20 6 1 13 -29 11 -34 10 -28 -5z"/>
<path d="M7989 1393 c-12 -16 -12 -17 1 -7 8 6 22 14 30 17 13 5 12 6 -1 6 -9
1 -23 -7 -30 -16z"/>
<path d="M7586 1378 c-8 -31 -8 -43 1 -34 8 8 16 56 10 56 -3 0 -7 -10 -11
-22z"/>
<path d="M7787 1393 c-4 -3 -7 -16 -7 -29 0 -29 -16 -34 -110 -34 -43 0 -82
-5 -85 -10 -4 -6 -3 -10 2 -9 22 4 32 -3 36 -23 l4 -23 2 23 c0 12 6 22 11 22
13 0 2 -72 -13 -81 -5 -4 -5 -9 2 -13 6 -4 11 -2 11 3 0 6 10 11 21 11 20 0
21 4 15 40 l-6 40 47 1 c27 1 68 1 92 1 41 0 42 0 20 12 -16 8 -26 9 -31 2 -4
-6 -10 -7 -14 -3 -4 4 -3 12 3 18 6 6 9 18 6 25 -3 8 0 14 6 14 6 0 11 5 11
10 0 11 -13 13 -23 3z"/>
<path d="M8070 1380 c-9 -6 -10 -10 -3 -10 6 0 15 5 18 10 8 12 4 12 -15 0z"/>
<path d="M7810 1363 c0 -18 18 -35 33 -31 12 2 10 7 -9 21 -13 10 -24 14 -24
10z"/>
<path d="M8015 1320 c-3 -5 -2 -10 4 -10 5 0 13 5 16 10 3 6 2 10 -4 10 -5 0
-13 -4 -16 -10z"/>
<path d="M8071 1321 c-10 -7 -7 -9 12 -8 14 1 23 5 20 10 -6 9 -15 9 -32 -2z"/>
<path d="M8169 1223 c-13 -16 -12 -17 4 -4 16 13 21 21 13 21 -2 0 -10 -8 -17
-17z"/>
<path d="M8180 1205 c-7 -9 -11 -17 -9 -20 3 -2 10 5 17 15 14 24 10 26 -8 5z"/>
<path d="M4609 1183 c-13 -16 -12 -17 4 -4 16 13 21 21 13 21 -2 0 -10 -8 -17
-17z"/>
<path d="M8175 1109 c-4 -6 -5 -12 -2 -15 2 -3 7 2 10 11 7 17 1 20 -8 4z"/>
<path d="M8338 1083 c6 -2 10 -8 8 -12 -3 -4 1 -8 9 -8 11 0 12 4 4 14 -6 7
-17 13 -23 12 -7 0 -6 -2 2 -6z"/>
<path d="M3947 1053 c-13 -13 -7 -33 11 -33 13 0 14 2 3 9 -7 5 -10 14 -7 20
8 12 3 15 -7 4z"/>
<path d="M8370 1011 c0 -6 4 -13 10 -16 6 -3 7 1 4 9 -7 18 -14 21 -14 7z"/>
<path d="M3969 1002 c9 -7 10 -11 2 -15 -7 -4 -8 -5 -1 -3 16 2 14 20 -2 24
-10 3 -10 2 1 -6z"/>
<path d="M3863 978 c1 -7 -3 -12 -9 -11 -6 1 -11 -4 -11 -12 0 -7 6 -11 14 -8
7 3 13 0 13 -6 0 -6 -7 -11 -15 -11 -9 0 -12 -6 -8 -17 5 -12 3 -14 -7 -8 -9
5 -11 4 -6 -3 5 -8 19 0 42 23 19 20 38 33 43 31 9 -6 37 11 30 18 -3 3 -18
-1 -33 -9 -36 -19 -52 -19 -37 -2 6 8 8 17 4 20 -11 11 -23 8 -20 -5z"/>
<path d="M8425 909 c-4 -6 -5 -12 -2 -15 2 -3 7 2 10 11 7 17 1 20 -8 4z"/>
<path d="M3800 895 c-7 -9 -11 -18 -8 -20 3 -3 11 1 18 10 7 9 11 18 8 20 -3
3 -11 -1 -18 -10z"/>
<path d="M3767 871 c3 -11 -4 -28 -16 -40 -21 -21 -17 -28 6 -13 16 10 27 58
15 66 -6 3 -8 -2 -5 -13z"/>
<path d="M8484 865 c-16 -13 -16 -14 -1 -9 9 3 17 2 17 -4 0 -18 28 -21 42 -4
11 15 11 15 -3 4 -13 -10 -18 -10 -28 1 -6 8 -8 17 -4 20 12 13 -3 7 -23 -8z"/>
<path d="M8400 842 c0 -5 7 -9 15 -9 8 0 15 4 15 9 0 4 -7 8 -15 8 -8 0 -15
-4 -15 -8z"/>
<path d="M8450 840 c0 -5 5 -10 11 -10 5 0 7 5 4 10 -3 6 -8 10 -11 10 -2 0
-4 -4 -4 -10z"/>
<path d="M8567 799 c4 -13 8 -18 11 -10 2 7 -1 18 -6 23 -8 8 -9 4 -5 -13z"/>
<path d="M8000 770 c0 -17 7 -20 40 -20 33 0 40 3 40 20 0 17 -7 20 -40 20
-33 0 -40 -3 -40 -20z"/>
<path d="M8400 710 c0 -33 3 -40 20 -40 17 0 20 7 20 40 0 33 -3 40 -20 40
-17 0 -20 -7 -20 -40z"/>
<path d="M8568 687 c4 -14 7 -16 13 -5 12 19 11 25 -5 25 -8 0 -11 -8 -8 -20z"/>
<path d="M8621 684 c0 -11 3 -14 6 -6 3 7 2 16 -1 19 -3 4 -6 -2 -5 -13z"/>
<path d="M8656 633 c-6 -14 -5 -15 5 -6 7 7 10 15 7 18 -3 3 -9 -2 -12 -12z"/>
<path d="M8670 611 c0 -5 5 -13 10 -16 6 -3 10 -2 10 4 0 5 -4 13 -10 16 -5 3
-10 2 -10 -4z"/>
<path d="M7357 584 c-11 -14 -30 -29 -43 -35 -14 -5 -51 -26 -82 -47 -87 -59
-117 -72 -169 -72 -54 0 -93 21 -93 50 0 10 -4 21 -9 24 -5 4 -7 -3 -4 -14 3
-11 -4 -30 -16 -46 -22 -28 -29 -60 -10 -48 8 5 9 -6 4 -35 -5 -32 -4 -41 8
-41 27 0 47 -35 47 -82 0 -29 6 -50 16 -59 11 -9 14 -22 9 -43 -4 -17 -7 -46
-6 -64 0 -25 -6 -36 -25 -44 -13 -6 -24 -15 -24 -20 0 -4 120 -8 267 -8 208 0
264 3 255 12 -24 24 -14 64 27 101 22 20 47 47 56 61 16 23 15 26 -4 53 -16
21 -22 47 -25 98 -3 68 -4 70 -37 87 -19 10 -26 18 -17 18 23 0 32 18 18 34
-6 8 -8 25 -5 39 8 30 -10 44 -24 20 -11 -18 -12 -16 -14 27 -2 18 -9 26 -25
28 -13 2 -26 10 -29 18 -8 21 -26 17 -46 -12z"/>
<path d="M8560 580 c0 -5 6 -10 14 -10 8 0 18 5 21 10 3 6 -3 10 -14 10 -12 0
-21 -4 -21 -10z"/>
<path d="M8742 544 c-12 -8 -20 -20 -17 -25 9 -13 18 -11 41 7 18 15 18 15 -3
5 -34 -17 -40 -12 -13 9 30 23 24 27 -8 4z"/>
<path d="M8960 334 c0 -14 3 -14 15 -4 8 7 15 14 15 16 0 2 -7 4 -15 4 -8 0
-15 -7 -15 -16z"/>
<path d="M9208 223 c7 -3 16 -2 19 1 4 3 -2 6 -13 5 -11 0 -14 -3 -6 -6z"/>
<path d="M9315 160 c-4 -6 -11 -7 -17 -4 -7 4 -8 2 -4 -5 6 -9 11 -9 22 0 14
11 18 19 10 19 -3 0 -8 -5 -11 -10z"/>
<path d="M4021 49 c-69 -42 -69 -49 2 -49 48 0 71 5 87 18 21 17 21 19 5 35
-22 23 -53 21 -94 -4z"/>
<path d="M9434 45 c-18 -14 -18 -14 4 -8 12 3 22 9 22 14 0 12 -3 11 -26 -6z"/>
</g>
</svg>
