<svg width="321.39" height="150.22" viewBox="0 0 129 60" fill="none" xmlns="http://www.w3.org/2000/svg">
<g clip-path="url(#clip0_11_2)">
<path d="M58.08 53.61C58.16 53.42 58.25 53.23 58.3 53.03C58.44 52.47 58.54 51.9 58.72 51.36C58.79 51.16 59.04 50.91 59.23 50.9C59.41 50.88 59.71 51.11 59.77 51.29C59.99 51.94 60.12 52.62 60.29 53.28C60.33 53.45 60.38 53.62 60.42 53.79C60.47 53.79 60.51 53.8 60.56 53.8C60.64 53.63 60.74 53.46 60.79 53.28C60.98 52.62 61.12 51.95 61.34 51.3C61.4 51.13 61.65 50.9 61.81 50.9C62.16 50.91 62.1 51.2 62.03 51.45C61.69 52.61 61.36 53.77 60.99 54.92C60.94 55.07 60.67 55.27 60.52 55.25C60.4122 55.2246 60.3114 55.1755 60.225 55.1063C60.1385 55.0371 60.0685 54.9496 60.02 54.85C59.84 54.35 59.75 53.81 59.61 53.29C59.53 53 59.42 52.71 59.32 52.43H59.15C59.09 52.6 59.01 52.77 58.97 52.95C58.81 53.56 58.69 54.18 58.49 54.78C58.42 54.98 58.16 55.25 57.99 55.25C57.81 55.25 57.53 55 57.47 54.8C57.17 53.89 56.92 52.95 56.65 52.03C56.6 51.85 56.51 51.67 56.51 51.49C56.51 51.29 56.58 51.09 56.62 50.88C56.83 51.01 57.17 51.09 57.24 51.27C57.44 51.81 57.52 52.38 57.65 52.94C57.7 53.16 57.79 53.38 57.85 53.6C57.94 53.6 58.01 53.6 58.08 53.61ZM80.11 53.7C80.21 53.39 80.33 53.09 80.41 52.78C80.55 52.28 80.63 51.76 80.8 51.27C80.86 51.09 81.13 50.87 81.29 50.88C81.48 50.89 81.76 51.1 81.82 51.28C82.04 51.93 82.17 52.61 82.35 53.27C82.4 53.45 82.49 53.63 82.56 53.81C82.61 53.81 82.66 53.81 82.71 53.8C82.85 53.29 82.98 52.78 83.12 52.27C83.22 51.89 83.3 51.51 83.45 51.15C83.51 51.01 83.75 50.95 83.91 50.86C83.98 51.03 84.15 51.22 84.11 51.36C83.79 52.56 83.44 53.75 83.06 54.94C83.01 55.09 82.72 55.25 82.55 55.24C82.4 55.23 82.17 55.03 82.12 54.86C81.9 54.19 81.74 53.5 81.55 52.82C81.5 52.65 81.43 52.49 81.37 52.33C81.32 52.33 81.26 52.33 81.21 52.32C81.07 52.82 80.94 53.32 80.8 53.83C80.71 54.17 80.65 54.52 80.51 54.85C80.44 55.02 80.2 55.27 80.09 55.25C79.88 55.2 79.59 55.02 79.53 54.83C79.25 54.01 79.03 53.16 78.79 52.32C78.71 52.04 78.58 51.76 78.55 51.47C78.53 51.28 78.64 51.07 78.7 50.87C78.91 50.99 79.24 51.07 79.29 51.24C79.5 51.87 79.62 52.53 79.77 53.18C79.81 53.35 79.86 53.52 79.9 53.69C79.97 53.69 80.04 53.7 80.11 53.7ZM103.77 51.16C103.77 50.61 103.73 50.18 103.79 49.77C103.82 49.57 104.02 49.28 104.18 49.25C104.54 49.18 104.56 49.5 104.56 49.77V54.67C104.56 55.29 104.44 55.35 103.87 55.15C103.719 55.1018 103.556 55.1089 103.41 55.17C102.16 55.69 101.26 55.31 100.8 54.05C100.51 53.26 100.51 52.5 100.87 51.73C101.3 50.82 102.3 50.47 103.21 50.92C103.34 50.98 103.49 51.04 103.77 51.16ZM101.38 53.04C101.42 53.29 101.45 53.55 101.51 53.8C101.66 54.39 102.02 54.68 102.56 54.69C103.1 54.69 103.57 54.4 103.64 53.84C103.71 53.25 103.66 52.63 103.52 52.05C103.41 51.59 102.95 51.37 102.46 51.41C101.98 51.45 101.62 51.69 101.52 52.21C101.47 52.48 101.43 52.76 101.38 53.04ZM110.81 51.13C110.81 50.61 110.82 50.21 110.81 49.8C110.8 49.5 110.84 49.21 111.23 49.21C111.6 49.21 111.6 49.49 111.6 49.77V54.67C111.6 55.28 111.49 55.34 110.9 55.13C110.77 55.08 110.58 55.1 110.44 55.16C109.2 55.68 108.3 55.29 107.83 54.03C107.56 53.3 107.53 52.59 107.84 51.86C108.3 50.78 109.24 50.42 110.29 50.94C110.42 51 110.56 51.04 110.81 51.13ZM110.79 53.05C110.75 52.87 110.71 52.5 110.6 52.15C110.44 51.66 110.04 51.41 109.53 51.41C108.8 51.41 108.35 52.16 108.42 53.21C108.49 54.21 108.95 54.75 109.71 54.68C110.38 54.63 110.78 54.08 110.79 53.05ZM72.35 51.22C72.35 50.63 72.32 50.17 72.37 49.72C72.39 49.54 72.6 49.38 72.72 49.2C72.84 49.37 73.07 49.54 73.07 49.71C73.1 51.4 73.09 53.09 73.08 54.77C73.08 55.29 72.88 55.37 72.42 55.12C72.3 55.06 72.1 55.05 71.99 55.11C70.88 55.7 69.76 55.25 69.37 54.07C69.12 53.32 69.08 52.59 69.37 51.84C69.76 50.82 70.88 50.4 71.84 50.94C71.96 51.01 72.09 51.08 72.35 51.22ZM69.97 53.09C69.99 53.26 70 53.53 70.06 53.77C70.19 54.24 70.43 54.62 70.98 54.68C71.52 54.74 71.98 54.53 72.14 54.02C72.28 53.58 72.33 53.07 72.27 52.61C72.18 51.83 71.66 51.37 71.06 51.4C70.42 51.43 70.08 51.86 70 52.72C69.99 52.82 69.99 52.91 69.97 53.09ZM94.9 53.03C94.9 53.38 94.87 53.74 94.91 54.09C94.94 54.3 95.08 54.5 95.18 54.71C95.24 54.85 95.31 54.99 95.37 55.12C95.23 55.19 95.08 55.26 94.94 55.31C94.89 55.33 94.81 55.33 94.78 55.3C94.23 54.8 93.72 55.13 93.15 55.3C92.53 55.48 91.89 55.43 91.45 54.8C90.99 54.14 91.23 53.17 91.99 52.89C92.45 52.72 92.96 52.68 93.46 52.6C93.81 52.54 94.22 52.47 94.14 52.05C94.09 51.8 93.78 51.49 93.52 51.4C93.01 51.21 92.55 51.37 92.22 51.87C92.12 52.02 91.86 52.08 91.68 52.18C91.65 51.94 91.53 51.67 91.61 51.48C91.84 50.95 92.36 50.74 92.89 50.73C93.38 50.72 93.9 50.8 94.34 50.99C94.6 51.1 94.81 51.5 94.88 51.8C94.97 52.19 94.9 52.61 94.9 53.02C94.89 53.03 94.9 53.03 94.9 53.03ZM92.85 54.72C93.48 54.72 94.05 54.3 94.15 53.78C94.24 53.3 94.08 53.13 93.59 53.21C93.28 53.26 92.96 53.28 92.66 53.37C92.28 53.48 91.98 53.71 92.07 54.18C92.14 54.61 92.47 54.71 92.85 54.72ZM75.94 55.36C74.72 55.37 73.88 54.45 73.86 53.1C73.84 51.69 74.71 50.69 75.94 50.7C77.12 50.71 77.98 51.68 77.99 53.02C78 54.4 77.17 55.35 75.94 55.36ZM77.16 52.9C77.14 52.78 77.13 52.52 77.06 52.27C76.88 51.63 76.23 51.25 75.64 51.41C75.08 51.56 74.74 52.04 74.68 52.82C74.63 53.51 74.71 54.16 75.37 54.58C75.44 54.63 75.55 54.64 75.64 54.65C76.6 54.82 77.16 54.22 77.16 52.9ZM116.41 53.05C116.41 54.67 115.43 55.57 113.91 55.32C113.06 55.18 112.68 54.56 112.42 53.83C112.05 52.76 112.55 51.33 113.45 50.92C115.01 50.21 116.42 51.23 116.41 53.05ZM115.64 53.04C115.64 52.07 115.17 51.42 114.44 51.38C113.73 51.34 113.21 51.92 113.12 52.88C113.03 53.82 113.47 54.58 114.15 54.67C115.08 54.78 115.65 54.16 115.64 53.04ZM121.12 53.06C121.12 54.67 120.11 55.57 118.61 55.32C117.79 55.18 117.41 54.59 117.15 53.88C116.76 52.78 117.26 51.33 118.17 50.92C119.72 50.22 121.12 51.24 121.12 53.06ZM120.34 53.06C120.34 52.06 119.86 51.39 119.1 51.38C118.41 51.36 117.92 51.93 117.82 52.86C117.73 53.76 118.14 54.54 118.78 54.66C119.72 54.83 120.34 54.2 120.34 53.06ZM86.54 55.38C85.46 55.36 84.92 55.06 84.76 54.43C84.72 54.28 84.84 54.08 84.88 53.9C85.06 53.96 85.29 53.97 85.4 54.1C85.87 54.66 86.34 54.86 86.98 54.63C87.19 54.55 87.44 54.31 87.46 54.11C87.48 53.95 87.23 53.66 87.04 53.58C86.55 53.37 86.01 53.26 85.51 53.08C85.05 52.92 84.78 52.6 84.79 52.07C84.8 51.52 85.06 51.15 85.53 50.92C86.43 50.48 87.47 50.68 87.93 51.4C88.03 51.57 87.98 51.83 88 52.05C87.79 51.99 87.53 51.98 87.39 51.85C86.85 51.35 86.35 51.22 85.85 51.52C85.41 51.78 85.39 52.14 85.85 52.35C86.33 52.57 86.87 52.68 87.38 52.86C88.08 53.11 88.32 53.43 88.28 54.02C88.24 54.63 87.8 55.15 87.2 55.29C86.92 55.35 86.66 55.36 86.54 55.38ZM126.43 55.38C125.35 55.36 124.81 55.07 124.64 54.44C124.6 54.28 124.7 54.09 124.74 53.91C124.93 53.98 125.18 54 125.29 54.13C125.72 54.65 126.34 54.88 126.94 54.6C127.12 54.51 127.31 54.27 127.34 54.07C127.36 53.93 127.15 53.68 126.98 53.6C126.65 53.45 126.28 53.36 125.92 53.28C125.11 53.11 124.69 52.74 124.67 52.15C124.65 51.44 125.05 50.97 125.85 50.75C126.56 50.56 127.4 50.8 127.75 51.35C127.87 51.53 127.83 51.81 127.87 52.04C127.65 51.97 127.38 51.95 127.22 51.81C126.75 51.37 126.25 51.22 125.77 51.5C125.61 51.59 125.42 51.78 125.42 51.94C125.41 52.09 125.6 52.32 125.75 52.38C126.23 52.57 126.74 52.69 127.22 52.86C127.94 53.12 128.17 53.42 128.14 54C128.11 54.62 127.65 55.16 127.02 55.29C126.78 55.35 126.53 55.36 126.43 55.38ZM64.7 53.08C64.7 52.52 64.69 51.96 64.7 51.41C64.71 50.85 64.88 50.77 65.38 51.01C65.52 51.08 65.76 51.05 65.91 50.97C67.23 50.29 68.34 50.93 68.35 52.41C68.36 53.19 68.37 53.97 68.34 54.75C68.33 54.93 68.14 55.22 67.99 55.25C67.66 55.32 67.57 55.04 67.57 54.75C67.57 54.03 67.58 53.3 67.56 52.58C67.54 51.84 67.29 51.48 66.76 51.42C66.22 51.36 65.65 51.77 65.55 52.42C65.46 53 65.49 53.6 65.48 54.2C65.47 54.39 65.48 54.57 65.48 54.76C65.48 55.05 65.4 55.33 65.07 55.27C64.92 55.24 64.74 54.96 64.72 54.77C64.68 54.2 64.71 53.64 64.7 53.08ZM97.15 51.14C97.2 51.1 97.31 51.02 97.41 50.95C98.41 50.31 99.69 50.92 99.76 52.11C99.81 53 99.79 53.9 99.76 54.79C99.75 54.95 99.5 55.11 99.37 55.26C99.24 55.09 99.02 54.93 99.01 54.75C98.96 53.95 98.98 53.15 98.96 52.35C98.95 51.9 98.8 51.53 98.31 51.44C97.83 51.35 97.4 51.51 97.17 51.94C97.02 52.22 96.93 52.57 96.91 52.89C96.87 53.54 96.92 54.19 96.88 54.84C96.87 54.99 96.64 55.14 96.51 55.28C96.4 55.14 96.19 54.99 96.19 54.85C96.16 53.68 96.17 52.51 96.18 51.33C96.18 51.18 96.31 50.91 96.37 50.92C96.6 50.94 96.83 51.04 97.15 51.14ZM126.99 8.35C127.22 7.72 127.45 7.08 127.68 6.45C127.74 6.29 127.77 6.11 127.88 6C128.07 5.79 128.36 5.8 128.37 6.09C128.4 7.09 128.36 8.09 128.34 9.08C128.34 9.1 128.28 9.12 128.12 9.21C128.08 8.56 128.04 7.97 128 7.39L127.83 7.36C127.71 7.69 127.58 8.01 127.46 8.34C127.4 8.51 127.38 8.71 127.29 8.87C127.2 9.02 127.06 9.21 126.92 9.22C126.8 9.23 126.6 9.04 126.54 8.9C126.35 8.46 126.21 7.99 126.05 7.54C126.01 7.42 125.95 7.31 125.9 7.2H125.74C125.73 7.49 125.71 7.78 125.7 8.07C125.69 8.35 125.72 8.63 125.69 8.91C125.68 9.03 125.54 9.13 125.47 9.24C125.39 9.13 125.24 9.03 125.24 8.92C125.21 8.44 125.22 7.95 125.22 7.47C125.22 7.08 125.2 6.68 125.26 6.3C125.28 6.14 125.47 6 125.59 5.85C125.73 5.97 125.95 6.06 126.01 6.21C126.29 6.91 126.53 7.63 126.78 8.34C126.86 8.33 126.92 8.34 126.99 8.35ZM122.05 53.07C122.05 52.49 122.04 51.92 122.05 51.34C122.07 50.86 122.27 50.78 122.7 51C122.84 51.07 123.06 51.04 123.23 51C123.39 50.96 123.53 50.78 123.67 50.78C123.85 50.78 124.03 50.91 124.21 50.98C124.12 51.16 124.05 51.47 123.93 51.49C122.93 51.67 122.79 52.37 122.81 53.2C122.82 53.66 122.81 54.13 122.81 54.59C122.81 54.89 122.84 55.24 122.4 55.24C121.98 55.24 122.04 54.89 122.04 54.62C122.04 54.11 122.05 53.59 122.05 53.07ZM63.65 53.07C63.65 53.64 63.68 54.22 63.63 54.79C63.62 54.96 63.41 55.11 63.3 55.26C63.16 55.1 62.9 54.95 62.9 54.79C62.86 53.64 62.86 52.49 62.9 51.35C62.9 51.19 63.16 51.03 63.3 50.87C63.42 51.03 63.63 51.18 63.64 51.34C63.68 51.92 63.65 52.49 63.65 53.07ZM123.2 7.78C123.2 7.56 123.18 7.33 123.2 7.11C123.25 6.58 123.11 6.24 122.48 6.27C122.37 6.28 122.26 6.13 122.15 6.06C122.27 5.98 122.39 5.82 122.52 5.82C123.13 5.79 123.74 5.8 124.36 5.82C124.48 5.82 124.6 5.95 124.71 6.02C124.59 6.11 124.47 6.29 124.36 6.28C123.77 6.23 123.67 6.55 123.7 7.03C123.73 7.59 123.73 8.14 123.7 8.7C123.69 8.88 123.54 9.06 123.45 9.23C123.37 9.04 123.24 8.86 123.22 8.67C123.16 8.38 123.19 8.08 123.2 7.78C123.19 7.78 123.19 7.78 123.2 7.78ZM63.82 49.63C63.57 49.82 63.39 50.03 63.29 50.01C63.13 49.97 63.01 49.75 62.87 49.61C63.02 49.48 63.15 49.28 63.31 49.24C63.43 49.22 63.59 49.44 63.82 49.63ZM44.05 37.65C44.05 31.08 44.06 24.52 44.04 17.95C44.04 17.43 44.19 17.09 44.64 16.87C48.12 15.17 51.75 14.55 55.53 15.51C57.83 16.1 59.26 17.71 60.02 19.93C61.07 22.99 60.99 26.16 60.83 29.32C60.7382 31.176 60.5714 33.0275 60.33 34.87C60.04 37.01 59.56 39.12 58.35 40.97C57.45 42.33 56.22 43.19 54.55 43.3C53.2 43.39 51.87 43.4 50.66 42.65C50.41 42.49 50.22 42.58 50.2 42.89C50.18 43.07 50.2 43.26 50.2 43.45C50.2 48.64 50.2 53.83 50.21 59.02C50.21 59.48 50.03 59.72 49.63 59.83C49.38 59.9 49.12 59.97 48.87 59.97C47.83 59.99 46.79 60 45.74 59.98C44.98 59.97 44.37 59.46 44.25 58.72C44.14 58.06 44.07 57.39 44.07 56.73C44.04 50.37 44.05 44.01 44.05 37.65ZM50.19 29.01V36.38C50.19 37.15 50.65 37.76 51.31 37.9C52.08 38.06 52.68 37.76 52.96 36.93C53.24 36.09 53.52 35.22 53.61 34.35C53.8 32.28 53.93 30.2 53.98 28.12C54.03 26.1 54.14 24.07 53.68 22.06C53.36 20.64 52.5 20.08 51.11 20.47C50.4 20.66 50.2 20.93 50.2 21.66C50.19 24.1 50.19 26.56 50.19 29.01ZM85.5 30.86C85.4 34.09 85.26 37.33 85.23 40.56C85.22 41.54 84.76 41.93 83.96 42.23C81.02 43.37 77.98 43.56 74.89 43.19C73.18 42.99 71.74 42.19 70.82 40.66C70.2207 39.646 69.852 38.5125 69.74 37.34C69.51 35.06 69.48 32.77 70.06 30.52C70.54 28.64 71.44 27.06 73.36 26.31C74.44 25.89 75.57 25.78 76.71 25.95C77.39 26.05 78.05 26.25 78.71 26.43C79.11 26.54 79.32 26.49 79.32 26.02C79.31 24.94 79.34 23.86 79.3 22.78C79.27 21.7 78.79 21.11 77.71 21.07C76.47 21.02 75.22 21.1 73.99 21.26C72.95 21.4 71.93 21.75 70.9 21.98C70.75 22.01 70.44 21.94 70.4 21.83C69.78 20.37 69.34 18.87 70 17.31C70.15 16.95 70.52 16.61 70.87 16.43C72.56 15.57 74.42 15.32 76.27 15.17C78.07 15.03 79.87 14.97 81.66 15.4C83.41 15.82 84.84 17.16 85.12 18.93C85.29 20.03 85.4 21.14 85.42 22.25C85.46 25.11 85.43 27.98 85.43 30.84C85.47 30.85 85.49 30.85 85.5 30.86ZM79.23 34.32H79.33C79.33 33.34 79.35 32.35 79.31 31.37C79.3 31.11 79.15 30.76 78.95 30.63C78.03 30.02 76.74 30.51 76.41 31.56C75.87 33.28 75.94 35.05 76.18 36.8C76.36 38.11 77.1 38.52 78.37 38.25C78.91 38.14 79.23 37.86 79.22 37.27C79.22 36.28 79.23 35.3 79.23 34.32ZM106.01 29.36C106.01 26.74 106 24.12 106.02 21.49C106.03 20.93 105.82 20.77 105.3 20.8C104.65 20.83 104 20.8 103.35 20.81C102.93 20.82 102.75 20.67 102.77 20.22C102.83 19.11 102.83 17.99 102.89 16.88C102.95 15.91 103.25 15.66 104.24 15.65C104.59 15.65 104.95 15.63 105.3 15.66C105.85 15.7 106.02 15.44 106.01 14.93C106 12.74 106 10.54 106 8.35C106 6.53 106.31 6.15 108.11 5.98C109.2 5.87 110.3 5.87 111.4 5.84C112.06 5.82 112.15 5.94 112.15 6.63V14.78C112.15 15.6 112.21 15.66 113.04 15.66H116C116.33 15.66 116.63 15.71 116.61 16.12C116.56 17.38 116.54 18.65 116.41 19.9C116.33 20.67 116.06 20.82 115.27 20.82C114.41 20.82 113.56 20.83 112.7 20.82C112.3 20.82 112.14 20.97 112.14 21.38C112.15 26.23 112.15 31.09 112.16 35.94C112.16 36.35 112.2 36.76 112.27 37.16C112.39 37.83 112.84 38.26 113.51 38.18C114.26 38.09 115.01 37.92 115.72 37.68C116.15 37.54 116.31 37.59 116.36 38.02C116.45 38.81 116.58 39.6 116.63 40.39C116.7 41.52 116.15 42.4 115.13 42.77C112.9 43.59 110.61 43.72 108.42 42.63C106.96 41.91 106.4 40.49 106.27 38.99C106.08 36.77 106.07 34.54 106 32.31C105.98 31.33 106.01 30.34 106.01 29.36ZM95.23 15.1C96.84 15.07 98.39 15.21 99.88 15.75C101.6 16.38 102.37 18 101.69 19.71C101.5 20.19 101.24 20.64 101 21.1C100.84 21.4 100.63 21.42 100.3 21.27C98.62 20.44 96.84 20.17 94.98 20.45C93.68 20.64 93.06 21.77 93.75 22.87C94.32 23.79 95.08 24.6 95.82 25.4C97.1 26.8 98.49 28.1 99.73 29.53C101.84 31.98 102.28 34.87 101.48 37.91C100.87 40.22 99.29 41.75 97.06 42.59C94.3 43.63 91.47 43.59 88.66 42.85C86.98 42.4 85.94 41.3 86.39 39.25C86.54 38.57 86.79 37.9 87.01 37.24C87.15 36.83 87.42 36.77 87.8 36.96C89.23 37.65 90.75 37.96 92.34 37.9C94.08 37.83 95.05 36.6 94.7 34.89C94.52 34.03 94.15 33.28 93.55 32.64L88.99 27.81C87.67 26.4 86.64 24.83 86.32 22.89C85.81 19.76 87.18 16.81 90.57 15.75C92.12 15.25 93.68 15.06 95.23 15.1ZM68.37 22.64V41.45C68.37 42.43 68.27 42.63 67.29 42.7C65.77 42.81 64.24 42.82 62.72 42.82C62.57 42.82 62.38 42.56 62.28 42.38C62.21 42.27 62.26 42.09 62.26 41.94V5.99C62.26 5.54 62.27 5.1 62.32 4.65C62.42 3.76 62.96 3.14 63.85 3.05C65.18 2.92 66.52 2.88 67.86 2.8C68.22 2.78 68.37 2.97 68.37 3.31V22.64ZM42.44 21.84V42.88C42.44 43.58 42.38 43.65 41.68 43.65C31.87 43.65 22.06 43.65 12.25 43.66C11.78 43.66 11.52 43.5 11.29 43.08C8.76 38.34 6.21 33.62 3.66 28.9C2.51 26.76 1.36 24.61 0.190001 22.48C-0.0799989 21.99 -0.0699989 21.55 0.200001 21.06C2.95 15.96 5.69 10.85 8.43 5.75C9.34 4.06 10.26 2.39 11.14 0.69C11.42 0.14 11.77 0 12.34 0C21.91 0.02 31.48 0.01 41.04 0.01H41.71C42.39 0.02 42.44 0.07 42.44 0.74V21.84ZM41.01 21.81V2.05C41.01 1.36 40.94 1.27 40.31 1.27C31.19 1.27 22.06 1.27 12.94 1.26C12.54 1.26 12.28 1.4 12.09 1.76C11.44 2.99 10.78 4.22 10.12 5.45C7.33 10.66 4.55 15.87 1.75 21.07C1.49 21.55 1.48 21.93 1.74 22.41C5.21 28.83 8.67 35.26 12.13 41.69C12.34 42.08 12.61 42.23 13.06 42.23C22.11 42.22 31.16 42.22 40.21 42.22C40.98 42.22 41.01 42.2 41.01 41.45V21.81Z" fill="#fff"/>
<path d="M35.6 41.16C34.93 41.12 34.26 41.08 33.59 41.05C33.15 41.03 32.94 40.83 32.85 40.38C32.39 38.01 31.9 35.64 31.4 33.28C31.21 32.38 31.18 32.38 30.25 32.38H24.72C24.04 32.38 23.95 32.49 23.81 33.16C23.35 35.46 22.88 37.75 22.4 40.04C22.3 40.5 22.04 40.86 21.52 40.94C21.1 41.01 20.67 41.13 20.25 41.12C18.93 41.09 17.61 41.01 16.29 40.94C15.95 40.92 15.72 40.84 15.83 40.4C16.72 36.81 17.6 33.22 18.49 29.63C19.44 25.79 20.41 21.96 21.36 18.11C22.2 14.7 23.02 11.29 23.85 7.87C24.16 6.59 24.49 5.31 24.81 4.03C24.94 3.52 25.26 3.17 25.77 3.03C27.13 2.64 28.5 2.82 29.87 3.02C30.04 3.05 30.24 3.33 30.29 3.52C30.71 5.12 31.1 6.72 31.5 8.33C31.91 9.97 32.31 11.61 32.71 13.25C33.21 15.27 33.7 17.29 34.2 19.31C34.59 20.9 34.98 22.49 35.37 24.07C35.87 26.11 36.38 28.15 36.88 30.18C37.38 32.2 37.87 34.22 38.36 36.24C38.64 37.36 38.94 38.47 39.2 39.59C39.41 40.53 39.26 40.8 38.33 40.94C37.43 41.08 36.52 41.09 35.61 41.16C35.6 41.19 35.6 41.18 35.6 41.16ZM27.71 12.68C27.66 12.68 27.61 12.68 27.56 12.67C27.5 13.04 27.42 13.4 27.38 13.77C26.92 17.98 26.18 22.15 25.24 26.28C25.15 26.66 25.22 26.86 25.65 26.85H29.5C29.91 26.85 30.05 26.71 29.95 26.27C29.57 24.49 29.16 22.71 28.88 20.92C28.47 18.3 28.17 15.66 27.82 13.03C27.8 12.91 27.74 12.79 27.71 12.68Z" fill="#fff"/>
</g>
<defs>
<clipPath id="clip0_11_2">
<rect width="128.38" height="60" fill="white"/>
</clipPath>
</defs>
</svg>
