<?xml version="1.0" encoding="UTF-8"?> <svg xmlns="http://www.w3.org/2000/svg" width="43.3" height="43.3" overflow="visible"><path d="M22.26.25c-.16-.16-.38-.25-.6-.25a.857.857 0 00-.85.85.857.857 0 00.85.85.857.857 0 00.85-.85c0-.22-.1-.44-.25-.6z"></path><path d="M43.05 20.2l-8.72-8.72V6.26c0-.93-.76-1.69-1.69-1.69h-1.69V.85A.85.85 0 0030.1 0h-5.27a.85.85 0 100 1.7h4.43v2.88H14.04V1.69h4.45c.47 0 .85-.38.85-.85S18.96 0 18.49 0h-5.3a.85.85 0 00-.85.85v3.72h-1.69c-.93 0-1.69.76-1.69 1.69v30.78H7.1a.85.85 0 00-.85.85v3.72H1.69V22.49H7.1c.47 0 .85-.38.85-.85s-.38-.84-.85-.84H.85a.85.85 0 00-.85.85v20.8c0 .47.38.85.85.85h41.6c.47 0 .85-.38.85-.85V20.8c0-.22-.09-.44-.25-.6zM26.44 6.26h6.2v6.43h-6.2V6.26zm0 8.12h6.2v6.43h-6.2v-6.43zm0 8.11h6.2v6.43h-6.2v-6.43zm0 8.12h6.2v6.43h-6.2v-6.43zM18.55 6.26h6.2v6.43h-6.2V6.26zm0 8.12h6.2v6.43h-6.2v-6.43zm0 8.11h6.2v6.43h-6.2v-6.43zm0 8.12h6.2v6.43h-6.2v-6.43zm-7.9-24.35h6.2v6.43h-6.2V6.26zm0 8.12h6.2v6.43h-6.2v-6.43zm0 8.11h6.2v6.43h-6.2v-6.43zm0 8.12h6.2v6.43h-6.2v-6.43zm24.7 10.99H7.95v-2.88h27.4v2.88zm6.25 0h-4.57v-3.72a.85.85 0 00-.85-.85h-1.86v-2.38h2.69a.85.85 0 100-1.7h-2.69V30.6h2.69a.85.85 0 100-1.7h-2.69v-2.36h2.69a.85.85 0 100-1.7h-2.69v-2.36h2.69a.85.85 0 100-1.7h-2.69v-6.93l7.27 7.28V41.6z"></path></svg> 