<svg width="60" height="60" viewBox="0 0 60 60" fill="none" xmlns="http://www.w3.org/2000/svg">
<g clip-path="url(#clip0_3_5)">
<path d="M42.5 7.5C43.8261 7.5 45.0979 8.02678 46.0355 8.96447C46.9732 9.90215 47.5 11.1739 47.5 12.5V47.5H50C50.663 47.5 51.2989 47.7634 51.7678 48.2322C52.2366 48.7011 52.5 49.337 52.5 50C52.5 50.663 52.2366 51.2989 51.7678 51.7678C51.2989 52.2366 50.663 52.5 50 52.5H10C9.33696 52.5 8.70107 52.2366 8.23223 51.7678C7.76339 51.2989 7.5 50.663 7.5 50C7.5 49.337 7.76339 48.7011 8.23223 48.2322C8.70107 47.7634 9.33696 47.5 10 47.5H12.5V12.5C12.5 11.1739 13.0268 9.90215 13.9645 8.96447C14.9021 8.02678 16.1739 7.5 17.5 7.5H42.5ZM42.5 12.5H17.5V47.5H42.5V12.5ZM36.25 27.5C36.7425 27.5 37.2301 27.597 37.6851 27.7855C38.14 27.9739 38.5534 28.2501 38.9017 28.5983C39.2499 28.9466 39.5261 29.36 39.7146 29.8149C39.903 30.2699 40 30.7575 40 31.25C40 31.7425 39.903 32.2301 39.7146 32.6851C39.5261 33.14 39.2499 33.5534 38.9017 33.9017C38.5534 34.2499 38.14 34.5261 37.6851 34.7145C37.2301 34.903 36.7425 35 36.25 35C35.2554 35 34.3016 34.6049 33.5983 33.9017C32.8951 33.1984 32.5 32.2446 32.5 31.25C32.5 30.2554 32.8951 29.3016 33.5983 28.5983C34.3016 27.8951 35.2554 27.5 36.25 27.5Z" fill="#2689A4"/>
</g>
<defs>
<clipPath id="clip0_3_5">
<rect width="60" height="60" fill="white"/>
</clipPath>
</defs>
</svg>
