<svg width="60" height="60" viewBox="0 0 60 60" fill="none" xmlns="http://www.w3.org/2000/svg">
<path d="M32.5 10H40C41.3261 10 42.5979 10.5268 43.5355 11.4645C44.4732 12.4022 45 13.6739 45 15V50M5 50H12.5M12.5 50L29.395 54.2225C29.7635 54.3144 30.148 54.3212 30.5195 54.2422C30.8909 54.1633 31.2395 54.0009 31.5388 53.7671C31.8381 53.5334 32.0802 53.2345 32.2467 52.8933C32.4133 52.552 32.4999 52.1772 32.5 51.7975V11.405C32.4995 10.6455 32.326 9.89351 31.9926 9.21104C31.6592 8.52858 31.1747 7.93104 30.5759 7.46379C29.977 6.99654 29.2796 6.67186 28.5366 6.51439C27.7935 6.35693 27.0244 6.37081 26.2875 6.555L16.2875 9.055C15.2058 9.32539 14.2455 9.94956 13.5593 10.8283C12.873 11.7071 12.5002 12.79 12.5 13.905V50ZM32.5 50H55M25 30V30.025" stroke="rgba(38, 137, 164, 1)" stroke-width="5" stroke-linecap="round" stroke-linejoin="round"/>
</svg>
